<?xml version="1.0" encoding="UTF-8" standalone="no"?>
<!-- Created with Inkscape (http://www.inkscape.org/) -->

<svg
   width="15.404114mm"
   height="7.2807221mm"
   viewBox="0 0 15.404114 7.2807221"
   version="1.1"
   id="svg9526"
   inkscape:version="1.2.2 (732a01da63, 2022-12-09)"
   sodipodi:docname="budget.svg"
   xmlns:inkscape="http://www.inkscape.org/namespaces/inkscape"
   xmlns:sodipodi="http://sodipodi.sourceforge.net/DTD/sodipodi-0.dtd"
   xmlns="http://www.w3.org/2000/svg"
   xmlns:svg="http://www.w3.org/2000/svg">
  <sodipodi:namedview
     id="namedview9528"
     pagecolor="#ffffff"
     bordercolor="#000000"
     borderopacity="0.25"
     inkscape:showpageshadow="2"
     inkscape:pageopacity="0.0"
     inkscape:pagecheckerboard="0"
     inkscape:deskcolor="#d1d1d1"
     inkscape:document-units="mm"
     showgrid="false"
     inkscape:zoom="0.80444024"
     inkscape:cx="-169.68321"
     inkscape:cy="-206.35467"
     inkscape:window-width="1920"
     inkscape:window-height="1027"
     inkscape:window-x="-8"
     inkscape:window-y="-8"
     inkscape:window-maximized="1"
     inkscape:current-layer="layer1" />
  <defs
     id="defs9523" />
  <g
     inkscape:label="Ebene 1"
     inkscape:groupmode="layer"
     id="layer1"
     transform="translate(-133.72651,-150.61546)">
    <g
       id="g7890"
       transform="translate(124.90034,138.25348)">
      <path
         style="color:#000000;fill:#ffffff;stroke-linejoin:bevel;-inkscape-stroke:none"
         d="m 10.681641,12.447267 c -0.1057,0.07174 -0.201538,0.175702 -0.291016,0.291015 -0.08948,0.115313 -0.170919,0.240593 -0.234375,0.34961 -0.06346,0.109017 -0.107448,0.191125 -0.128906,0.265625 -0.1612598,0.559857 -0.2885677,1.574777 -0.2226565,2.46289 0.00442,0.0595 0.030921,0.09809 0.037109,0.15625 -0.370461,0.382753 -0.7595752,0.846288 -1.015625,1.107422 l 0.1894531,0.185547 c 0.2170211,-0.221331 0.5761147,-0.654583 0.9003906,-0.982422 0.045855,0.244045 0.067666,0.512649 0.1660158,0.699219 0.164023,0.311153 0.441979,0.526627 0.802735,0.5 0.664382,-0.04904 1.079806,-0.456968 1.24414,-0.90625 0.127925,-0.349741 -0.0018,-0.669614 -0.15625,-0.947266 0.172775,0.08815 0.367178,0.195313 0.628907,0.195313 0.06396,0 0.09688,-0.04337 0.146484,-0.06641 -0.04476,0.150574 -0.09246,0.308069 -0.123047,0.496093 -0.03997,0.245704 -0.05919,0.501579 -0.02148,0.722656 0.01885,0.110539 0.05293,0.212927 0.113281,0.300782 0.06035,0.08786 0.153145,0.157517 0.265625,0.183593 0.114255,0.02649 0.229304,0.004 0.326172,-0.04883 0.09687,-0.05286 0.18001,-0.131605 0.255859,-0.224609 0.104521,-0.12816 0.183414,-0.303778 0.265625,-0.470703 -0.009,0.109848 -0.04321,0.225552 -0.02539,0.326172 0.01904,0.107531 0.05915,0.211342 0.134765,0.292968 0.07561,0.08163 0.185741,0.13331 0.3125,0.146485 0.149745,0.01556 0.279067,-0.06846 0.378906,-0.177735 0.09984,-0.109276 0.186918,-0.254007 0.277344,-0.417968 0.05571,-0.101019 0.129,-0.221457 0.1875,-0.333985 -0.04291,0.186822 -0.110614,0.379749 -0.04101,0.533203 0.05085,0.112126 0.151224,0.205536 0.279296,0.248047 0.128073,0.04251 0.279733,0.04236 0.460938,0.0039 0.502465,-0.106615 0.688606,-0.380291 0.802734,-0.558594 0.02004,-0.03131 0.01736,-0.03746 0.02148,-0.05078 0.0041,-0.01332 0.0095,-0.02802 0.01367,-0.04492 0.0084,-0.0338 0.01646,-0.07746 0.02734,-0.13086 0.0026,-0.01287 0.007,-0.03681 0.0098,-0.05078 0.01905,0.06273 0.02169,0.155628 0.04297,0.212891 0.07214,0.194159 0.155195,0.355442 0.269531,0.470703 0.114336,0.11526 0.282476,0.17797 0.445312,0.130859 0.240868,-0.06969 0.387154,-0.249723 0.451172,-0.451172 0.0214,-0.06733 0.0085,-0.143638 0.01758,-0.214843 0.07778,0.110042 0.181536,0.199483 0.306641,0.263671 0.144372,0.07407 0.301419,0.12757 0.433594,0.15625 0.302295,0.06559 0.524524,0.02205 0.699218,-0.07227 -0.06547,0.03034 -0.117533,0.05617 -0.18164,0.08789 -0.534208,0.264368 -1.026758,0.598094 -1.132813,1.150391 -0.07454,0.388193 0.159324,0.739048 0.458985,0.986328 0.29966,0.24728 0.672161,0.410505 0.982422,0.419922 0.13354,0.0041 0.247783,-0.08754 0.308593,-0.197266 0.06081,-0.109725 0.09415,-0.244434 0.115235,-0.402343 0.04218,-0.315819 0.03351,-0.725947 0.0059,-1.152344 -0.0186,-0.286935 -0.04959,-0.558262 -0.07813,-0.832031 0.267321,-0.116575 0.525099,-0.23913 0.759766,-0.373047 0.07447,0.15316 0.144615,0.313408 0.257812,0.421875 0.159749,0.153072 0.373774,0.247661 0.597656,0.193359 0.299847,-0.07272 0.51761,-0.260458 0.658204,-0.501953 0.140593,-0.241495 0.213096,-0.53492 0.255859,-0.849609 0.0036,-0.02648 7.16e-4,-0.05329 0.0039,-0.08008 0.06867,0.353733 0.138245,0.709511 0.326172,0.935546 0.119445,0.143667 0.275219,0.250219 0.462891,0.289063 0.187672,0.03884 0.399652,0.01125 0.634765,-0.08398 0.263834,-0.106864 0.269456,-0.290678 0.383864,-0.42876 0.164027,-0.42788 0.04005,-0.668598 -0.192856,-0.229635 -0.264562,0.282626 -0.294185,0.352007 -0.639431,0.307884 -0.580624,-0.07469 -0.741036,-0.638505 -0.801586,-1.079176 -0.118356,-0.898602 -0.02344,-2.007805 -0.02344,-2.476562 -0.105201,-0.311888 -0.269174,0.05932 -0.273568,0.230485 -0.006,0.231279 -0.01581,0.542856 -0.03125,0.683594 -0.06423,0.585382 -0.154179,0.990708 -0.234667,1.582999 -0.04024,0.296145 -0.135479,0.506682 -0.222656,0.746814 -0.07655,0.210875 -0.225952,0.454748 -0.471631,0.4489 -0.24568,-0.0058 -0.314227,-0.0531 -0.455811,-0.225979 0.0022,-0.0015 0.0056,-0.0024 0.0078,-0.0039 0.290993,-0.202052 0.423318,-0.608562 0.429688,-0.9375 0.0032,-0.164469 -0.02008,-0.322163 -0.140625,-0.427734 -0.06027,-0.05279 -0.14809,-0.07734 -0.232422,-0.06641 -0.08433,0.01093 -0.165189,0.04998 -0.25,0.111328 -0.175624,0.127026 -0.249002,0.341452 -0.263672,0.566406 -0.0134,0.20546 0.03089,0.426744 0.09961,0.638672 -0.192442,0.111105 -0.432829,0.220668 -0.671875,0.326172 -0.0042,-0.03803 -0.0077,-0.08639 -0.01172,-0.123047 -0.02722,-0.24642 -0.03607,-0.374692 -0.04883,-0.525391 -0.0011,-0.02218 0.0056,-0.05396 0.0039,-0.07422 -0.0015,-0.01778 -0.0041,-0.02691 -0.0059,-0.04297 0.0098,-0.01054 0.0195,-0.02144 0.01953,-0.02149 5.5e-5,-9.2e-5 0.01755,-0.03893 0.01758,-0.03906 0.0283,-0.131632 -0.02258,-0.259537 -0.101563,-0.361328 -0.07899,-0.101792 -0.188052,-0.188069 -0.316406,-0.261719 -0.142075,-0.08152 -0.259474,-0.179656 -0.431239,-0.224804 -0.349533,-0.07324 -0.495418,-0.126478 -0.770485,0.02456 -0.307124,0.158715 -0.433132,0.360058 -0.466609,0.632729 -0.0077,0.188984 -0.01476,0.26734 -0.0054,0.473805 0.0093,0.206465 0.0029,0.406489 -0.04297,0.550781 -0.04585,0.144293 -0.113204,0.230986 -0.273437,0.277344 -0.07201,0.02083 -0.112154,0.0075 -0.181641,-0.0625 -0.06949,-0.07005 -0.146115,-0.202481 -0.210938,-0.376953 -0.08099,-0.217995 -0.121871,-0.554406 -0.173828,-0.861328 0.04143,-0.277955 0.08574,-0.555955 0.117188,-0.869141 0.0448,-0.446158 0.07137,-0.889278 0.04883,-1.232422 -0.01127,-0.171572 -0.03365,-0.316763 -0.08008,-0.435547 -0.02321,-0.05939 -0.0532,-0.11355 -0.09961,-0.158203 -0.0464,-0.04465 -0.114214,-0.07617 -0.183593,-0.07617 -0.0597,0 -0.104352,0.03633 -0.125,0.0625 -0.02065,0.02617 -0.03041,0.04861 -0.03906,0.07227 -0.01731,0.04731 -0.02765,0.100139 -0.03711,0.164063 -0.01891,0.127847 -0.03064,0.299207 -0.03516,0.503906 -0.0074,0.333691 0.01964,0.773621 0.05469,1.205078 -0.0064,-0.0032 -0.01358,-0.0058 -0.01367,-0.0059 -2.05e-4,-7.4e-5 -0.0173,-0.0058 -0.01758,-0.0059 -0.0011,-2.44e-4 -0.0242,-0.0038 -0.03125,-0.0039 -0.0282,-2.56e-4 -0.04707,0.0042 -0.07813,0.0098 -0.06211,0.01116 -0.152857,0.03419 -0.259766,0.07813 -0.213816,0.08786 -0.494918,0.260625 -0.71289,0.582031 -0.252987,0.373036 -0.445996,0.793473 -0.619141,1.107422 -0.08657,0.156974 -0.167966,0.286134 -0.240234,0.365234 -0.07227,0.0791 -0.119546,0.09756 -0.15625,0.09375 -0.07588,-0.0079 -0.113669,-0.02918 -0.144531,-0.0625 -0.03086,-0.03332 -0.0553,-0.08644 -0.06836,-0.160156 -0.02611,-0.147444 -8.24e-4,-0.369879 0.04883,-0.59375 0.04965,-0.223871 0.119534,-0.448797 0.167969,-0.623047 0.02422,-0.08713 0.04437,-0.160104 0.05274,-0.224609 0.0042,-0.03225 0.0085,-0.06159 -0.002,-0.105469 -0.0052,-0.02194 -0.01564,-0.05081 -0.04297,-0.07813 -0.02733,-0.02731 -0.07338,-0.04297 -0.107422,-0.04297 -1.23e-4,0 -0.05455,0.01166 -0.05469,0.01172 -1.36e-4,6.1e-5 -0.02915,0.01745 -0.0293,0.01758 -3.01e-4,2.45e-4 -0.0189,0.01923 -0.02344,0.02539 -0.0091,0.01232 -0.01278,0.01766 -0.01563,0.02344 -0.0057,0.01155 -0.0082,0.01988 -0.01172,0.0293 -0.007,0.01884 -0.0143,0.04216 -0.02344,0.07031 -0.01828,0.05631 -0.042,0.133787 -0.07227,0.226563 -0.06053,0.185551 -0.146271,0.430415 -0.248047,0.667969 -0.149322,0.335433 -0.275777,0.46524 -0.538771,0.463554 -0.262993,-0.0017 -0.273149,-0.31953 -0.27958,-0.567066 0.03722,-0.22885 0.0979,-0.454184 0.15039,-0.607422 0.0234,-0.0683 0.04346,-0.115925 0.05859,-0.146484 0.0039,-0.0037 0.0293,-0.02344 0.0293,-0.02344 l 0.02539,-0.15625 c -0.0036,-0.007 -0.0094,-0.01542 -0.01563,-0.02344 -0.0062,-0.008 -0.02279,-0.02293 -0.02344,-0.02344 -0.0013,-10e-4 -0.07855,-0.03117 -0.08008,-0.03125 -7.65e-4,-3.9e-5 -0.02758,0.0013 -0.03906,0.0039 -0.01149,0.0027 -0.02106,0.0059 -0.0293,0.0098 -0.01647,0.0078 -0.02657,0.01595 -0.03516,0.02344 -0.02061,0.01798 -0.02619,0.03221 -0.03516,0.04687 -0.02526,0.02296 -0.04335,0.0411 -0.09766,0.08203 -0.08146,0.0614 -0.193776,0.107422 -0.193359,0.107422 -0.251314,0 -0.510782,-0.120125 -0.660157,-0.208985 -0.07203,-0.04285 -0.121821,-0.07926 -0.123047,-0.08008 -0.0013,-0.0011 -0.0016,-0.0016 -0.002,-0.002 l -0.002,-0.002 c -5.62e-4,-4.23e-4 -0.0014,-0.0015 -0.002,-0.002 -0.0014,-10e-4 -0.0037,-0.0024 -0.0059,-0.0039 -0.0011,-7.66e-4 -0.0038,-0.0038 -0.0039,-0.0039 -5.8e-5,-3.7e-5 -0.0078,-0.0039 -0.0078,-0.0039 -3.7e-5,-2.1e-5 -0.01563,-0.0059 -0.01563,-0.0059 l -0.123047,0.01367 c 0,0 -0.02151,0.199191 -0.02148,0.199218 5.2e-5,5.6e-5 0.0063,0.0084 0.0078,0.0098 0.0031,0.0027 0.0045,0.0028 0.0059,0.0039 8.21e-4,6.61e-4 0.005,0.0032 0.0059,0.0039 6.88e-4,4.82e-4 0.004,0.002 0.0039,0.002 0.0021,0.0016 0.0038,0.0031 0.0098,0.0078 0.01593,0.01279 0.04388,0.03576 0.08594,0.07227 0.186537,0.161903 0.127838,0.513116 -0.01694,0.860925 -0.125975,0.302632 -0.252113,0.469499 -0.820338,0.51144 -0.255548,0.01886 -0.39873,-0.05249 -0.533411,-0.307984 -0.102515,-0.194472 -0.214164,-0.268142 -0.256261,-0.572194 0.329208,-0.345397 0.628421,-0.586548 0.898438,-0.980468 0.302161,-0.440815 0.529693,-0.898687 0.574218,-1.355469 0.02904,-0.666654 -0.02176,-1.262411 -0.567457,-1.321244 -0.468888,-0.03168 -0.05726,-0.06998 -0.350279,0.05374 z m 0.654301,1.240233 c -0.03763,0.386036 -0.241122,0.813963 -0.529297,1.234375 -0.212703,0.310306 -0.465192,0.508749 -0.730469,0.796875 0.0062,-0.887483 -0.1125899,-1.754072 0.369263,-2.438064 0.47025,-0.381339 0.938684,-0.175887 0.890503,0.406814 z m 5.308593,-0.265625 c 0.01773,0.07284 0.03558,0.143315 0.04297,0.255859 0.01527,0.232405 -0.01161,0.56191 -0.03516,0.878907 -0.01188,-0.260439 -0.03779,-0.550289 -0.0332,-0.757813 0.0035,-0.158497 0.01405,-0.272794 0.02539,-0.376953 z m -0.335937,1.570313 c -0.0229,0.006 -0.03991,0.03697 -0.0625,0.04492 0.0038,-0.005 0.0078,-0.0098 0.0078,-0.0098 -1.11e-4,1.2e-4 0.02168,-0.01966 0.02148,-0.01953 -3.87e-4,2.61e-4 0.01722,-0.0099 0.02148,-0.01172 0.0085,-0.0036 0.01099,-0.0037 0.01172,-0.0039 z m 0.109375,0.238281 c 0.0015,0.01476 3.89e-4,0.02627 0.002,0.04101 0.01922,0.181271 0.07148,0.317883 0.09961,0.492188 -0.01541,0.102048 -0.0281,0.232872 -0.04297,0.322265 -0.02812,0.169065 -0.05338,0.311835 -0.07422,0.414063 -0.112077,0.319093 -0.615357,0.462763 -0.781741,0.368633 -0.166385,-0.09413 -0.284757,-0.292346 -0.189317,-0.540197 0.09544,-0.247852 0.188095,-0.446409 0.375318,-0.662427 0.187222,-0.216018 0.399543,-0.373799 0.568359,-0.417969 0.0063,-0.0017 0.014,-0.003 0.02539,-0.0078 0.0042,-0.0018 0.01183,-0.0065 0.01758,-0.0098 z m 2.334496,0.24475 c 0.271816,0.0059 0.362723,0.109111 0.628394,0.390012 0.02628,0.02559 0.04221,0.04197 0.0625,0.0625 0.0013,0.04593 0.01433,0.150419 0.01953,0.212891 0.0045,0.101234 0.0072,0.215507 -0.01953,0.324219 -0.03203,0.130323 -0.08988,0.238005 -0.195312,0.304687 -0.105431,0.06668 -0.273236,0.102087 -0.554688,0.04102 -0.107481,-0.02332 -0.161066,-0.03484 -0.307471,-0.184204 -0.146404,-0.149366 -0.268404,-0.611287 -0.201406,-0.84203 0.130906,-0.229172 0.296167,-0.314961 0.567983,-0.309095 z m 2.153785,-0.07873 c 0.02144,-0.0028 0.01842,-0.0022 0.02539,0.0039 0.01395,0.01222 0.05125,0.09938 0.04883,0.224609 -0.0044,0.226884 -0.138016,0.511926 -0.285157,0.65625 -0.04095,-0.155879 -0.08112,-0.317278 -0.07227,-0.453125 0.01161,-0.178055 0.06785,-0.306615 0.154297,-0.369141 0.06183,-0.04472 0.107463,-0.05972 0.128906,-0.0625 z m -1.382813,1.394532 c 0.0037,0.03388 0.006,0.07456 0.0098,0.109375 -0.04531,0.02013 -0.07975,0.03997 -0.125,0.06055 0.0611,-0.04438 0.07486,-0.112406 0.115234,-0.169921 z m 0.03711,0.392578 c 0.02461,0.242731 0.06489,0.458818 0.08095,0.706439 0.0099,0.716283 -0.411477,1.3853 -0.936579,1.029433 -0.257399,-0.212405 -0.472607,-0.379356 -0.42365,-0.634307 0.08056,-0.419536 0.47782,-0.707355 0.990234,-0.960937 0.09572,-0.04737 0.188735,-0.09571 0.289063,-0.140625 z"
         id="path3876"
         sodipodi:nodetypes="cscccccccssscscscsscscscsssccscscccccssscssccsscsccccscsscssscccccccsszcccsscsccccccscsscccccscscssscsscccccccccssscscsscccssccccscczcccccccsccccccscsccccccccccccccssscsccccccccccccccccccccczcsczsscccczzcccsszzczcccsccccccccccsscccc" />
      <path
         style="color:#000000;fill:#ffffff;stroke-linejoin:bevel;-inkscape-stroke:none"
         d="m 21.068359,13.476563 c -0.0225,0.01528 -0.163798,0.231444 -0.03711,0.261718 0.126688,0.03027 1.948919,0.508158 2.382812,0.228516 0.433893,-0.279642 0.25806,-0.276031 -0.002,-0.263672 -0.26006,0.01236 -2.165364,-0.220483 -2.230689,-0.229132 -0.06533,-0.0086 -0.09051,-0.01271 -0.113013,0.0026 z"
         id="path3878"
         sodipodi:nodetypes="zzzzzz" />
    </g>
  </g>
</svg>
