<?xml version="1.0" encoding="UTF-8" standalone="no"?>
<!-- Created with Inkscape (http://www.inkscape.org/) -->

<svg
   width="12.489643mm"
   height="3.0010478mm"
   viewBox="0 0 12.489643 3.0010478"
   version="1.1"
   id="svg7922"
   inkscape:version="1.2.2 (732a01da63, 2022-12-09)"
   sodipodi:docname="score.svg"
   xmlns:inkscape="http://www.inkscape.org/namespaces/inkscape"
   xmlns:sodipodi="http://sodipodi.sourceforge.net/DTD/sodipodi-0.dtd"
   xmlns="http://www.w3.org/2000/svg"
   xmlns:svg="http://www.w3.org/2000/svg">
  <sodipodi:namedview
     id="namedview7924"
     pagecolor="#ffffff"
     bordercolor="#000000"
     borderopacity="0.25"
     inkscape:showpageshadow="2"
     inkscape:pageopacity="0.0"
     inkscape:pagecheckerboard="0"
     inkscape:deskcolor="#d1d1d1"
     inkscape:document-units="mm"
     showgrid="false"
     inkscape:zoom="18.202405"
     inkscape:cx="17.882253"
     inkscape:cy="14.173951"
     inkscape:window-width="1920"
     inkscape:window-height="1027"
     inkscape:window-x="-8"
     inkscape:window-y="-8"
     inkscape:window-maximized="1"
     inkscape:current-layer="layer1" />
  <defs
     id="defs7919" />
  <g
     inkscape:label="Ebene 1"
     inkscape:groupmode="layer"
     id="layer1"
     transform="translate(-44.077438,-73.489509)">
    <g
       id="g7894"
       transform="translate(15.750693,59.221666)">
      <path
         style="color:#000000;fill:#ffffff;stroke-linejoin:bevel;-inkscape-stroke:none"
         d="m 30.117187,14.464844 c -0.02807,-0.0013 -0.06064,-9.54e-4 -0.09766,0.01758 -0.03702,0.01853 -0.07292,0.05859 -0.08594,0.09766 -0.159969,0.479905 -0.266144,0.919243 -0.491578,1.397509 -0.225434,0.478267 -0.721767,0.800831 -1.002686,1.000831 -0.132839,0.09328 -0.167175,0.241029 0.002,0.239929 0.169175,-0.0011 0.486662,-0.135783 0.751759,-0.323206 0.340877,-0.240999 0.466121,-0.480833 0.586132,-0.712281 0.229744,-0.443078 0.234335,-0.873837 0.385401,-1.325658 0.250998,0.111936 0.426998,0.221939 0.643249,0.376142 0.322347,0.230248 0.376973,0.402492 0.419215,0.625318 0.04224,0.222826 -0.06766,0.432682 -0.206201,0.587378 -0.158355,0.176826 -0.560202,0.341919 -0.876272,0.225829 -0.31607,-0.11609 -0.271273,0.08836 -0.14944,0.311046 0.121833,0.222683 1.192438,0.16403 1.524365,-0.273937 0.165964,-0.218983 0.250143,-0.507112 0.19336,-0.80664 -0.05678,-0.299528 -0.25284,-0.603033 -0.617188,-0.863281 -0.05266,-0.03762 -0.285411,-0.21343 -0.509766,-0.357422 -0.112177,-0.072 -0.222738,-0.136732 -0.320312,-0.177735 -0.04879,-0.0205 -0.09231,-0.03646 -0.148438,-0.03906 z"
         id="path6394"
         sodipodi:nodetypes="ssczczssccsszzsssssss" />
      <path
         style="color:#000000;fill:#ffffff;stroke-linejoin:bevel;-inkscape-stroke:none"
         d="m 36.576172,14.292969 c -0.240028,-0.0211 -0.509035,-9.14e-4 -0.777344,0.0332 -0.466781,0.03004 -0.976651,0.105892 -1.394583,0.201259 l -0.08789,0.11914 c 0,0 0.121054,0.136716 0.121094,0.136719 8e-5,7e-6 0.0098,0.002 0.01172,0.002 0.0038,0 0.01179,-0.0019 0.01563,-0.002 6.76e-4,-4.7e-5 0.0029,6.2e-5 0.0039,0 -6.6e-5,10e-6 0.0079,-0.002 0.0078,-0.002 0.0019,-2.8e-5 0.0059,3.6e-5 0.0078,0 0.02017,-8.9e-4 0.05216,-0.0019 0.0918,-0.002 0.256035,-0.0073 0.192462,0.0039 0.314453,0.01758 0.262513,0.05663 0.534618,0.07788 0.693147,0.252989 -0.146543,-0.173452 -0.3552,-0.196487 -0.555823,-0.263873 -0.235308,-0.06806 -0.407413,-0.08039 -0.703728,0.08316 -0.08915,0.06115 -0.147135,0.148962 -0.195313,0.246093 -0.09636,0.194263 -0.160618,0.440667 -0.263672,0.689454 -0.103054,0.248786 -0.268737,0.457713 -0.522986,0.633263 -0.254249,0.17555 -0.625231,0.191059 -0.836731,0.126579 -0.2115,-0.06448 -0.488902,-0.389594 -0.422982,-0.649472 0.06592,-0.259879 0.07666,-0.49675 0.226057,-0.729512 0.225983,-0.331862 0.385963,-0.396408 0.610316,-0.486149 0.224354,-0.08974 0.345916,0.08596 0.395543,0.116961 0.04962,0.031 0.101858,0.07031 0.189453,0.07031 0.03634,0 0.0848,-0.01268 0.121094,-0.04883 0.03629,-0.03615 0.0494,-0.08864 0.04687,-0.126953 -0.0051,-0.07663 -0.04259,-0.12117 -0.08789,-0.164063 -0.09059,-0.08578 -0.24045,-0.152262 -0.460937,-0.171875 -0.207183,-0.01843 -0.370672,-0.01002 -0.525391,0.0625 -0.154718,0.07252 -0.285239,0.196225 -0.466797,0.384766 -0.453723,0.471176 -0.606119,0.828119 -0.669922,1.130859 -0.0638,0.30274 -0.0045,0.524026 -0.138033,0.791016 l 0.149114,-0.186108 c 0.148253,-0.296506 0.1893,-0.233524 0.231107,-0.476002 -0.04322,0.240403 -0.02251,0.390461 0.04161,0.548867 0.06411,0.158407 0.124195,0.316117 0.544618,0.498421 0.420423,0.182304 0.854584,-0.06909 1.282869,-0.434008 0.189339,-0.1636 0.277423,-0.361915 0.378906,-0.554687 0.0906,0.354492 0.298502,0.687473 0.667237,0.844933 0.387535,0.165488 0.942955,0.160212 1.254638,-0.112509 0.331852,-0.29037 0.430002,-0.68493 0.373047,-1.052734 -0.05696,-0.367805 -0.150726,-0.743327 -0.511719,-0.970704 -0.147922,-0.09317 -0.300019,-0.132228 -0.464844,-0.179687 0.200843,-0.03476 0.351875,-0.0533 0.5625,-0.08008 0.258853,-0.03291 0.49356,-0.02771 0.697577,0.01562 0.194918,0.0414 0.273655,0.06939 0.359284,0.155017 0.08193,0.08193 0.171923,0.219416 0.185749,0.443469 0.01383,0.224052 -0.01694,0.465895 -0.01069,0.649158 0.0062,0.183264 0.0017,0.426215 -0.01121,0.711346 -0.0065,0.142565 -0.0053,0.281123 0.01367,0.400391 0.0095,0.05963 0.02272,0.115698 0.04883,0.167968 0.02611,0.05227 0.07151,0.10776 0.142578,0.13086 0.04171,0.01356 0.106246,-5.24e-4 0.136719,-0.02539 0.03047,-0.02487 0.03922,-0.04836 0.04687,-0.06641 0.01532,-0.03609 0.01902,-0.0637 0.02344,-0.09766 0.0088,-0.0679 0.01267,-0.154803 0.01367,-0.259766 0.002,-0.209925 -0.0064,-0.490782 -0.01172,-0.785156 -0.0053,-0.294375 -0.0076,-0.600965 0.0039,-0.853516 0.01147,-0.25255 0.05988,-0.278158 0.08707,-0.358058 0.02719,-0.0799 0.216005,0.142035 0.356898,0.238423 0.140893,0.09639 0.446079,0.260621 0.766268,0.374176 -0.04829,0.110542 -0.0144,0.09355 -0.0472,0.209614 -0.108542,0.38408 -0.106924,0.732769 0.05181,1.051507 0.158729,0.318738 0.513483,0.520198 1.037109,0.476563 0.465542,-0.0388 0.934117,-0.453911 1.058594,-0.640625 0.124476,-0.186715 -0.112204,-0.309234 -0.220703,-0.146485 -0.1085,0.162749 -0.571908,0.424458 -0.833679,0.418086 -0.261771,-0.0064 -0.540458,-0.136095 -0.637972,-0.224109 -0.18806,-0.169742 -0.270716,-0.431661 -0.173602,-0.775307 0.03096,-0.109542 0.06816,-0.201139 0.115137,-0.305713 0.139544,0.02441 0.197401,0.0056 0.364099,0.0023 0.415099,-0.0082 0.690438,-0.238756 0.808594,-0.490235 0.05908,-0.125739 0.0829,-0.255478 0.07031,-0.375 -0.01258,-0.119521 -0.066,-0.241799 -0.18164,-0.300781 -0.15077,-0.0769 -0.318344,-0.07832 -0.46875,-0.02734 -0.150406,0.05098 -0.288193,0.148542 -0.41211,0.275391 -0.119486,0.122314 -0.266081,0.285312 -0.358426,0.449989 -0.342955,-0.09648 -0.634469,-0.142417 -0.809542,-0.303505 -0.130827,-0.120375 -0.221198,-0.230844 -0.333985,-0.302734 -0.05639,-0.03594 -0.13786,-0.06663 -0.220703,-0.04102 -0.08284,0.02562 -0.13309,0.08936 -0.173828,0.16211 -0.03181,0.05681 -0.02598,0.161767 -0.04102,0.234375 -0.03342,-0.08076 -0.02395,-0.186062 -0.08594,-0.248047 -0.153424,-0.153424 -0.3713,-0.215224 -0.611328,-0.236328 z m 3.269322,0.36267 c 0.139895,0.07799 0.05015,0.213857 -0.01108,0.308887 -0.08014,0.114045 -0.1559,0.156179 -0.358376,0.206228 -0.106114,0.0021 -0.198335,-0.0044 -0.29049,-0.0145 0.07721,-0.131426 0.131092,-0.232655 0.197298,-0.344197 0.162922,-0.189096 0.322752,-0.234407 0.462648,-0.156418 z m -4.417351,0.606531 c 0.151192,0.06253 0.147983,-0.02341 0.1911,-0.08826 0.167527,0.204461 0.188514,0.321735 0.227146,0.571215 0.04631,0.299038 10e-4,0.464881 -0.263353,0.696215 -0.201654,0.176448 -0.438553,0.178572 -0.701118,0.140267 -0.35289,-0.05148 -0.578686,-0.330174 -0.622727,-0.572398 -0.02959,-0.162731 -0.07162,-0.353999 0.03193,-0.550143 0.387076,-0.516404 0.985832,-0.259424 1.137025,-0.196897 z"
         id="path6396"
         sodipodi:nodetypes="ccccsscccccccccsszzzczssscsssssccczzccsssscsssszccsssccscczzcssszzzssccscssscsscscccczcccczcssssczsc" />
    </g>
  </g>
</svg>
