<?xml version="1.0" encoding="UTF-8" standalone="no"?>
<!-- Created with Inkscape (http://www.inkscape.org/) -->

<svg
   width="22.662575mm"
   height="18.751587mm"
   viewBox="0 0 22.662575 18.751587"
   version="1.1"
   id="svg674"
   inkscape:version="1.2.2 (732a01da63, 2022-12-09)"
   sodipodi:docname="´tim_side.svg"
   xmlns:inkscape="http://www.inkscape.org/namespaces/inkscape"
   xmlns:sodipodi="http://sodipodi.sourceforge.net/DTD/sodipodi-0.dtd"
   xmlns="http://www.w3.org/2000/svg"
   xmlns:svg="http://www.w3.org/2000/svg">
  <sodipodi:namedview
     id="namedview676"
     pagecolor="#ffffff"
     bordercolor="#000000"
     borderopacity="0.25"
     inkscape:showpageshadow="2"
     inkscape:pageopacity="0.0"
     inkscape:pagecheckerboard="0"
     inkscape:deskcolor="#d1d1d1"
     inkscape:document-units="mm"
     showgrid="false"
     inkscape:zoom="1.5091049"
     inkscape:cx="-253.79282"
     inkscape:cy="379.69527"
     inkscape:window-width="1920"
     inkscape:window-height="1027"
     inkscape:window-x="-8"
     inkscape:window-y="-8"
     inkscape:window-maximized="1"
     inkscape:current-layer="layer1">
    <inkscape:grid
       type="xygrid"
       id="grid1241" />
  </sodipodi:namedview>
  <defs
     id="defs671" />
  <g
     inkscape:label="Ebene 1"
     inkscape:groupmode="layer"
     id="layer1"
     transform="translate(-65.061212,-8.2642696)">
    <g
       id="g15564"
       transform="translate(50.204309,-25.452121)"
       inkscape:export-filename="curly_happy.png"
       inkscape:export-xdpi="96"
       inkscape:export-ydpi="96">
      <path
         style="fill:#ffd5d5;fill-opacity:1;stroke:none;stroke-width:0.529167"
         d="m 25.538492,38.183765 c -1.752732,0.504577 -4.076332,2.30155 -5.082903,4.339066 -1.006571,2.037516 -1.632597,5.078932 -0.37192,6.942503 1.260677,1.863571 4.212295,2.108846 6.198663,2.107544 1.986368,-0.0013 3.924166,-0.364275 5.082903,-1.735625 1.158737,-1.37135 1.108059,-3.409228 0.867815,-5.330851 -0.240244,-1.921623 -1.092658,-4.641185 -2.479466,-5.702771 -1.386808,-1.061586 -2.46236,-1.124443 -4.215092,-0.619866 z"
         id="path15548"
         sodipodi:nodetypes="zzzzzzzz" />
      <path
         style="fill:#000000;fill-opacity:1;stroke:none;stroke-width:0.529167"
         d="m 26.103019,49.427053 c -1.446724,-0.02302 -3.462663,-2.933731 -3.462663,-2.933731 l 6.868657,-0.178437 c 0,0 -1.95927,3.135188 -3.405994,3.112168 z"
         id="path15550"
         sodipodi:nodetypes="zccz" />
      <path
         style="fill:#ffffff;fill-opacity:1;stroke:none;stroke-width:0.529167"
         d="m 23.975649,40.938312 c -0.525974,-0.04383 -0.815413,0.37546 -1.051947,1.051948 -0.236534,0.676488 -0.37735,1.245138 0.04383,1.709415 0.42118,0.464277 0.957382,0.74647 1.49026,0.569806 0.532878,-0.176664 0.702532,-0.475274 0.876623,-1.095779 0.174091,-0.620505 0.06021,-1.205777 -0.262987,-1.665586 -0.323195,-0.459809 -0.569806,-0.525973 -1.095779,-0.569804 z"
         id="path15552"
         sodipodi:nodetypes="zzzzzzz" />
      <path
         style="fill:#ffffff;fill-opacity:1;stroke:none;stroke-width:0.529167"
         d="m 28.490259,41.113637 c -0.525974,-0.04383 -0.815413,0.37546 -1.051947,1.051948 -0.236534,0.676488 -0.37735,1.245138 0.04383,1.709415 0.42118,0.464277 0.957382,0.74647 1.49026,0.569806 0.532878,-0.176664 0.702532,-0.475274 0.876623,-1.095779 0.174091,-0.620505 0.06021,-1.205777 -0.262987,-1.665586 -0.323195,-0.459809 -0.569806,-0.525973 -1.095779,-0.569804 z"
         id="path15554"
         sodipodi:nodetypes="zzzzzzz" />
      <ellipse
         style="fill:#000000;fill-opacity:1;stroke:none;stroke-width:0.529167"
         id="ellipse15556"
         cx="24.107143"
         cy="43.195618"
         rx="0.96428567"
         ry="1.0300325" />
      <ellipse
         style="fill:#000000;fill-opacity:1;stroke:none;stroke-width:0.529167"
         id="ellipse15558"
         cx="28.490261"
         cy="43.63393"
         rx="0.96428567"
         ry="1.0300325" />
      <path
         style="fill:#000000;fill-opacity:1;stroke:none;stroke-width:0.529167"
         d="M 27.701298,38.659091 24.720779,39.974027 21.915585,40.5 c 0,0 -0.210181,1.29842 -0.350651,2.060064 -0.14047,0.761643 -0.158331,1.849962 -0.525974,2.498377 -0.367643,0.648415 -0.712297,0.998596 -1.314935,1.753247 -0.208158,0.535494 0.879109,1.737607 0.788961,2.673701 -0.09015,0.936093 -0.13653,2.232249 -1.227273,2.673703 -1.090743,0.441454 -4.426948,-1.183444 -4.426948,-1.183444 0,0 -0.0498,-2.242484 0.430323,-2.980049 0.510524,-0.78427 -0.480702,-1.161199 -0.430323,-2.674171 0.05038,-1.512971 0.644773,-2.120706 1.460661,-2.924257 0.637481,-0.62784 1.56369,-0.845224 1.56369,-0.845224 0,0 -0.207834,-1.984595 0.39448,-3.331168 0.602314,-1.346573 2.097678,-3.482727 3.637987,-4.12013 1.540308,-0.637404 3.269547,-0.37014 4.251623,-10e-7 0.982075,0.370138 1.621753,1.402597 1.621753,1.402597 z"
         id="path15560"
         sodipodi:nodetypes="ccczzczzcszsczzzcc" />
      <path
         style="fill:#000000;fill-opacity:1;stroke:none;stroke-width:0.529167"
         d="m 27.131494,35.327923 c 0,0 1.889261,-0.837473 2.849025,-0.788962 0.959764,0.04851 1.971685,0.549579 2.849026,1.095778 0.877341,0.546199 1.4935,1.536293 1.972402,2.58604 0.478902,1.049747 0.866427,2.703097 0.74513,3.594156 -0.121297,0.891059 -0.788961,1.534091 -0.788961,1.534091 0,0 1.946652,1.087254 2.147729,1.928572 0.201077,0.841318 -0.47669,1.6255 -0.832795,2.147726 -0.356105,0.522226 -1.095777,1.008118 -1.095777,1.008118 l 2.542207,2.629868 c 0,0 -3.352593,1.349862 -4.646104,1.4026 -1.293511,0.05274 -3.024349,-0.920457 -3.024349,-0.920457 l 1.008115,-2.498376 c 0,0 -0.455225,-0.796768 -0.35065,-1.665584 0.104575,-0.868816 1.534092,-3.199675 1.534092,-3.199675 0,0 -1.145079,-1.58851 -1.446427,-2.410714 C 30.292809,40.9489 30.199676,39.36039 30.199676,39.36039 l -2.805197,-0.832792 z"
         id="path15562"
         sodipodi:nodetypes="czzzzczzcczcczczccc" />
      <path
         id="path15866"
         style="fill:#d40000;fill-opacity:1;stroke:none;stroke-width:0.529167"
         d="m 26.328487,47.473516 c -0.280198,-0.0033 -0.609255,0.03177 -0.998905,0.114205 -0.679702,0.143796 -1.138341,0.281226 -1.448491,0.418062 0.676401,0.712155 1.516652,1.409877 2.222087,1.421102 0.573277,0.0091 1.226686,-0.477561 1.807125,-1.068669 -0.286714,-0.472598 -0.683223,-0.874247 -1.581816,-0.8847 z" />
    </g>
  </g>
</svg>
