<?xml version="1.0" encoding="UTF-8" standalone="no"?>
<!-- Created with Inkscape (http://www.inkscape.org/) -->

<svg
   width="14.528904mm"
   height="27.115349mm"
   viewBox="0 0 14.528904 27.115349"
   version="1.1"
   id="svg674"
   inkscape:version="1.2.2 (732a01da63, 2022-12-09)"
   sodipodi:docname="´tim_side.svg"
   xmlns:inkscape="http://www.inkscape.org/namespaces/inkscape"
   xmlns:sodipodi="http://sodipodi.sourceforge.net/DTD/sodipodi-0.dtd"
   xmlns="http://www.w3.org/2000/svg"
   xmlns:svg="http://www.w3.org/2000/svg">
  <sodipodi:namedview
     id="namedview676"
     pagecolor="#ffffff"
     bordercolor="#000000"
     borderopacity="0.25"
     inkscape:showpageshadow="2"
     inkscape:pageopacity="0.0"
     inkscape:pagecheckerboard="0"
     inkscape:deskcolor="#d1d1d1"
     inkscape:document-units="mm"
     showgrid="false"
     inkscape:zoom="1.5091049"
     inkscape:cx="-253.79282"
     inkscape:cy="379.69527"
     inkscape:window-width="1920"
     inkscape:window-height="1027"
     inkscape:window-x="-8"
     inkscape:window-y="-8"
     inkscape:window-maximized="1"
     inkscape:current-layer="layer1">
    <inkscape:grid
       type="xygrid"
       id="grid1241" />
  </sodipodi:namedview>
  <defs
     id="defs671" />
  <g
     inkscape:label="Ebene 1"
     inkscape:groupmode="layer"
     id="layer1"
     transform="translate(50.391092,-85.654592)">
    <g
       id="g13937"
       transform="matrix(1.21,0,0,1.21,-19.542155,-18.41175)"
       style="stroke-width:0.826446"
       inkscape:export-filename="mona_happy.svg"
       inkscape:export-xdpi="96"
       inkscape:export-ydpi="96">
      <path
         style="fill:#ffdd55;fill-opacity:1;stroke:none;stroke-width:0.437328"
         d="m -23.36896,88.206978 -1.239733,3.719198 c 0,0 -0.764225,3.1499 -0.867813,5.020918 -0.103588,1.871018 0.256865,4.380456 0.37192,6.136676 0.115055,1.75622 0.309933,4.40105 0.309933,4.40105 l 8.740115,0.9298 c 0,0 1.632486,-5.35758 2.231519,-8.05826 0.259428,-1.169604 0.390445,-3.534579 0.313513,-5.519352 -0.100709,-2.598178 -0.491411,-4.810244 -0.74742,-5.514271 z"
         id="path13915"
         sodipodi:nodetypes="cczzccsscc" />
      <path
         style="fill:#deaa87;fill-opacity:1;stroke:none;stroke-width:0.437328"
         d="m -20.765522,87.835059 c -1.184323,0.638814 -2.332287,2.362485 -2.851385,3.595224 -0.519098,1.232739 -0.583585,1.853755 -0.433907,3.409265 0.149678,1.55551 0.458667,4.583653 1.859599,5.640782 1.400932,1.05713 3.115829,1.03499 4.587011,0.18596 1.471182,-0.849028 2.148027,-3.30061 2.603439,-4.95893 0.455412,-1.65832 0.677373,-3.270346 0.247946,-4.710983 -0.429427,-1.440637 -1.358982,-2.936247 -2.541452,-3.471251 -1.18247,-0.535004 -2.286928,-0.328881 -3.471251,0.309933 z"
         id="path13917"
         sodipodi:nodetypes="zzzzzzzzz" />
      <path
         style="fill:#ffdd55;fill-opacity:1;stroke:none;stroke-width:0.437328"
         d="m -23.244987,92.112136 3.657211,0.123973 3.843171,0.247946 c 0,0 0.0994,-2.211136 -0.371919,-2.913372 -0.471316,-0.702236 -1.043271,-0.847817 -1.859599,-1.053772 -0.816328,-0.205955 -1.867223,-0.51229 -2.913372,0.06199 -1.046149,0.57428 -2.355492,3.533235 -2.355492,3.533235 z"
         id="path13919"
         sodipodi:nodetypes="ccczzzc" />
      <path
         style="fill:#ffdd55;fill-opacity:1;stroke:none;stroke-width:0.437328"
         d="m -23.988827,90.872404 c 0,0 0.468082,-2.497254 0.991786,-3.285291 0.523704,-0.788037 1.0887,-0.994892 2.107546,-1.301721 1.018846,-0.306829 2.869059,-0.381597 3.905158,-0.123973 1.036099,0.257624 1.583552,0.488327 2.169532,1.239734 0.58598,0.751407 0.867813,3.099332 0.867813,3.099332 0,0 -1.524401,-0.235973 -2.107545,-0.712847 -0.583145,-0.476873 -1.422447,-0.697205 -2.60344,-0.836821 -1.180992,-0.139617 -2.738314,0.428045 -3.223305,0.588873 -0.484991,0.160828 -1.843169,1.178079 -2.107545,1.332714 z"
         id="path13921"
         sodipodi:nodetypes="czzzzczzzc" />
      <path
         style="fill:#deaa87;fill-opacity:1;stroke:none;stroke-width:0.437328"
         d="m -23.864854,92.948955 c 0,0 -0.656883,-0.02939 -0.898806,0.309935 -0.241923,0.339324 -0.09745,1.124521 0,1.549665 0.09745,0.425144 0.227144,0.820277 0.4649,0.960792 0.237756,0.140515 0.588873,-0.03099 0.588873,-0.03099 z"
         id="path13923"
         sodipodi:nodetypes="czzzcc" />
      <path
         style="fill:#deaa87;fill-opacity:1;stroke:none;stroke-width:0.437328"
         d="m -15.133358,93.537828 c 0,0 0.656883,-0.02939 0.898806,0.309935 0.241923,0.339324 0.09745,1.124521 0,1.549665 -0.09745,0.425144 -0.227144,0.820277 -0.4649,0.960792 -0.237756,0.140515 -0.588873,-0.03099 -0.588873,-0.03099 z"
         id="path13925"
         sodipodi:nodetypes="czzzcc" />
      <path
         style="fill:#ffffff;fill-opacity:1;stroke:none;stroke-width:0.437328"
         d="m -21.571348,92.762997 c -0.377641,0.0092 -0.444835,0.214993 -0.588873,0.526886 -0.144038,0.311893 -0.141712,0.932941 -0.03099,1.270725 0.110722,0.337784 0.242788,0.605357 0.526887,0.681852 0.284099,0.07649 0.588663,-0.07606 0.836819,-0.340926 0.248156,-0.264867 0.531304,-0.768674 0.402914,-1.208738 -0.12839,-0.440064 -0.769116,-0.938978 -1.146757,-0.929799 z"
         id="path13927"
         sodipodi:nodetypes="zzzzzzz" />
      <path
         style="fill:#ffffff;fill-opacity:1;stroke:none;stroke-width:0.437328"
         d="m -17.43559,92.97995 c 0.377641,0.0092 0.444835,0.214993 0.588873,0.526886 0.144038,0.311893 0.141712,0.932941 0.03099,1.270725 -0.110722,0.337784 -0.242788,0.605357 -0.526887,0.681852 -0.284099,0.07649 -0.588663,-0.07606 -0.836819,-0.340926 -0.248156,-0.264867 -0.531304,-0.768674 -0.402914,-1.208738 0.12839,-0.440064 0.769116,-0.938978 1.146757,-0.929799 z"
         id="path13929"
         sodipodi:nodetypes="zzzzzzz" />
      <ellipse
         style="fill:#000000;fill-opacity:1;stroke:none;stroke-width:0.437328"
         id="ellipse13931"
         cx="-21.447374"
         cy="94.219681"
         rx="0.61986631"
         ry="0.71284634" />
      <ellipse
         style="fill:#000000;fill-opacity:1;stroke:none;stroke-width:0.437328"
         id="ellipse13933"
         cx="-17.635197"
         cy="94.43663"
         rx="0.61986631"
         ry="0.71284634" />
    </g>
    <path
       style="fill:#000000;fill-opacity:1;stroke-width:0.529167"
       d="m -40.905699,99.01947 -5.429137,-0.492072 c 0,0 1.780523,3.708792 2.731987,3.700542 0.951465,-0.008 2.697149,-3.208469 2.697149,-3.208469"
       id="path13939"
       sodipodi:nodetypes="cczc" />
    <path
       id="path13941"
       style="fill:#d40000;fill-opacity:1;stroke-width:0.529167"
       d="m -44.444832,100.06648 c -0.558553,0.25286 -0.494582,0.19883 -0.787032,0.46588 0.544601,0.87282 1.179113,1.69941 1.628841,1.69551 0.421422,-0.004 0.998675,-0.63365 1.511019,-1.33429 -0.312301,-0.46948 -0.530714,-0.73472 -0.939159,-0.84888 -0.408446,-0.114156 -0.855116,-0.231078 -1.413669,0.0218 z"
       sodipodi:nodetypes="zccczz" />
  </g>
</svg>
