<?xml version="1.0" encoding="UTF-8" standalone="no"?>
<!-- Created with Inkscape (http://www.inkscape.org/) -->

<svg
   width="14.511467mm"
   height="18.493881mm"
   viewBox="0 0 14.511467 18.493881"
   version="1.1"
   id="svg674"
   inkscape:version="1.2.2 (732a01da63, 2022-12-09)"
   sodipodi:docname="´tim_side.svg"
   xmlns:inkscape="http://www.inkscape.org/namespaces/inkscape"
   xmlns:sodipodi="http://sodipodi.sourceforge.net/DTD/sodipodi-0.dtd"
   xmlns="http://www.w3.org/2000/svg"
   xmlns:svg="http://www.w3.org/2000/svg">
  <sodipodi:namedview
     id="namedview676"
     pagecolor="#ffffff"
     bordercolor="#000000"
     borderopacity="0.25"
     inkscape:showpageshadow="2"
     inkscape:pageopacity="0.0"
     inkscape:pagecheckerboard="0"
     inkscape:deskcolor="#d1d1d1"
     inkscape:document-units="mm"
     showgrid="false"
     inkscape:zoom="0.26677458"
     inkscape:cx="-1092.6828"
     inkscape:cy="2026.0551"
     inkscape:window-width="958"
     inkscape:window-height="1018"
     inkscape:window-x="-7"
     inkscape:window-y="0"
     inkscape:window-maximized="0"
     inkscape:current-layer="layer1"
     showguides="false">
    <inkscape:grid
       type="xygrid"
       id="grid1241" />
  </sodipodi:namedview>
  <defs
     id="defs671" />
  <g
     inkscape:label="Ebene 1"
     inkscape:groupmode="layer"
     id="layer1"
     transform="translate(113.75383,-85.654592)">
    <g
       id="g42928">
      <g
         id="g3978"
         transform="matrix(1.21,0,0,1.21,-82.927262,-18.41175)"
         style="stroke-width:0.826446"
         inkscape:export-filename="2024\tough_crowd\godot\sprites\faces\jenny_not_amused.svg"
         inkscape:export-xdpi="96"
         inkscape:export-ydpi="96">
        <path
           style="fill:#ffdd55;fill-opacity:1;stroke:none;stroke-width:0.437328"
           d="m -23.36896,88.206978 -1.239733,3.719198 c 0,0 -0.764225,3.1499 -0.867813,5.020918 0.01693,0.888151 0.171492,2.009608 0.681853,3.103156 l 10.225303,1.00225 c 0,0 0.746511,-1.490873 0.818779,-2.000208 0.219846,-1.549424 0.317997,-2.230511 0.241065,-4.215284 -0.100709,-2.598178 -0.491411,-4.810244 -0.74742,-5.514271 z"
           id="path3642"
           sodipodi:nodetypes="cccccsscc" />
        <path
           style="fill:#deaa87;fill-opacity:1;stroke:none;stroke-width:0.437328"
           d="m -20.765522,87.835059 c -1.184323,0.638814 -2.332287,2.362485 -2.851385,3.595224 -0.519098,1.232739 -0.583585,1.853755 -0.433907,3.409265 0.149678,1.55551 0.458667,4.583653 1.859599,5.640782 1.400932,1.05713 3.115829,1.03499 4.587011,0.18596 1.471182,-0.849028 2.148027,-3.30061 2.603439,-4.95893 0.455412,-1.65832 0.677373,-3.270346 0.247946,-4.710983 -0.429427,-1.440637 -1.358982,-2.936247 -2.541452,-3.471251 -1.18247,-0.535004 -2.286928,-0.328881 -3.471251,0.309933 z"
           id="path3528"
           sodipodi:nodetypes="zzzzzzzzz" />
        <path
           style="fill:#ffdd55;fill-opacity:1;stroke:none;stroke-width:0.437328"
           d="m -23.244987,92.112136 3.657211,0.123973 3.843171,0.247946 c 0,0 0.0994,-2.211136 -0.371919,-2.913372 -0.471316,-0.702236 -1.043271,-0.847817 -1.859599,-1.053772 -0.816328,-0.205955 -1.867223,-0.51229 -2.913372,0.06199 -1.046149,0.57428 -2.355492,3.533235 -2.355492,3.533235 z"
           id="path3584"
           sodipodi:nodetypes="ccczzzc" />
        <path
           style="fill:#ffdd55;fill-opacity:1;stroke:none;stroke-width:0.437328"
           d="m -23.988827,90.872404 c 0,0 0.468082,-2.497254 0.991786,-3.285291 0.523704,-0.788037 1.0887,-0.994892 2.107546,-1.301721 1.018846,-0.306829 2.869059,-0.381597 3.905158,-0.123973 1.036099,0.257624 1.583552,0.488327 2.169532,1.239734 0.58598,0.751407 0.867813,3.099332 0.867813,3.099332 0,0 -1.524401,-0.235973 -2.107545,-0.712847 -0.583145,-0.476873 -1.422447,-0.697205 -2.60344,-0.836821 -1.180992,-0.139617 -2.738314,0.428045 -3.223305,0.588873 -0.484991,0.160828 -1.843169,1.178079 -2.107545,1.332714 z"
           id="path3640"
           sodipodi:nodetypes="czzzzczzzc" />
        <path
           style="fill:#deaa87;fill-opacity:1;stroke:none;stroke-width:0.437328"
           d="m -23.864854,92.948955 c 0,0 -0.656883,-0.02939 -0.898806,0.309935 -0.241923,0.339324 -0.09745,1.124521 0,1.549665 0.09745,0.425144 0.227144,0.820277 0.4649,0.960792 0.237756,0.140515 0.588873,-0.03099 0.588873,-0.03099 z"
           id="path3644"
           sodipodi:nodetypes="czzzcc" />
        <path
           style="fill:#deaa87;fill-opacity:1;stroke:none;stroke-width:0.437328"
           d="m -15.133358,93.537828 c 0,0 0.656883,-0.02939 0.898806,0.309935 0.241923,0.339324 0.09745,1.124521 0,1.549665 -0.09745,0.425144 -0.227144,0.820277 -0.4649,0.960792 -0.237756,0.140515 -0.588873,-0.03099 -0.588873,-0.03099 z"
           id="path3784"
           sodipodi:nodetypes="czzzcc" />
        <path
           style="fill:#ffffff;fill-opacity:1;stroke:none;stroke-width:0.437328"
           d="m -21.571348,92.762997 c -0.377641,0.0092 -0.444835,0.214993 -0.588873,0.526886 -0.144038,0.311893 -0.141712,0.932941 -0.03099,1.270725 0.110722,0.337784 0.242788,0.605357 0.526887,0.681852 0.284099,0.07649 0.588663,-0.07606 0.836819,-0.340926 0.248156,-0.264867 0.531304,-0.768674 0.402914,-1.208738 -0.12839,-0.440064 -0.769116,-0.938978 -1.146757,-0.929799 z"
           id="path3786"
           sodipodi:nodetypes="zzzzzzz" />
        <path
           style="fill:#ffffff;fill-opacity:1;stroke:none;stroke-width:0.437328"
           d="m -17.43559,92.97995 c 0.377641,0.0092 0.444835,0.214993 0.588873,0.526886 0.144038,0.311893 0.141712,0.932941 0.03099,1.270725 -0.110722,0.337784 -0.242788,0.605357 -0.526887,0.681852 -0.284099,0.07649 -0.588663,-0.07606 -0.836819,-0.340926 -0.248156,-0.264867 -0.531304,-0.768674 -0.402914,-1.208738 0.12839,-0.440064 0.769116,-0.938978 1.146757,-0.929799 z"
           id="path3788"
           sodipodi:nodetypes="zzzzzzz" />
        <ellipse
           style="fill:#000000;fill-opacity:1;stroke:none;stroke-width:0.437328"
           id="path3907"
           cx="-21.447374"
           cy="94.219681"
           rx="0.61986631"
           ry="0.71284634" />
        <ellipse
           style="fill:#000000;fill-opacity:1;stroke:none;stroke-width:0.437328"
           id="ellipse3909"
           cx="-17.635197"
           cy="94.43663"
           rx="0.61986631"
           ry="0.71284634" />
        <path
           style="fill:none;fill-opacity:1;stroke:#1a1a1a;stroke-width:0.437328"
           d="m -21.726315,99.054638 c 0,0 0.930076,-2.698677 1.797613,-2.727412 0.867537,-0.02873 1.549665,3.068338 1.549665,3.068338"
           id="path3911"
           sodipodi:nodetypes="czc" />
      </g>
    </g>
  </g>
</svg>
