<?xml version="1.0" encoding="UTF-8" standalone="no"?>
<!-- Created with Inkscape (http://www.inkscape.org/) -->

<svg
   width="14.511475mm"
   height="18.493889mm"
   viewBox="0 0 14.511475 18.493889"
   version="1.1"
   id="svg674"
   inkscape:version="1.2.2 (732a01da63, 2022-12-09)"
   sodipodi:docname="´tim_side.svg"
   xmlns:inkscape="http://www.inkscape.org/namespaces/inkscape"
   xmlns:sodipodi="http://sodipodi.sourceforge.net/DTD/sodipodi-0.dtd"
   xmlns="http://www.w3.org/2000/svg"
   xmlns:svg="http://www.w3.org/2000/svg">
  <sodipodi:namedview
     id="namedview676"
     pagecolor="#ffffff"
     bordercolor="#000000"
     borderopacity="0.25"
     inkscape:showpageshadow="2"
     inkscape:pageopacity="0.0"
     inkscape:pagecheckerboard="0"
     inkscape:deskcolor="#d1d1d1"
     inkscape:document-units="mm"
     showgrid="false"
     inkscape:zoom="0.26677458"
     inkscape:cx="-1092.6828"
     inkscape:cy="2026.0551"
     inkscape:window-width="958"
     inkscape:window-height="1018"
     inkscape:window-x="-7"
     inkscape:window-y="0"
     inkscape:window-maximized="0"
     inkscape:current-layer="layer1"
     showguides="false">
    <inkscape:grid
       type="xygrid"
       id="grid1241" />
  </sodipodi:namedview>
  <defs
     id="defs671" />
  <g
     inkscape:label="Ebene 1"
     inkscape:groupmode="layer"
     id="layer1"
     transform="translate(69.654443,-85.654592)">
    <g
       id="g42899">
      <g
         id="g42816"
         transform="translate(48.034107,-28.665585)">
        <path
           style="fill:#ffdd55;fill-opacity:1;stroke:none;stroke-width:0.529167"
           d="m -115.13841,116.98428 -1.50008,4.50023 c 0,0 -0.92471,3.81138 -1.05006,6.07531 0.0205,1.07466 0.20751,2.43162 0.82505,3.75482 l 12.37261,1.21272 c 0,0 0.90328,-1.80396 0.99073,-2.42025 0.26601,-1.87481 0.38477,-2.69892 0.29168,-5.1005 -0.12185,-3.14379 -0.5946,-5.82039 -0.90437,-6.67226 z"
           id="path42812"
           sodipodi:nodetypes="cccccsscc" />
        <path
           style="fill:#ffdd55;fill-opacity:1;stroke:none;stroke-width:0.529167"
           d="m -115.88845,120.20944 c 0,0 0.56638,-3.02167 1.20006,-3.9752 0.63368,-0.95352 1.31732,-1.20382 2.55013,-1.57508 1.2328,-0.37126 3.47156,-0.46173 4.72524,-0.15001 1.25368,0.31173 1.9161,0.59088 2.62513,1.50008 0.70904,0.9092 1.05006,3.75019 1.05006,3.75019 0,0 -1.84453,-0.28553 -2.55013,-0.86254 -0.70561,-0.57702 -1.72116,-0.84362 -3.15017,-1.01256 -1.429,-0.16893 -3.31336,0.51794 -3.90019,0.71254 -0.58684,0.1946 -2.23024,1.42547 -2.55013,1.61258 z"
           id="path42814"
           sodipodi:nodetypes="czzzzczzzc" />
      </g>
      <path
         style="fill:#deaa87;fill-opacity:1;stroke:none;stroke-width:0.529167"
         d="m -63.954151,87.868671 c -1.43303,0.772965 -2.822067,2.858607 -3.450175,4.350221 -0.628109,1.491615 -0.706138,2.243044 -0.525028,4.125211 0.18111,1.882167 0.554987,5.546217 2.250115,6.825347 1.695128,1.27913 3.770153,1.25234 5.550283,0.22501 1.78013,-1.02732 2.599113,-3.993737 3.150161,-6.000304 0.551049,-2.006568 0.819622,-3.957119 0.300015,-5.70029 -0.519607,-1.743171 -1.644368,-3.552859 -3.075157,-4.200214 -1.430789,-0.647354 -2.767183,-0.397946 -4.200214,0.375019 z"
         id="path4006"
         sodipodi:nodetypes="zzzzzzzzz" />
      <path
         style="fill:#ffdd55;fill-opacity:1;stroke:none;stroke-width:0.529167"
         d="m -66.954303,93.043935 4.425225,0.150007 4.650237,0.300015 c 0,0 0.120274,-2.675475 -0.450022,-3.525181 -0.570292,-0.849705 -1.262358,-1.025858 -2.250115,-1.275064 -0.987757,-0.249205 -2.25934,-0.619871 -3.52518,0.07501 -1.26584,0.694879 -2.850145,4.275215 -2.850145,4.275215 z"
         id="path4008"
         sodipodi:nodetypes="ccczzzc" />
      <path
         style="fill:#ffdd55;fill-opacity:1;stroke:none;stroke-width:0.529167"
         d="m -67.85435,91.543859 c 0,0 0.56638,-3.021677 1.200061,-3.975202 0.633682,-0.953525 1.317327,-1.20382 2.550131,-1.575083 1.232804,-0.371263 3.471561,-0.461732 4.725241,-0.150007 1.25368,0.311725 1.916098,0.590876 2.625134,1.500078 0.709036,0.909203 1.050054,3.750192 1.050054,3.750192 0,0 -1.844526,-0.285527 -2.55013,-0.862545 -0.705605,-0.577016 -1.721161,-0.843618 -3.150162,-1.012553 -1.429,-0.168937 -3.31336,0.517934 -3.900199,0.712536 -0.586839,0.194602 -2.230235,1.425475 -2.55013,1.612584 z"
         id="path4010"
         sodipodi:nodetypes="czzzzczzzc" />
      <path
         style="fill:#deaa87;fill-opacity:1;stroke:none;stroke-width:0.529167"
         d="m -67.704342,94.056486 c 0,0 -0.794829,-0.03556 -1.087556,0.375021 -0.292726,0.410582 -0.117914,1.36067 0,1.875095 0.117915,0.514424 0.274845,0.992535 0.562529,1.162558 0.287685,0.170023 0.712537,-0.0375 0.712537,-0.0375 z"
         id="path4012"
         sodipodi:nodetypes="czzzcc" />
      <path
         style="fill:#deaa87;fill-opacity:1;stroke:none;stroke-width:0.529167"
         d="m -57.139232,94.769022 c 0,0 0.794828,-0.03556 1.087555,0.375021 0.292727,0.410582 0.117915,1.360671 0,1.875095 -0.117914,0.514424 -0.274844,0.992535 -0.562529,1.162558 -0.287685,0.170023 -0.712536,-0.0375 -0.712536,-0.0375 z"
         id="path4014"
         sodipodi:nodetypes="czzzcc" />
      <path
         style="fill:#ffffff;fill-opacity:1;stroke:none;stroke-width:0.529167"
         d="m -64.9292,93.831476 c -0.456946,0.01113 -0.53825,0.260142 -0.712536,0.637532 -0.174286,0.377391 -0.171472,1.128859 -0.0375,1.537578 0.133973,0.408718 0.293773,0.732482 0.637533,0.825041 0.34376,0.09255 0.712282,-0.09203 1.012551,-0.412521 0.300269,-0.320489 0.642878,-0.930095 0.487526,-1.462573 -0.155352,-0.532477 -0.93063,-1.136163 -1.387576,-1.125057 z"
         id="path4016"
         sodipodi:nodetypes="zzzzzzz" />
      <path
         style="fill:#ffffff;fill-opacity:1;stroke:none;stroke-width:0.529167"
         d="m -59.924933,94.09399 c 0.456946,0.01113 0.53825,0.260141 0.712536,0.637532 0.174286,0.37739 0.171472,1.128858 0.0375,1.537577 -0.133973,0.408718 -0.293773,0.732482 -0.637533,0.825041 -0.34376,0.09255 -0.712282,-0.09203 -1.012551,-0.412521 -0.300269,-0.320489 -0.642878,-0.930095 -0.487526,-1.462573 0.155352,-0.532477 0.93063,-1.136163 1.387576,-1.125056 z"
         id="path4018"
         sodipodi:nodetypes="zzzzzzz" />
      <ellipse
         style="fill:#000000;fill-opacity:1;stroke:none;stroke-width:0.529167"
         id="ellipse4020"
         cx="-64.77919"
         cy="95.594063"
         rx="0.75003827"
         ry="0.86254406" />
      <ellipse
         style="fill:#000000;fill-opacity:1;stroke:none;stroke-width:0.529167"
         id="ellipse4022"
         cx="-60.166458"
         cy="95.856575"
         rx="0.75003827"
         ry="0.86254406" />
      <path
         style="fill:none;fill-opacity:1;stroke:#1a1a1a;stroke-width:0.529167"
         d="m -65.620549,98.527398 c 0,0 1.780522,3.708792 2.731986,3.700542 0.951465,-0.008 2.697149,-3.208469 2.697149,-3.208469"
         id="path4024"
         sodipodi:nodetypes="czc" />
    </g>
  </g>
</svg>
