<?xml version="1.0" encoding="UTF-8" standalone="no"?>
<!-- Created with Inkscape (http://www.inkscape.org/) -->

<svg
   width="19.583817mm"
   height="23.836357mm"
   viewBox="0 0 19.583817 23.836357"
   version="1.1"
   id="svg674"
   inkscape:version="1.2.2 (732a01da63, 2022-12-09)"
   sodipodi:docname="´tim_side.svg"
   xmlns:inkscape="http://www.inkscape.org/namespaces/inkscape"
   xmlns:sodipodi="http://sodipodi.sourceforge.net/DTD/sodipodi-0.dtd"
   xmlns="http://www.w3.org/2000/svg"
   xmlns:svg="http://www.w3.org/2000/svg">
  <sodipodi:namedview
     id="namedview676"
     pagecolor="#ffffff"
     bordercolor="#000000"
     borderopacity="0.25"
     inkscape:showpageshadow="2"
     inkscape:pageopacity="0.0"
     inkscape:pagecheckerboard="0"
     inkscape:deskcolor="#d1d1d1"
     inkscape:document-units="mm"
     showgrid="false"
     inkscape:zoom="1.5091049"
     inkscape:cx="-253.79282"
     inkscape:cy="379.69527"
     inkscape:window-width="1920"
     inkscape:window-height="1027"
     inkscape:window-x="-8"
     inkscape:window-y="-8"
     inkscape:window-maximized="1"
     inkscape:current-layer="layer1">
    <inkscape:grid
       type="xygrid"
       id="grid1241" />
  </sodipodi:namedview>
  <defs
     id="defs671" />
  <g
     inkscape:label="Ebene 1"
     inkscape:groupmode="layer"
     id="layer1"
     transform="translate(-48.018449,-79.854803)">
    <g
       id="g3320"
       transform="translate(8.3029267,24.796371)">
      <g
         id="g3318"
         transform="translate(24.282468,0.08766234)">
        <path
           style="fill:#000000;fill-opacity:1;stroke:none;stroke-width:0.529167"
           d="m 16.922351,63.722257 c 0,0 -1.5462,2.84085 -1.487679,4.029133 0.05852,1.188283 0.592943,1.308581 0.867812,1.921584 0.274869,0.613003 -0.371919,1.642647 -0.309933,2.41748 0.06199,0.774833 0.236043,1.398939 0.619867,1.983573 0.383824,0.584635 1.983572,0.805826 1.983572,0.805826 l 3.967144,-0.06199 7.376409,-1.239733 1.983574,-0.247943 c 0,0 1.664835,-0.782226 2.045562,-1.673639 0.380728,-0.891413 0.852276,-2.096721 0.495894,-3.161319 -0.356382,-1.064598 -1.797613,-3.037346 -1.797613,-3.037346 l -0.681853,-1.053771 -3.967144,-3.719197 -5.020918,-0.619869 z"
           id="path3296"
           sodipodi:nodetypes="czzzzcccczzccccc" />
        <path
           style="fill:#aa4400;fill-opacity:1;stroke:none;stroke-width:0.529167"
           d="m 18.100097,65.581857 c -0.801782,2.096943 -0.506086,6.527542 0.433906,8.678129 0.939993,2.150588 1.62141,3.190426 3.905159,4.029131 2.283748,0.838704 4.217884,0.677624 6.322635,-0.619866 2.104752,-1.29749 3.486899,-3.720361 3.471251,-5.764758 -0.01565,-2.044396 -0.137523,-5.004951 -1.053772,-6.942502 -0.916249,-1.937551 -0.851218,-4.275545 -2.975357,-5.082903 -2.124139,-0.807358 -6.079897,-1.003575 -7.19045,0.433906 -1.110553,1.43748 -2.217505,3.537022 -2.913372,5.268863 z"
           id="path3298"
           sodipodi:nodetypes="czzzzzzzc" />
        <path
           style="fill:#000000;fill-opacity:1;stroke:none;stroke-width:0.529167"
           d="m 26.158359,57.523596 c 0,0 -2.473401,-2.413372 -3.781185,-2.541453 -1.307784,-0.128081 -2.313174,0.851605 -3.161318,1.611652 -0.848144,0.760047 -0.396641,4.148807 -1.239732,4.215092 -0.843092,0.06628 -1.883954,-0.118425 -2.355493,2.045559 -0.471539,2.163985 1.128875,4.812068 1.673639,4.958929 0.544763,0.146861 2.033161,-1.146011 2.727412,-2.045558 0.694252,-0.899547 0.578255,-2.358281 0.867813,-3.409266 0.289558,-1.050985 1.288355,-1.270841 1.921586,-1.425691 0.633231,-0.15485 2.140096,2.191769 2.140096,2.191769 z"
           id="path3300"
           sodipodi:nodetypes="czzzzzzzzcc" />
        <path
           style="fill:#aa4400;fill-opacity:1;stroke:none;stroke-width:0.529167"
           d="m 30.90334,67.379471 c 0,0 1.420847,-0.787487 2.107546,0.06198 0.686699,0.849472 0.482957,1.895152 0.18596,2.417478 -0.296998,0.522327 -1.735626,1.363708 -1.735626,1.363708 z"
           id="path3302"
           sodipodi:nodetypes="czzcc" />
        <path
           style="fill:#000000;fill-opacity:1;stroke:#000000;stroke-width:0.529167"
           d="m 25.352533,57.523596 c 0,0 2.486465,-0.906943 3.595225,-0.681855 1.10876,0.225088 2.504205,0.312246 3.161319,1.177747 0.657114,0.865501 -0.0026,2.952532 0.495892,3.781185 0.498517,0.828653 1.349748,0.772989 1.673638,1.735624 0.32389,0.962635 0.781427,1.875586 0.18596,2.913374 -0.595467,1.037788 -0.991786,1.859598 -0.991786,1.859598 0,0 -2.771597,-0.587598 -2.975357,-1.425691 -0.203761,-0.838094 -0.416501,-1.137277 -10e-7,-2.293507 0.4165,-1.15623 -1.032483,-3.33457 -2.603437,-2.913371 -1.570954,0.421199 -2.665426,0.991786 -2.665426,0.991786 z"
           id="path3304"
           sodipodi:nodetypes="czzzzzczzzcc" />
        <path
           style="fill:#ffffff;fill-opacity:1;stroke:none;stroke-width:0.529167"
           d="m 21.943268,66.635629 c -0.498488,0.166162 -1.139876,0.375921 -1.363706,1.053774 -0.22383,0.677853 -0.210123,1.068902 0.18596,1.611653 0.396083,0.542751 1.037467,0.728392 1.425692,0.681854 0.388225,-0.04654 0.780608,-0.285188 0.991787,-0.55788 0.211179,-0.272692 0.454397,-1.167681 0.123973,-1.921587 -0.330425,-0.753907 -0.865218,-1.033976 -1.363706,-0.867814 z"
           id="path3306"
           sodipodi:nodetypes="zzzzzzz" />
        <path
           style="fill:#ffffff;fill-opacity:1;stroke:none;stroke-width:0.529167"
           d="m 27.212132,66.387682 c -0.498488,0.166162 -1.139876,0.375921 -1.363706,1.053774 -0.22383,0.677853 -0.148137,1.130889 0.247946,1.67364 0.396083,0.542751 0.727534,0.666405 1.425692,0.681854 0.698158,0.01545 0.780608,-0.285188 0.991787,-0.55788 0.211179,-0.272692 0.392411,-1.229668 0.06199,-1.983574 -0.330425,-0.753907 -0.865218,-1.033976 -1.363706,-0.867814 z"
           id="path3308"
           sodipodi:nodetypes="zzzzzzzz" />
        <ellipse
           style="fill:#1a1a1a;fill-opacity:1;stroke:none;stroke-width:0.529167"
           id="ellipse3310"
           cx="22.005255"
           cy="68.867149"
           rx="1.1777461"
           ry="1.1777459" />
        <ellipse
           style="fill:#1a1a1a;fill-opacity:1;stroke:none;stroke-width:0.529167"
           id="ellipse3312"
           cx="27.336105"
           cy="68.929138"
           rx="1.1777461"
           ry="1.1777459" />
        <path
           style="fill:#aa4400;fill-opacity:1;stroke:none;stroke-width:0.529167"
           d="m 19.029896,67.503444 c 0,0 -1.420847,-0.787487 -2.107546,0.06198 -0.686699,0.849472 -0.482957,1.895152 -0.18596,2.417478 0.296998,0.522327 1.735626,1.363708 1.735626,1.363708 z"
           id="path3316"
           sodipodi:nodetypes="czzcc" />
      </g>
    </g>
    <path
       style="fill:#000000;fill-opacity:1;stroke-width:0.529167"
       d="m 53.93721,97.068908 7.230633,-0.20852 c 0,0 -1.550403,4.118832 -3.273746,4.225042 -1.723343,0.10622 -3.956888,-4.016512 -3.956888,-4.016512"
       id="path12975"
       sodipodi:nodetypes="cczc" />
    <path
       id="path13031"
       style="fill:#d40000;fill-opacity:1;stroke-width:0.529167"
       d="m 57.562619,98.122038 c -0.206112,0.0019 -0.417148,0.06967 -0.777213,0.24133 -0.319236,0.15219 -0.786613,0.64305 -1.208195,1.14256 0.71778,0.868912 1.565547,1.626052 2.316654,1.579752 0.762243,-0.047 1.490638,-0.87928 2.066024,-1.792652 -0.516406,-0.39357 -1.242689,-0.9073 -1.650545,-1.01751 -0.339527,-0.09175 -0.540613,-0.15543 -0.746725,-0.15348 z" />
  </g>
</svg>
