<?xml version="1.0" encoding="UTF-8" standalone="no"?>
<!-- Created with Inkscape (http://www.inkscape.org/) -->

<svg
   width="65.705826mm"
   height="55.095718mm"
   viewBox="0 0 65.705826 55.095718"
   version="1.1"
   id="svg674"
   inkscape:version="1.2.2 (732a01da63, 2022-12-09)"
   sodipodi:docname="´tim_side.svg"
   xml:space="preserve"
   xmlns:inkscape="http://www.inkscape.org/namespaces/inkscape"
   xmlns:sodipodi="http://sodipodi.sourceforge.net/DTD/sodipodi-0.dtd"
   xmlns="http://www.w3.org/2000/svg"
   xmlns:svg="http://www.w3.org/2000/svg"><sodipodi:namedview
     id="namedview676"
     pagecolor="#ffffff"
     bordercolor="#000000"
     borderopacity="0.25"
     inkscape:showpageshadow="2"
     inkscape:pageopacity="0.0"
     inkscape:pagecheckerboard="0"
     inkscape:deskcolor="#d1d1d1"
     inkscape:document-units="mm"
     showgrid="false"
     inkscape:zoom="4.2683933"
     inkscape:cx="-46.387477"
     inkscape:cy="572.11222"
     inkscape:window-width="1920"
     inkscape:window-height="1027"
     inkscape:window-x="-8"
     inkscape:window-y="-8"
     inkscape:window-maximized="1"
     inkscape:current-layer="layer1"
     showguides="false"><inkscape:grid
       type="xygrid"
       id="grid1241" /></sodipodi:namedview><defs
     id="defs671" /><g
     inkscape:label="Ebene 1"
     inkscape:groupmode="layer"
     id="layer1"
     transform="translate(309.69236,-98.354673)"><g
       id="g75857"
       transform="translate(-41.376623,-124.48052)"
       inkscape:export-filename="2024\tough_crowd\godot\sprites\room\table.svg"
       inkscape:export-xdpi="96"
       inkscape:export-ydpi="96"><path
         style="fill:#c87137;fill-opacity:1;stroke-width:2.38125"
         d="m -237.55375,233.41561 v 37.74291 h 4.18182 l -0.11485,-37.74291 z"
         id="path60885"
         sodipodi:nodetypes="ccccc" /><path
         style="fill:#666666;fill-opacity:1;stroke-width:2.38125"
         d="m -268.31575,230.24059 v 3.17502 h 65.70583 v -3.17502 z"
         id="path60622" /><path
         id="path60566"
         style="fill:#808080;stroke-width:2.38125"
         d="m -202.60992,233.41561 c 0,4.73732 -14.70875,9.10684 -32.85292,9.10684 -18.14416,0 -32.85291,-4.36952 -32.85291,-9.10684 0,-4.73732 13.94353,-7.4054 32.08769,-7.4054 18.14417,0 33.61814,2.66808 33.61814,7.4054 z"
         sodipodi:nodetypes="sssss" /><g
         id="g68284"
         style="fill:#808080;fill-opacity:1"><path
           style="fill:#808080;fill-opacity:1;stroke-width:2.38125"
           d="m -246.55966,271.15851 v 1.75076 h 22.19365 v -1.75076 z"
           id="path60941" /><path
           id="path60943"
           style="fill:#808080;fill-opacity:1;stroke-width:2.38125"
           d="m -224.36601,272.90927 c 0,2.61222 -4.96822,5.02164 -11.09683,5.02164 -6.12861,0 -11.09682,-2.40942 -11.09682,-5.02164 0,-2.61223 4.70974,-4.08345 10.83835,-4.08345 6.12861,0 11.3553,1.47122 11.3553,4.08345 z"
           sodipodi:nodetypes="sssss" /></g><path
         id="path60945"
         style="fill:#b3b3b3;fill-opacity:1;stroke-width:2.38125"
         d="m -224.36601,271.15851 c 0,2.61223 -4.96822,5.02165 -11.09683,5.02165 -6.12861,0 -11.09682,-2.40942 -11.09682,-5.02165 0,-2.61222 4.70974,-4.08344 10.83835,-4.08344 6.12861,0 11.3553,1.47122 11.3553,4.08344 z"
         sodipodi:nodetypes="sssss" /><path
         style="fill:#b3b3b3;fill-opacity:1;stroke-width:2.38125"
         d="m -246.55966,271.15852 1.85712,-2.49203 7.14879,-3.54125 c 1.50581,1.11873 2.90968,1.21806 4.18182,0 l 7.14879,3.54125 1.85713,2.49203 z"
         id="path60952"
         sodipodi:nodetypes="ccccccc" /><path
         id="path60563"
         style="fill:#b3b3b3;stroke-width:2.38125"
         d="m -202.60992,230.24059 c 0,4.73732 -14.70875,9.10684 -32.85292,9.10684 -18.14416,0 -32.85291,-4.36952 -32.85291,-9.10684 0,-4.73732 13.94353,-7.4054 32.08769,-7.4054 18.14417,0 33.61814,2.66808 33.61814,7.4054 z"
         sodipodi:nodetypes="sssss" /></g></g></svg>
