<?xml version="1.0" encoding="UTF-8" standalone="no"?>
<!-- Created with Inkscape (http://www.inkscape.org/) -->

<svg
   width="19.778034mm"
   height="29.408897mm"
   viewBox="0 0 19.778034 29.408897"
   version="1.1"
   id="svg674"
   inkscape:version="1.2.2 (732a01da63, 2022-12-09)"
   sodipodi:docname="´tim_side.svg"
   xmlns:inkscape="http://www.inkscape.org/namespaces/inkscape"
   xmlns:sodipodi="http://sodipodi.sourceforge.net/DTD/sodipodi-0.dtd"
   xmlns="http://www.w3.org/2000/svg"
   xmlns:svg="http://www.w3.org/2000/svg">
  <sodipodi:namedview
     id="namedview676"
     pagecolor="#ffffff"
     bordercolor="#000000"
     borderopacity="0.25"
     inkscape:showpageshadow="2"
     inkscape:pageopacity="0.0"
     inkscape:pagecheckerboard="0"
     inkscape:deskcolor="#d1d1d1"
     inkscape:document-units="mm"
     showgrid="false"
     inkscape:zoom="4.2683933"
     inkscape:cx="85.980829"
     inkscape:cy="484.02287"
     inkscape:window-width="1920"
     inkscape:window-height="1027"
     inkscape:window-x="-8"
     inkscape:window-y="-8"
     inkscape:window-maximized="1"
     inkscape:current-layer="layer1">
    <inkscape:grid
       type="xygrid"
       id="grid1241" />
  </sodipodi:namedview>
  <defs
     id="defs671" />
  <g
     inkscape:label="Ebene 1"
     inkscape:groupmode="layer"
     id="layer1"
     transform="translate(-18.939129,-111.6847)">
    <path
       style="fill:#e6e6e6;fill-opacity:1;stroke:none;stroke-width:0.529167"
       d="m 32.728942,116.53486 c 0,0 -5.496722,4.85517 -7.190449,7.19046 -1.693727,2.33529 -7.037456,12.92466 -6.570583,13.51308 0.466873,0.58842 6.645421,3.87212 7.314423,3.84317 0.669002,-0.0289 6.518265,-11.74161 7.190448,-14.62884 0.672183,-2.88723 2.355493,-8.43019 2.355493,-8.43019 l 2.231519,-4.33905 -2.479466,-1.73563 c -1.990779,2.48041 -1.220192,1.86835 -2.851385,4.587 z"
       id="path20198"
       sodipodi:nodetypes="czzzzcccc" />
    <path
       id="path20263"
       style="fill:#0055d4;fill-opacity:1;stroke:none;stroke-width:0.529167"
       d="m 34.878958,111.6847 c -1.335616,1.66411 -1.304925,1.86283 -1.713871,2.68271 l 3.951324,2.56537 1.600749,-2.89863 z"
       sodipodi:nodetypes="ccccc" />
    <path
       id="path20373"
       style="fill:#ffbe55;fill-opacity:1;stroke:none;stroke-width:0.529167"
       d="m 30.661694,118.41706 c -0.663909,0.61732 -1.413522,1.32706 -2.149739,2.05311 0.382407,1.15977 0.949156,2.39514 1.731677,2.95847 0.838452,0.6036 2.432233,0.73572 3.819405,0.71675 0.293399,-1.08427 0.616817,-2.22047 0.909505,-3.22926 l -1.222664,0.14573 c 0,0 0.07227,-1.10135 -0.526066,-1.5782 -0.59834,-0.47684 -2.103748,-0.17518 -2.103748,-0.17518 z" />
    <path
       id="path20389"
       style="fill:#ffe680;fill-opacity:1;stroke:none;stroke-width:0.529167"
       d="m 24.656376,125.11226 c -2.172183,3.67384 -5.912057,11.51825 -5.688542,12.12639 0.466873,1.27027 5.653495,4.05809 7.314283,3.84318 0.546514,-0.0236 4.549303,-7.84289 6.363436,-12.27987 z"
       sodipodi:nodetypes="csccc" />
    <path
       style="fill:#ffbe55;fill-opacity:1;stroke:none;stroke-width:0.529167"
       d="m 26.737012,125.79545 c -2.514405,0.57316 -6.210647,6.62304 -5.522727,9.11688 0.68792,2.49384 1.873102,2.95294 4.295455,2.27922 2.422353,-0.67372 5.821918,-6.32387 5.259741,-8.76623 -0.562177,-2.44236 -1.518064,-3.20303 -4.032469,-2.62987 z"
       id="path20375"
       sodipodi:nodetypes="zzzzz" />
    <path
       style="fill:#0055d4;fill-opacity:1;stroke:none;stroke-width:0.529167"
       d="m 31.887175,120.53572 c -1.188443,-0.37439 -1.323569,0.18119 -1.665586,0.65747 -0.342017,0.47632 -0.225799,1.29986 0.306821,1.70941 0.53262,0.40955 1.625366,0.28831 2.016233,-0.39448 0.390867,-0.68279 0.530975,-1.59801 -0.657468,-1.9724 z"
       id="path20655"
       sodipodi:nodetypes="zzzzz" />
    <path
       style="fill:#0055d4;fill-opacity:1;stroke:none;stroke-width:0.529167"
       d="m 27.788961,127.41721 c -1.188443,-0.37439 -1.323569,0.18119 -1.665586,0.65747 -0.342017,0.47632 -0.225799,1.29986 0.306821,1.70941 0.53262,0.40955 1.625366,0.28831 2.016233,-0.39448 0.390867,-0.68279 0.530975,-1.59801 -0.657468,-1.9724 z"
       id="path20657"
       sodipodi:nodetypes="zzzzz" />
    <path
       style="fill:#ff5557;fill-opacity:1;stroke:none;stroke-width:0.529167"
       d="m 23.83386,128.71524 0.309933,1.20874 0.898807,-1.3637 z"
       id="path20659" />
    <path
       style="fill:#ff5557;fill-opacity:1;stroke:none;stroke-width:0.529167"
       d="m 24.954748,127.23268 0.03955,1.24721 1.173955,-1.1355 z"
       id="path20661"
       inkscape:transform-center-x="0.5578797"
       inkscape:transform-center-y="0.27893985" />
    <path
       style="fill:#ff5557;fill-opacity:1;stroke:none;stroke-width:0.529167"
       d="m 26.679399,126.04357 -0.551693,1.11926 1.570062,-0.44993 z"
       id="path20732"
       inkscape:transform-center-x="0.6323362"
       inkscape:transform-center-y="-0.29229515" />
    <path
       style="fill:#ff5557;fill-opacity:1;stroke:none;stroke-width:0.529167"
       d="m 28.797854,126.27079 -1.167965,0.43927 1.453182,0.74552 z"
       id="path20734"
       inkscape:transform-center-x="0.4903122"
       inkscape:transform-center-y="-0.62118015" />
    <path
       style="fill:#ff5557;fill-opacity:1;stroke:none;stroke-width:0.529167"
       d="m 29.972753,128.11845 -1.024951,-0.71174 0.211859,1.61947 z"
       id="path20736"
       inkscape:transform-center-x="-0.4585183"
       inkscape:transform-center-y="-0.63162015" />
    <path
       style="fill:#ff5557;fill-opacity:1;stroke:none;stroke-width:0.529167"
       d="m 29.737126,130.11893 -0.568486,-1.11082 -0.576472,1.52815 z"
       id="path20738"
       inkscape:transform-center-x="-0.6277878"
       inkscape:transform-center-y="-0.53256015" />
    <path
       style="fill:#ff5557;fill-opacity:1;stroke:none;stroke-width:0.529167"
       d="M 29.272226,131.32767 28.70374,130.21685 28.127268,131.745 Z"
       id="path20740"
       inkscape:transform-center-x="-0.6277878"
       inkscape:transform-center-y="-0.53256015" />
    <path
       style="fill:#ff5557;fill-opacity:1;stroke:none;stroke-width:0.529167"
       d="m 28.74534,132.6294 -0.568486,-1.11082 -0.576472,1.52815 z"
       id="path20742"
       inkscape:transform-center-x="-0.6277878"
       inkscape:transform-center-y="-0.53256015" />
    <path
       style="fill:#ff5557;fill-opacity:1;stroke:none;stroke-width:0.529167"
       d="m 28.187461,134.02409 -0.568486,-1.11082 -0.576472,1.52815 z"
       id="path20744"
       inkscape:transform-center-x="-0.6277878"
       inkscape:transform-center-y="-0.53256015" />
    <path
       style="fill:#ff5557;fill-opacity:1;stroke:none;stroke-width:0.529167"
       d="m 22.966047,130.01696 0.309933,1.20874 0.898807,-1.3637 z"
       id="path20746" />
    <path
       style="fill:#ff5557;fill-opacity:1;stroke:none;stroke-width:0.529167"
       d="m 27.213836,135.42596 -0.134099,-1.2406 -1.084391,1.22133 z"
       id="path20748"
       inkscape:transform-center-x="-0.5781898"
       inkscape:transform-center-y="-0.36503515" />
    <path
       style="fill:#ff5557;fill-opacity:1;stroke:none;stroke-width:0.529167"
       d="m 22.251198,131.5457 0.644397,1.06858 0.468743,-1.56455 z"
       id="path20750" />
    <path
       style="fill:#ff5557;fill-opacity:1;stroke:none;stroke-width:0.529167"
       d="m 21.944228,133.34563 0.931353,0.83048 -0.01445,-1.6332 z"
       id="path20752"
       inkscape:transform-center-x="0.45985018"
       inkscape:transform-center-y="-1.1999077" />
    <path
       style="fill:#ff5557;fill-opacity:1;stroke:none;stroke-width:0.529167"
       d="m 22.141473,134.89829 1.067082,0.64687 -0.311789,-1.60322 z"
       id="path20754"
       inkscape:transform-center-x="0.59765368"
       inkscape:transform-center-y="-1.1795677" />
    <path
       style="fill:#ff5557;fill-opacity:1;stroke:none;stroke-width:0.529167"
       d="m 25.562965,136.50826 0.460076,-1.15991 -1.528892,0.57448 z"
       id="path20756"
       inkscape:transform-center-x="-0.6268938"
       inkscape:transform-center-y="0.19972985" />
    <path
       style="fill:#ff5557;fill-opacity:1;stroke:none;stroke-width:0.529167"
       d="m 23.516528,136.49482 1.110464,-0.56915 -1.528487,-0.57556 z"
       id="path20758"
       inkscape:transform-center-x="-0.5327663"
       inkscape:transform-center-y="0.62779985" />
    <path
       style="fill:#ff5557;fill-opacity:1;stroke:none;stroke-width:0.529167"
       d="m 30.648101,119.28171 -0.551693,1.11926 1.570062,-0.44993 z"
       id="path20760"
       inkscape:transform-center-x="0.6323362"
       inkscape:transform-center-y="-0.29229515" />
    <path
       style="fill:#ff5557;fill-opacity:1;stroke:none;stroke-width:0.529167"
       d="m 32.766556,119.55276 -1.167965,0.43927 1.453182,0.74552 z"
       id="path20762"
       inkscape:transform-center-x="0.4903122"
       inkscape:transform-center-y="-0.62118015" />
    <path
       style="fill:#ff5557;fill-opacity:1;stroke:none;stroke-width:0.529167"
       d="m 33.972817,121.43349 -0.967128,-0.78852 0.08658,1.63098 z"
       id="path20764"
       inkscape:transform-center-x="-0.5407078"
       inkscape:transform-center-y="-0.62574515" />
  </g>
</svg>
