<?xml version="1.0" encoding="UTF-8" standalone="no"?>
<!-- Created with Inkscape (http://www.inkscape.org/) -->

<svg
   width="30.327972mm"
   height="47.602264mm"
   viewBox="0 0 30.327972 47.602264"
   version="1.1"
   id="svg674"
   inkscape:version="1.2.2 (732a01da63, 2022-12-09)"
   sodipodi:docname="´tim_side.svg"
   xml:space="preserve"
   xmlns:inkscape="http://www.inkscape.org/namespaces/inkscape"
   xmlns:sodipodi="http://sodipodi.sourceforge.net/DTD/sodipodi-0.dtd"
   xmlns="http://www.w3.org/2000/svg"
   xmlns:svg="http://www.w3.org/2000/svg"><sodipodi:namedview
     id="namedview676"
     pagecolor="#ffffff"
     bordercolor="#000000"
     borderopacity="0.25"
     inkscape:showpageshadow="2"
     inkscape:pageopacity="0.0"
     inkscape:pagecheckerboard="0"
     inkscape:deskcolor="#d1d1d1"
     inkscape:document-units="mm"
     showgrid="false"
     inkscape:zoom="4.2683933"
     inkscape:cx="-46.387477"
     inkscape:cy="572.11222"
     inkscape:window-width="1920"
     inkscape:window-height="1027"
     inkscape:window-x="-8"
     inkscape:window-y="-8"
     inkscape:window-maximized="1"
     inkscape:current-layer="layer1"
     showguides="false"><inkscape:grid
       type="xygrid"
       id="grid1241" /></sodipodi:namedview><defs
     id="defs671" /><g
     inkscape:label="Ebene 1"
     inkscape:groupmode="layer"
     id="layer1"
     transform="translate(220.97693,-97.889737)"><g
       id="g75870"
       transform="translate(-22.792208,-126.23377)"
       inkscape:export-filename="2024\tough_crowd\godot\sprites\room\chair.svg"
       inkscape:export-xdpi="96"
       inkscape:export-ydpi="96"><path
         style="fill:#c87137;fill-opacity:1;stroke:none;stroke-width:1.32292;stroke-dasharray:none"
         d="m -190.3636,251.73871 0.27256,19.89935 2.27603,0.0877 0.96428,-19.63636 z"
         id="path62149"
         sodipodi:nodetypes="ccccc" /><path
         style="fill:#c87137;fill-opacity:1;stroke:none;stroke-width:1.32292;stroke-dasharray:none"
         d="m -193.53862,246.80405 -4.64611,19.72404 1.75325,0.70127 5.61039,-16.56817 z"
         id="path62091" /><path
         style="fill:#808080;fill-opacity:1;stroke-width:2.38125"
         d="m -174.61634,224.72981 c -1.91372,-1.53673 -17.59314,0.20349 -19.50687,1.29573 -1.91372,1.09224 -1.00525,20.48941 0.16163,21.81312 1.1669,1.32371 19.06269,0.28471 20.29534,-1.59656 1.23264,-1.88127 0.96362,-19.97556 -0.9501,-21.51229 z"
         id="path60976"
         sodipodi:nodetypes="zzzzz" /><path
         style="fill:#808080;fill-opacity:1;stroke-width:2.38125"
         d="m -174.61634,224.72981 2.11668,1.58751 -19.50687,1.29573 -2.11668,-1.58751 z"
         id="path61047" /><path
         style="fill:#c87137;fill-opacity:1;stroke:none;stroke-width:1.32292;stroke-dasharray:none"
         d="m -175.56784,245.83976 -4.64611,19.72404 1.75325,0.70127 5.61039,-16.56817 z"
         id="path62093" /><path
         style="fill:#b3b3b3;fill-opacity:1;stroke-width:2.38125"
         d="m -172.49966,226.31732 c -1.91372,-1.53673 -17.59314,0.20349 -19.50687,1.29573 -1.91373,1.09224 -1.41183,20.01894 -0.24494,21.34265 1.1669,1.32371 19.46926,0.75518 20.70191,-1.12609 1.23264,-1.88127 0.96362,-19.97556 -0.9501,-21.51229 z"
         id="path60974"
         sodipodi:nodetypes="zzzzz" /><path
         style="fill:#808080;fill-opacity:1;stroke-width:2.38125"
         d="m -193.64786,249.49478 -0.31372,-1.65612 4.90348,-0.67614 1.30353,2.85883 z"
         id="path61599" /><path
         style="fill:#c87137;fill-opacity:1;stroke:none;stroke-width:1.32292;stroke-dasharray:none"
         d="m -171.84265,251.73871 0.27256,19.89935 2.27603,0.0877 0.96428,-19.63636 z"
         id="path62151"
         sodipodi:nodetypes="ccccc" /><path
         style="fill:#808080;fill-opacity:1;stroke-width:2.38125"
         d="m -171.26612,248.19306 c 0,0 3.43174,2.55204 3.40926,3.84317 -0.0225,1.29113 -2.04664,2.13443 -4.83496,2.16953 -2.78831,0.0351 -14.85597,1.14367 -17.54222,-0.24794 -2.68624,-1.39162 -3.41382,-4.46304 -3.41382,-4.46304 z"
         id="path61528"
         sodipodi:nodetypes="czzzcc" /><path
         style="fill:#808080;fill-opacity:1;stroke-width:2.38125"
         d="m -167.85686,249.91955 v 2.11668 l -4.83496,0.0529 -0.22517,-2.41748 z"
         id="path61601" /><path
         style="fill:#b3b3b3;fill-opacity:1;stroke-width:2.38125"
         d="m -171.26612,246.07638 c 0,0 3.43174,2.55204 3.40926,3.84317 -0.0225,1.29113 -2.04664,2.13443 -4.83496,2.16953 -2.78831,0.0351 -14.85597,1.14367 -17.54222,-0.24794 -2.68624,-1.39162 -2.46507,-4.50687 -2.46507,-4.50687 z"
         id="path61526"
         sodipodi:nodetypes="czzzcc" /></g></g></svg>
