<?xml version="1.0" encoding="UTF-8" standalone="no"?>
<!-- Created with Inkscape (http://www.inkscape.org/) -->

<svg
   width="192.73598mm"
   height="106.50258mm"
   viewBox="0 0 192.73598 106.50258"
   version="1.1"
   id="svg674"
   inkscape:version="1.2.2 (732a01da63, 2022-12-09)"
   sodipodi:docname="´tim_side.svg"
   xml:space="preserve"
   xmlns:inkscape="http://www.inkscape.org/namespaces/inkscape"
   xmlns:sodipodi="http://sodipodi.sourceforge.net/DTD/sodipodi-0.dtd"
   xmlns="http://www.w3.org/2000/svg"
   xmlns:svg="http://www.w3.org/2000/svg"><sodipodi:namedview
     id="namedview676"
     pagecolor="#ffffff"
     bordercolor="#000000"
     borderopacity="0.25"
     inkscape:showpageshadow="2"
     inkscape:pageopacity="0.0"
     inkscape:pagecheckerboard="0"
     inkscape:deskcolor="#d1d1d1"
     inkscape:document-units="mm"
     showgrid="false"
     inkscape:zoom="1.0670983"
     inkscape:cx="-501.3596"
     inkscape:cy="-309.24985"
     inkscape:window-width="1920"
     inkscape:window-height="1027"
     inkscape:window-x="-8"
     inkscape:window-y="-8"
     inkscape:window-maximized="1"
     inkscape:current-layer="layer1"
     showguides="true"><inkscape:grid
       type="xygrid"
       id="grid1241" /></sodipodi:namedview><defs
     id="defs671" /><g
     inkscape:label="Ebene 1"
     inkscape:groupmode="layer"
     id="layer1"
     transform="translate(285.39457,74.622831)"><rect
       style="fill:#aa0000;fill-opacity:1;stroke:none;stroke-width:0.889922"
       id="rect1603"
       width="57.391693"
       height="100.35677"
       x="-284.58267"
       y="-68.5187"
       inkscape:export-filename="curtain.svg"
       inkscape:export-xdpi="96"
       inkscape:export-ydpi="96" /><path
       style="fill:#ff5555;fill-opacity:1;stroke:none;stroke-width:0.264583;stroke-dasharray:none"
       d="m -226.74841,13.761032 -0.01,6.934059 c 0,0 -10.54442,-0.786385 -11.74667,1.778167 -1.20226,2.564552 3.54338,0.996723 3.68182,2.980521 0.13844,1.983798 -2.2217,4.111232 -5.90088,4.639872 -3.67918,0.52864 -8.24039,-1.290164 -8.67599,-3.600384 -0.4356,-2.31022 5.72896,-1.418541 4.55844,-4.383116 -1.17052,-2.964575 -11.43704,-3.083237 -12.7987,-0.175327 -1.36166,2.90791 4.55952,2.772777 4.20779,4.909093 -0.35173,2.136316 -3.19288,3.172691 -5.61039,3.331167 -2.41751,0.158476 -6.59096,-1.0009 -7.36364,-3.155844 -0.77268,-2.154944 4.20004,-2.629867 2.62987,-5.084416 -1.57017,-2.454549 -10.55124,-2.110949 -11.74675,0.525976 -1.19551,2.636925 4.12229,2.269505 3.50649,4.383117 -0.6158,2.113612 -4.83155,2.485875 -7.18831,2.454545 -2.35676,-0.03133 -5.50734,-0.339454 -6.13636,-2.279222 -0.62902,-1.939768 4.59124,-2.006965 3.15584,-4.733766"
       id="path9062"
       sodipodi:nodetypes="cczzzzzzzzzzzzzzc" /><path
       id="rect9589"
       style="fill:#c83737;fill-opacity:1;stroke:none;stroke-width:0.264301;stroke-dasharray:none"
       d="m -284.58266,-68.518695 c 3.6142,57.667844 2.90315,66.2399102 2.39662,90.804322 3.4942,3.105549 5.91684,2.134448 6.66264,0.175183 1.19551,-2.636922 10.1764,-2.980612 11.74657,-0.526066 3.06811,1.707562 5.20112,2.377868 6.13658,0 1.36166,-2.907907 11.62818,-2.789389 12.7987,0.175183 2.25901,2.404705 5.89691,1.437941 6.33657,0.363285 1.20224,-2.564549 11.74657,-1.778186 11.74657,-1.778186 l 0.006,-3.844726 h 0.32039 v -85.207715 z"
       sodipodi:nodetypes="cccccccccccc" /><path
       style="fill:#ff5555;fill-opacity:1;stroke:none;stroke-width:0.264583;stroke-dasharray:none"
       d="M -284.64031,27.01924 V -74.143095 h 14.90259 l -2.27922,100.987012 z"
       id="path5706"
       sodipodi:nodetypes="ccccc" /><path
       style="fill:#ff5555;fill-opacity:1;stroke:none;stroke-width:0.264583;stroke-dasharray:none"
       d="m -266.40655,27.01924 0.85747,-101.509785 h 12.08464 l 0.0319,101.334462 z"
       id="path5708"
       sodipodi:nodetypes="ccccc" /><rect
       style="fill:none;fill-opacity:1;stroke:none;stroke-width:0.264583;stroke-dasharray:none"
       id="rect11104"
       width="66.623375"
       height="98.181824"
       x="-264.91559"
       y="-132.37013"
       inkscape:export-filename="curtain.png"
       inkscape:export-xdpi="96"
       inkscape:export-ydpi="96" /><g
       id="g14690"
       transform="matrix(-1,0,0,1,-343.79249,47.728822)"><rect
         style="fill:#aa0000;fill-opacity:1;stroke:none;stroke-width:0.993853"
         id="rect14666"
         width="69.348129"
         height="100.2328"
         x="-179.29068"
         y="-116.08189" /><path
         style="fill:#ff5555;fill-opacity:1;stroke:none;stroke-width:0.264583;stroke-dasharray:none"
         d="m -177.95907,-18.440059 0.1285,-14.866207 70.5621,-0.495896 -0.01,6.934059 c 0,0 -10.54442,-0.786385 -11.74667,1.778167 -1.20226,2.564552 3.54338,0.996723 3.68182,2.980521 0.13844,1.983798 -2.2217,4.111232 -5.90088,4.639872 -3.67918,0.52864 -8.24039,-1.290164 -8.67599,-3.600384 -0.4356,-2.31022 5.72896,-1.418541 4.55844,-4.383116 -1.17052,-2.964575 -11.43704,-3.083237 -12.7987,-0.175327 -1.36166,2.90791 4.55952,2.772777 4.20779,4.909093 -0.35173,2.136316 -3.19288,3.172691 -5.61039,3.331167 -2.41751,0.158476 -6.59096,-1.0009 -7.36364,-3.155844 -0.77268,-2.154944 4.20004,-2.629867 2.62987,-5.084416 -1.57017,-2.454549 -10.55124,-2.110949 -11.74675,0.525976 -1.19551,2.636925 4.12229,2.269505 3.50649,4.383117 -0.6158,2.113612 -4.83155,2.485875 -7.18831,2.454545 -2.35676,-0.03133 -5.50734,-0.339454 -6.13636,-2.279222 -0.62902,-1.939768 4.59124,-2.006965 3.15584,-4.733766 -1.4354,-2.726801 -10.67922,-1.793891 -12.27273,0.175326 -1.5935,1.969218 3.33413,2.290975 2.8052,4.207791 -0.52893,1.916816 -5.78571,2.454544 -5.78571,2.454544"
         id="path14668"
         sodipodi:nodetypes="cccczzzzzzzzzzzzzzzzzc" /><path
         id="path14670"
         style="fill:#c83737;fill-opacity:1;stroke:none;stroke-width:0.264301;stroke-dasharray:none"
         d="m -189.00475,-115.92061 v 85.207716 h 11.15177 c 2.78637,9.045914 2.35271,6.343231 2.87424,5.61051 1.59351,-1.969215 10.83724,-2.901981 12.27264,-0.175183 3.4942,3.105549 5.91684,2.134448 6.66264,0.175183 1.19551,-2.636922 10.1764,-2.980612 11.74657,-0.526066 3.06811,1.707562 5.20112,2.377868 6.13658,0 1.36166,-2.907907 11.62818,-2.789389 12.7987,0.175183 2.25901,2.404705 5.89691,1.437941 6.33657,0.363285 1.20224,-2.564549 12.27574,-1.778186 12.27574,-1.778186 l -0.52317,-3.844726 h 0.32039 v -85.207716 z"
         sodipodi:nodetypes="ccccccccccccccc" /><path
         style="fill:#ff5555;fill-opacity:1;stroke:none;stroke-width:0.264583;stroke-dasharray:none"
         d="m -165.86167,-20.543954 0.7013,-101.162336 h 14.90259 l -2.27922,100.987013 z"
         id="path14672"
         sodipodi:nodetypes="ccccc" /><path
         style="fill:#ff5555;fill-opacity:1;stroke:none;stroke-width:0.264583;stroke-dasharray:none"
         d="m -146.92661,-20.543954 0.85747,-101.509786 h 12.08464 l 0.0319,101.334463 z"
         id="path14674"
         sodipodi:nodetypes="ccccc" /><path
         style="fill:#ff5555;fill-opacity:1;stroke:none;stroke-width:0.264583;stroke-dasharray:none"
         d="m -129.92011,-21.069927 0.6636,-101.116103 13.97752,0.0296 -0.0642,100.047025 z"
         id="path14676"
         sodipodi:nodetypes="ccccc" /><path
         style="fill:#ff5555;fill-opacity:1;stroke:none;stroke-width:0.264583;stroke-dasharray:none"
         d="m -183.9369,-20.706818 -0.20087,-100.802112 h 12.61381 l -0.6494,100.614327 z"
         id="path14678"
         sodipodi:nodetypes="ccccc" /><rect
         style="fill:none;fill-opacity:1;stroke:none;stroke-width:0.264583;stroke-dasharray:none"
         id="rect14680"
         width="66.623375"
         height="98.181824"
         x="-177.08246"
         y="-115.21928"
         inkscape:export-filename="curtain.png"
         inkscape:export-xdpi="96"
         inkscape:export-ydpi="96" /></g><path
       style="fill:#ff5555;fill-opacity:1;stroke:none;stroke-width:0.257774;stroke-dasharray:none"
       d="m -249.40005,26.493267 0.62989,-101.116102 13.26739,0.0296 0.67951,100.047014 z"
       id="path5710"
       sodipodi:nodetypes="ccccc" /><rect
       style="fill:#aa0000;fill-opacity:1;stroke:none;stroke-width:0.996587"
       id="rect16083"
       width="72.075546"
       height="100.21555"
       x="-164.99719"
       y="-68.335808" /><path
       style="fill:#ff5555;fill-opacity:1;stroke:none;stroke-width:0.264583;stroke-dasharray:none"
       d="m -163.66558,29.306009 0.1285,-14.866207 70.562101,-0.495896 -0.01,6.934059 c 0,0 -10.544421,-0.786385 -11.746671,1.778167 -1.20226,2.564552 3.54338,0.996723 3.68182,2.980521 0.13844,1.983798 -2.2217,4.111232 -5.90088,4.639872 -3.67918,0.52864 -8.24039,-1.290164 -8.67599,-3.600384 -0.4356,-2.31022 5.72896,-1.418541 4.55844,-4.383116 -1.17052,-2.964575 -11.43704,-3.083237 -12.7987,-0.175327 -1.36166,2.90791 4.55952,2.772777 4.20779,4.909093 -0.35173,2.136316 -3.19288,3.172691 -5.61039,3.331167 -2.41751,0.158476 -6.59096,-1.0009 -7.36364,-3.155844 -0.77268,-2.154944 4.20004,-2.629867 2.62987,-5.084416 -1.57017,-2.454549 -10.55124,-2.110949 -11.74675,0.525976 -1.19551,2.636925 4.12229,2.269505 3.50649,4.383117 -0.6158,2.113612 -4.83155,2.485875 -7.18831,2.454545 -2.35676,-0.03133 -5.50734,-0.339454 -6.13636,-2.279222 -0.62902,-1.939768 4.59124,-2.006965 3.15584,-4.733766 -1.4354,-2.726801 -10.67922,-1.793891 -12.27273,0.175326 -1.5935,1.969218 3.33413,2.290975 2.8052,4.207791 -0.52893,1.916816 -5.78571,2.454544 -5.78571,2.454544"
       id="path16085"
       sodipodi:nodetypes="cccczzzzzzzzzzzzzzzzzc" /><path
       id="path16087"
       style="fill:#c83737;fill-opacity:1;stroke:none;stroke-width:0.264301;stroke-dasharray:none"
       d="m -168.36126,-68.174465 v 85.207704 h 4.80177 c 2.78637,9.045914 2.35271,6.343231 2.87424,5.61051 1.59351,-1.969215 10.83724,-2.901981 12.27264,-0.175183 3.4942,3.105549 5.91684,2.134448 6.66264,0.175183 1.19551,-2.636922 10.1764,-2.980612 11.74657,-0.526066 3.06811,1.707562 5.20112,2.377868 6.13658,0 1.36166,-2.907907 11.62818,-2.789389 12.7987,0.175183 2.25901,2.404705 5.89691,1.437941 6.33657,0.363285 1.20224,-2.564549 11.746571,-1.778186 11.746571,-1.778186 l 0.32639,-89.05243 z"
       sodipodi:nodetypes="ccccccccccccc" /><path
       style="fill:#ff5555;fill-opacity:1;stroke:none;stroke-width:0.264583;stroke-dasharray:none"
       d="m -151.56818,27.202114 0.7013,-101.162329 h 14.90259 l -2.27922,100.987006 z"
       id="path16089"
       sodipodi:nodetypes="ccccc" /><path
       style="fill:#ff5555;fill-opacity:1;stroke:none;stroke-width:0.264583;stroke-dasharray:none"
       d="m -132.63312,27.202114 0.85747,-101.509779 h 12.08464 l 0.0319,101.334456 z"
       id="path16091"
       sodipodi:nodetypes="ccccc" /><path
       style="fill:#ff5555;fill-opacity:1;stroke:none;stroke-width:0.264583;stroke-dasharray:none"
       d="m -169.64341,27.03925 -0.20087,-100.802105 h 12.61381 l -0.6494,100.61432 c -2.02732,0.905834 -3.25422,2.403183 -5.78571,2.454544 -3.78713,0.07684 -4.69491,-0.111669 -5.97783,-2.266759 z"
       id="path16093"
       sodipodi:nodetypes="ccccsc" /><rect
       style="fill:none;fill-opacity:1;stroke:none;stroke-width:0.264583;stroke-dasharray:none"
       id="rect16095"
       width="66.623375"
       height="98.181824"
       x="-162.78897"
       y="-67.473198"
       inkscape:export-filename="curtain.png"
       inkscape:export-xdpi="96"
       inkscape:export-ydpi="96" /><path
       style="fill:#ff5555;fill-opacity:1;stroke:none;stroke-width:0.257774;stroke-dasharray:none"
       d="m -115.62662,26.676141 0.62989,-101.116096 13.26739,0.0296 0.67951,100.047008 z"
       id="path16097"
       sodipodi:nodetypes="ccccc" /></g></svg>
