<?xml version="1.0" encoding="UTF-8" standalone="no"?>
<!-- Created with Inkscape (http://www.inkscape.org/) -->

<svg
   width="12.463781mm"
   height="4.092453mm"
   viewBox="0 0 12.463781 4.092453"
   version="1.1"
   id="svg674"
   inkscape:version="1.2.2 (732a01da63, 2022-12-09)"
   sodipodi:docname="´tim_side.svg"
   xmlns:inkscape="http://www.inkscape.org/namespaces/inkscape"
   xmlns:sodipodi="http://sodipodi.sourceforge.net/DTD/sodipodi-0.dtd"
   xmlns="http://www.w3.org/2000/svg"
   xmlns:svg="http://www.w3.org/2000/svg">
  <sodipodi:namedview
     id="namedview676"
     pagecolor="#ffffff"
     bordercolor="#000000"
     borderopacity="0.25"
     inkscape:showpageshadow="2"
     inkscape:pageopacity="0.0"
     inkscape:pagecheckerboard="0"
     inkscape:deskcolor="#d1d1d1"
     inkscape:document-units="mm"
     showgrid="false"
     inkscape:zoom="4.2683933"
     inkscape:cx="85.980829"
     inkscape:cy="484.02287"
     inkscape:window-width="1920"
     inkscape:window-height="1027"
     inkscape:window-x="-8"
     inkscape:window-y="-8"
     inkscape:window-maximized="1"
     inkscape:current-layer="layer1">
    <inkscape:grid
       type="xygrid"
       id="grid1241" />
  </sodipodi:namedview>
  <defs
     id="defs671" />
  <g
     inkscape:label="Ebene 1"
     inkscape:groupmode="layer"
     id="layer1"
     transform="translate(15.893171,-155.44815)">
    <path
       style="fill:#0c6e0c;fill-opacity:1;stroke-width:0.529167"
       d="m -19.149464,160.09331 c -0.313357,-1.69275 0.296799,-4.59927 2.041154,-5.62263 1.744356,-1.02336 13.8188796,-0.67874 15.4966575,0.24796 1.67777793,0.92669 2.51456906,2.34396 2.23151883,4.09111 -0.28305023,1.74715 0.19361298,2.2629 -2.60343863,3.7192 -2.7970516,1.4563 -10.9251707,0.74443 -13.0659637,0.30682 -2.140793,-0.43762 -3.786571,-1.04971 -4.099928,-2.74246 z"
       id="path19310"
       sodipodi:nodetypes="zzzzzzz" />
    <path
       style="fill:#0c6e0c;fill-opacity:1;stroke-width:0.529167"
       d="m 0.1675576,157.75598 2.2189278,4.81267 -6.6945565,-1.04214 z"
       id="path19312"
       sodipodi:nodetypes="cccc" />
    <path
       style="fill:none;fill-opacity:1;stroke:#000000;stroke-width:0.529167"
       d="m -15.682311,158.37873 1.705032,-2.24952 0.688667,2.65852 1.911553,-2.55627 0.60139,2.70964 2.2313897,-2.81189 0.25074,2.70964 2.0687,-2.70964 0.8703075,2.45402 1.70503,-2.55627"
       id="path19606"
       sodipodi:nodetypes="cccccccccc" />
  </g>
</svg>
