<?xml version="1.0" encoding="UTF-8" standalone="no"?>
<!-- Created with Inkscape (http://www.inkscape.org/) -->

<svg
   width="11.216756mm"
   height="4.0129547mm"
   viewBox="0 0 11.216756 4.0129547"
   version="1.1"
   id="svg674"
   inkscape:version="1.2.2 (732a01da63, 2022-12-09)"
   sodipodi:docname="´tim_side.svg"
   xmlns:inkscape="http://www.inkscape.org/namespaces/inkscape"
   xmlns:sodipodi="http://sodipodi.sourceforge.net/DTD/sodipodi-0.dtd"
   xmlns="http://www.w3.org/2000/svg"
   xmlns:svg="http://www.w3.org/2000/svg">
  <sodipodi:namedview
     id="namedview676"
     pagecolor="#ffffff"
     bordercolor="#000000"
     borderopacity="0.25"
     inkscape:showpageshadow="2"
     inkscape:pageopacity="0.0"
     inkscape:pagecheckerboard="0"
     inkscape:deskcolor="#d1d1d1"
     inkscape:document-units="mm"
     showgrid="false"
     inkscape:zoom="4.2683933"
     inkscape:cx="85.980829"
     inkscape:cy="484.02287"
     inkscape:window-width="1920"
     inkscape:window-height="1027"
     inkscape:window-x="-8"
     inkscape:window-y="-8"
     inkscape:window-maximized="1"
     inkscape:current-layer="layer1">
    <inkscape:grid
       type="xygrid"
       id="grid1241" />
  </sodipodi:namedview>
  <defs
     id="defs671" />
  <g
     inkscape:label="Ebene 1"
     inkscape:groupmode="layer"
     id="layer1"
     transform="translate(15.152344,-148.87814)">
    <path
       style="fill:none;fill-opacity:1;stroke:#000000;stroke-width:0.529167"
       d="m -14.99026,152.62539 c 0,0 2.412665,-1.16661 2.454546,-1.91465 0.04188,-0.74803 -0.755376,-1.3538 -1.402598,-1.31189 -0.647222,0.0419 -1.070176,0.45473 -0.920454,1.20552 0.149722,0.75078 1.861706,2.0359 2.980519,2.02102 1.118813,-0.0149 1.9283722,-0.82498 2.1038962,-1.52463 0.175524,-0.69965 -0.2804982,-1.81503 -1.0519482,-1.80828 -0.77145,0.006 -1.055616,0.89275 -0.876623,1.59554 0.178993,0.70278 1.323097,1.70455 2.3230522,1.73737 0.999956,0.0328 1.93046,-0.72666 2.235389,-1.41826 0.304929,-0.6916 0.272602,-1.94339 -0.569805,-2.05647 -0.842407,-0.11308 -1.461565,0.99641 -1.314935,1.73736 0.14663,0.74095 1.323547,1.56029 2.323052,1.59555 0.999505,0.0353 2.1516486,-0.70767 2.4107143,-1.38281 0.2590657,-0.67514 -0.02922,-1.71101 -0.7889611,-1.73737 -0.7597412,-0.0264 -1.1094042,1.04475 -0.9642852,1.66646 0.145119,0.62171 1.7532463,1.34734 1.7532463,1.34734"
       id="path19608"
       sodipodi:nodetypes="czzzzzzzzzzzzzzzc" />
  </g>
</svg>
