<?xml version="1.0" encoding="UTF-8" standalone="no"?>
<!-- Created with Inkscape (http://www.inkscape.org/) -->

<svg
   width="202.69341mm"
   height="158.75mm"
   viewBox="0 0 202.69341 158.75"
   version="1.1"
   id="svg83503"
   inkscape:version="1.2.2 (732a01da63, 2022-12-09)"
   sodipodi:docname="logo.svg"
   xmlns:inkscape="http://www.inkscape.org/namespaces/inkscape"
   xmlns:sodipodi="http://sodipodi.sourceforge.net/DTD/sodipodi-0.dtd"
   xmlns="http://www.w3.org/2000/svg"
   xmlns:svg="http://www.w3.org/2000/svg">
  <sodipodi:namedview
     id="namedview83505"
     pagecolor="#ffffff"
     bordercolor="#000000"
     borderopacity="0.25"
     inkscape:showpageshadow="2"
     inkscape:pageopacity="0.0"
     inkscape:pagecheckerboard="0"
     inkscape:deskcolor="#d1d1d1"
     inkscape:document-units="mm"
     showgrid="false"
     inkscape:zoom="0.55244701"
     inkscape:cx="43.443081"
     inkscape:cy="219.02553"
     inkscape:window-width="1920"
     inkscape:window-height="1027"
     inkscape:window-x="-8"
     inkscape:window-y="-8"
     inkscape:window-maximized="1"
     inkscape:current-layer="layer1" />
  <defs
     id="defs83500" />
  <g
     inkscape:label="Ebene 1"
     inkscape:groupmode="layer"
     id="layer1"
     transform="translate(12.056005,-18.700869)">
    <rect
       style="fill:#363d52;fill-opacity:1;stroke:none;stroke-width:1.416;stroke-dasharray:none"
       id="rect64786"
       width="202.69341"
       height="158.75"
       x="-12.056005"
       y="18.700869"
       inkscape:export-filename="tough_crowd_logo.png"
       inkscape:export-xdpi="96"
       inkscape:export-ydpi="96" />
    <path
       id="path114975"
       style="fill:#cccccc;stroke:#cccccc;stroke-width:2.64583;stroke-dasharray:none"
       d="m 111.01042,25.831932 c -0.62495,-0.02625 -1.36873,0.177864 -2.28131,0.768776 -2.08592,1.350655 -2.55985,6.403931 -2.71576,8.068788 -0.008,1.803939 -0.0153,4.126073 0.35294,6.059596 0.44614,2.342454 1.10536,4.242092 1.41756,6.367619 0.10736,0.730868 0.22506,1.48748 0.40397,2.25702 0.0636,0.273792 0.0939,0.338865 0.16235,0.547204 -0.0737,0.220528 -0.17535,0.541549 -0.26311,0.730674 -0.12311,-0.131477 -0.21316,-0.215987 -0.4646,-0.532476 -0.0857,-0.107874 -0.91276,-1.305336 -1.60654,-2.348914 -0.3469,-0.521789 -0.68336,-1.032534 -0.93756,-1.421964 -0.1271,-0.194714 -0.23341,-0.35958 -0.30931,-0.478044 -0.0359,-0.05598 -0.0755,-0.123584 -0.1001,-0.164897 -0.0395,-0.09648 -0.0811,-0.30514 -0.1168,-0.429055 0.0107,-0.07984 0.0147,-0.05231 0.0218,-0.136721 0.0167,-0.19768 0.0434,-0.428055 -0.0751,-0.795352 -0.11846,-0.367297 -0.65212,-0.940172 -1.20933,-1.004436 -0.18258,-0.02106 -0.40761,0.07125 -0.61957,0.171942 -0.20841,-0.136368 -0.39279,-0.244891 -0.76109,-0.441542 -1.04113,-0.656217 -2.297053,-0.891317 -3.545171,-0.85939 -1.273016,0.03256 -2.561231,0.341375 -3.579832,1.147241 -0.719184,0.568978 -1.014944,1.104931 -1.826655,2.233005 -0.811711,1.128073 -1.204139,3.290153 -1.525692,4.612337 -0.171064,0.702214 -0.1789,1.733283 -0.152406,2.209311 0.02651,0.476029 0.0631,0.873858 0.04973,1.04542 -0.01211,0.155619 -0.005,0.15478 -0.01217,0.269921 -0.0037,0.0046 -0.01683,0.0089 -0.02055,0.01345 -0.677733,1.128711 -1.107043,2.000187 -1.815423,3.086952 -0.918568,1.388889 -2.191526,2.148842 -3.211809,0.832174 -1.020281,-1.316669 -0.98823,-1.751978 -1.457024,-3.058776 -0.496144,-1.415667 -0.905197,-2.607152 -1.359483,-3.697233 -0.558045,-1.250499 -0.661615,-2.85148 -1.06012,-4.046882 l -2.41062,0.524151 c 0.108933,1.07068 0.353302,1.202755 0.568564,2.760358 0.214716,1.553651 0.507117,4.796335 0.397224,5.892778 0.004,-0.03702 0.09146,-0.859491 -0.0016,0.02145 -2.29e-4,0.0022 -7.45e-4,0.0052 -9.32e-4,0.0074 -0.09666,0.93703 -0.0065,0.05866 -0.0013,0.008 -0.102967,0.916896 -1.014687,3.77729 -2.037459,4.370914 -1.027939,0.596622 -2.534661,0.924928 -3.286887,0.401838 -1.32028,-0.911745 -2.512957,-4.30392 -2.781515,-5.610048 -0.263347,-1.262266 -0.570198,-2.20588 -0.686961,-3.208304 -0.116763,-1.002424 -0.303509,-1.926835 -0.807283,-3.362956 l -2.179279,1.191107 c 0.212108,1.027114 0.244344,1.656238 0.482893,3.125055 0.348009,2.142775 0.37747,1.880675 0.684715,3.353349 0.645006,3.416241 1.399109,5.421397 2.697147,6.989749 1.298038,1.568351 2.653974,1.495183 3.491596,1.748557 2.457458,0.507405 4.795747,-0.736355 5.785743,-2.167366 0.989995,-1.43101 0.857043,-3.697686 0.982472,-5.378231 -0.06199,1.170551 1.790301,4.133521 2.946134,4.50059 0.938523,0.193584 2.27984,0.319575 3.03341,-0.06756 0.753569,-0.387136 1.140757,-1.073505 1.423975,-1.468711 0.437289,-0.668034 0.910186,-1.456881 1.133599,-2.02104 0.250149,-0.695091 0.369374,-1.207163 0.704928,-1.862866 0.119995,0.223263 0.269502,0.439926 0.384388,0.861632 0.205903,0.755819 0.60341,1.095359 1.002687,1.459426 0.399283,0.364068 0.737228,0.665144 1.379054,0.849464 0.416506,0.119615 1.203462,0.35213 2.143985,0.333958 0.631984,-0.01221 1.807009,-0.224052 2.880357,-0.75917 -0.405376,0.588226 -0.780177,1.09957 -1.059477,1.758803 -0.472257,1.114669 -1.249607,2.677756 -1.419163,4.991763 -0.100642,0.898935 -0.274581,2.514894 0.01794,3.776321 0.999136,2.455587 1.831492,4.395902 4.32711,4.742974 1.18873,0.08963 3.2426,-0.07132 4.33257,-0.989063 0.49263,-0.439034 1.2802,-1.312601 1.62644,-1.916661 0.69249,-1.208125 1.64464,-2.637629 1.89436,-4.230991 0.29319,-1.870771 0.48859,-4.883637 0.523,-6.751526 0.0155,-0.843837 -0.14644,-1.94322 -0.10011,-2.96528 0.21833,-0.01554 0.44327,-0.0067 0.66803,-0.162336 0.32108,-0.222305 0.48064,-0.551426 0.54097,-0.773259 0.12066,-0.443666 0.0481,-0.637227 0.0183,-0.814244 -0.0538,-0.320766 -0.0894,-0.533395 -0.096,-0.443143 0.002,-0.02389 0.005,-0.05542 0.007,-0.07749 0.007,-0.06862 0.0132,-0.127308 0.0179,-0.174184 0.002,-0.02344 0.004,-0.04247 0.006,-0.06404 0.001,-0.01443 0.004,-0.06833 0.005,-0.114948 0.04,-0.569966 0.14491,-1.18087 0.23551,-1.963085 0.15932,-1.375661 0.086,-2.808254 0.24322,-3.835556 0.14458,-0.944941 0.25599,-1.038256 0.72771,-3.048209 0.4717,-2.009953 -0.0318,-1.452864 1.24461,-2.971684 0.92528,-1.376218 2.69261,-0.685172 3.85866,0.327875 1.16605,1.013047 0.91984,2.381048 1.20451,4.197051 l 10e-4,0.0083 0.001,0.0083 c 0.40852,1.944208 0.63477,4.295053 1.64537,6.022453 0.21008,0.359085 0.7866,1.057487 1.28601,1.577256 0.4994,0.519769 1.83894,1.246924 2.82453,1.118424 2.00386,-0.145831 3.55707,-2.450044 4.3823,-3.552508 0.82523,-1.102464 0.97435,-1.502746 1.38098,-2.639647 0.40663,-1.1369 0.3447,-1.608438 0.59327,-2.29224 l -2.33425,-0.844661 c 0.0241,-0.06626 -0.44071,0.814305 -0.88526,1.53307 -0.42048,0.679852 -0.40364,0.956414 -1.07199,1.739272 -0.66836,0.782858 -0.99212,1.060292 -2.01949,1.321744 -0.77907,0.312951 -1.50123,-0.229452 -1.86099,-0.849464 -0.92226,-1.576402 -1.171,-1.931818 -1.50515,-3.626152 -0.33416,-1.694334 -0.11998,-3.551082 -1.60815,-6.047109 -0.4938,-0.844035 -1.3563,-1.25872 -2.06634,-1.417161 -0.71003,-0.15844 -1.35349,-0.144974 -1.81799,-0.159774 -0.58658,-0.01869 -0.95834,0.08092 -1.13135,0.08709 -0.34719,-7.43e-4 -0.48475,-0.01743 -0.70332,-0.02305 -0.0358,-9.29e-4 -0.16507,0.04366 -0.22076,0.04259 0.0748,-0.469333 0.24481,-1.30544 0.31092,-1.876313 0.28135,-2.613738 0.69215,-4.783345 0.14535,-7.309618 -0.35526,-1.376963 -0.64105,-3.081398 -1.55649,-3.906638 -0.51494,-0.464198 -1.12167,-0.878796 -1.92516,-0.912542 z M 80.943614,56.051785 c 2.72e-4,-0.0024 9.94e-4,-0.0056 0.0013,-0.008 0.0024,-0.02348 -7.45e-4,0.0064 0.0019,-0.01953 2.85e-4,-0.0028 3.63e-4,-0.0065 6.21e-4,-0.0093 -9.3e-5,8.68e-4 -0.0016,0.01542 -0.0016,0.01537 5e-6,-5.4e-5 -0.0021,0.02004 -0.0022,0.02145 z M 110.86603,29.808051 c 0.51112,-0.01324 0.87986,0.644212 1.0229,1.565089 0.20276,2.153423 0.1963,3.336161 0.0472,5.261682 -0.14127,2.883616 -0.97687,5.911687 -1.55457,7.912216 -0.19606,0.679858 -0.23663,1.117832 -0.3215,1.375857 -0.3709,-2.004404 -0.89902,-3.79276 -1.25392,-5.656157 -0.29516,-1.549662 -0.3169,-3.798878 -0.30899,-5.586355 0.003,-0.746419 0.24869,-1.36558 0.48963,-2.411672 l 0.001,-0.0025 c 0.71323,-1.761029 1.36687,-2.44486 1.87799,-2.458099 z M 53.708398,41.168393 c -2.249065,1.410226 -4.614178,2.987004 -6.914848,3.691151 l -0.03625,0.01089 -0.03529,0.01185 c -1.266361,0.441493 -3.88269,1.082264 -5.094611,1.383221 -0.02016,0.005 0.0034,-8.67e-4 -0.0154,0.0038 0.01217,-0.0037 0.152565,-0.04438 -0.01123,0.0029 -0.0097,0.0024 9.94e-4,-8.5e-5 -0.0083,0.0022 -0.01099,0.0032 0.0025,-6.81e-4 -0.01091,0.0032 -0.0031,6.2e-4 -0.0059,0.0013 -0.009,0.0019 0.0017,-4.16e-4 0.01935,-0.005 0.01989,-0.0051 -0.02936,0.0073 -5.21e-4,-1e-6 -0.02631,0.0064 -2.690644,0.546694 -4.596777,0.880234 -7.549188,1.16229 -1.061313,0.111484 -3.536481,0.03924 -5.191511,0.267038 -1.006641,0.138558 -2.599768,0.148645 -3.942724,0.767176 -1.814124,0.83554 -2.808127,2.61987 -3.380578,4.473695 -0.572452,1.853825 -0.301349,3.965712 -0.491558,5.523918 l 2.465166,0.300018 c 0.188119,-1.541085 0.541373,-2.985223 1.483014,-4.321605 0.890982,-1.264487 1.585445,-1.998708 2.338746,-2.334505 1.329579,-0.592685 2.280188,-0.370052 3.46721,-0.533437 1.029715,-0.141733 1.97989,-0.08274 3.615448,-0.254551 0.728485,-0.07652 1.774622,-0.126594 3.169453,-0.35445 0.01634,0.03296 0.03141,0.06174 0.04813,0.09606 0.234463,0.481279 0.389031,0.951035 0.909637,1.974932 0.554692,1.090933 1.259631,2.927503 1.832751,3.851886 0.529203,0.853549 0.987507,1.70885 1.45542,2.792697 0.737915,1.938849 1.359803,6.357419 -0.196687,9.652128 -0.755704,1.601931 -1.511114,2.653525 -2.57907,3.221112 -1.787869,1.122465 -1.939757,0.965786 -3.510206,0.193398 -0.588726,-0.501381 -0.975457,-1.028019 -1.028676,-1.192071 l -2.363453,0.763653 c 0.727158,2.234432 3.755466,5.445958 6.277941,5.007451 0.715851,-0.140229 2.080523,-0.332369 2.770303,-0.698971 1.379561,-0.733197 2.893091,-2.137322 3.685716,-3.312367 0.862894,-1.279216 1.191434,-2.492506 1.633176,-4.111562 0.61737,-2.262757 0.05003,-3.165207 -0.08695,-5.099026 -0.16632,-2.34788 -0.874954,-4.280731 -1.391889,-5.478131 -0.496413,-1.149862 -1.23129,-2.271198 -1.847832,-3.265618 -0.572625,-0.923585 -1.999035,-2.587809 -2.435004,-3.445244 -0.30654,-0.602884 -0.459761,-0.970483 -0.61573,-1.33167 0.648374,-0.09205 1.512977,-0.258266 3.233304,-0.716586 3.440652,-0.916639 3.202051,-0.7033 5.306057,-1.925943 2.104007,-1.222643 4.370107,-3.233905 6.521795,-4.780117 z m 46.452472,4.007818 c 0.33668,-0.0063 0.50792,0.0086 0.50792,0.0086 0.26292,0.06176 0.6454,0.553859 1.04664,0.658311 0.0557,0.01451 0.11095,0.02807 0.19059,0.04226 0.0181,0.0032 0.0917,-0.0042 0.11038,0.0013 -0.0539,0.98956 0.0418,2.031242 0.10909,3.045968 0.0764,1.151794 -0.0152,1.886617 -0.34621,3.288671 -0.33109,1.402055 -1.0047,3.513831 -2.748803,4.630908 -1.7441,1.117078 -2.827685,0.472029 -3.36261,0.07653 -1.182749,-0.877833 -1.651331,-4.588293 -1.126539,-6.687809 1.787774,-3.368825 2.799427,-4.772802 4.120482,-4.944695 0.660528,-0.08595 1.162377,-0.113729 1.49906,-0.120071 z m 4.48947,4.967749 c 0.37122,0.551779 0.80622,1.217873 1.0261,1.494647 0.27308,0.343716 0.42591,0.492859 0.6074,0.687448 -0.1363,0.102404 -0.23895,0.190963 -0.37959,0.295215 -0.87757,0.65056 -1.4788,1.050626 -2.04098,1.775773 0.257,-0.71916 0.4472,-1.402462 0.53583,-1.941312 0.13844,-0.84163 0.25873,-1.523417 0.25124,-2.311771 z m -43.764951,1.203274 c -0.02416,2.6e-5 -0.04834,7.43e-4 -0.07252,9.91e-4 v -3.2e-4 c -0.03514,3.48e-4 -0.07007,0.0011 -0.105241,0.0019 -0.03518,8.06e-4 -0.07036,0.0019 -0.105564,0.0032 -0.02452,8.68e-4 -0.04926,0.0018 -0.0738,0.0029 -0.03796,0.0017 -0.07593,0.0038 -0.113905,0.0061 -0.04312,0.0025 -0.08617,0.0054 -0.129307,0.0086 -0.03068,0.0023 -0.06141,0.0047 -0.09209,0.0074 -0.02702,0.0024 -0.05384,0.0048 -0.08086,0.0074 -0.05112,0.0049 -0.102253,0.01042 -0.153371,0.01633 -0.02023,0.0024 -0.04042,0.0048 -0.06064,0.0074 -0.513694,0.0633 -1.026827,0.175882 -1.533388,0.343243 -0.20999,0.06938 -0.415886,0.144206 -0.617976,0.224133 -0.0026,0.0011 -0.0051,0.0022 -0.0077,0.0032 -0.0072,0.0029 -0.01432,0.0058 -0.0215,0.0086 -0.05985,0.02387 -0.119272,0.04791 -0.178398,0.07268 -0.0037,0.0015 -0.0075,0.0032 -0.01123,0.0048 -0.06496,0.02729 -0.129726,0.05519 -0.1938,0.08357 -0.0146,0.0065 -0.02908,0.01301 -0.04364,0.01953 -0.120544,0.05401 -0.239497,0.109689 -0.356795,0.167459 -0.0012,5.89e-4 -0.0024,0.0013 -0.0035,0.0019 -0.06452,0.0318 -0.128684,0.0641 -0.192195,0.09702 -3.39e-4,1.76e-4 -6.21e-4,4.65e-4 -9.94e-4,6.19e-4 -0.193725,0.100445 -0.382604,0.205817 -0.566638,0.316348 -0.558277,0.335275 -1.070608,0.716227 -1.531143,1.136034 -0.341743,-0.450099 -0.546103,-0.735796 -0.546103,-0.735796 -0.814159,0.584369 -1.34095,1.231087 -1.611037,1.933627 0,0 0.190957,0.316938 0.522681,0.821288 -0.01123,0.01953 -0.02232,0.03898 -0.03337,0.0586 -0.01888,0.0335 -0.03746,0.06712 -0.05583,0.100859 -0.0139,0.02555 -0.02747,0.05116 -0.04107,0.07685 -0.0149,0.02812 -0.02973,0.05624 -0.04428,0.08453 -0.01291,0.02513 -0.02555,0.05031 -0.03819,0.07557 -0.01979,0.03955 -0.0393,0.07925 -0.05839,0.119111 -0.01151,0.02402 -0.02276,0.04791 -0.03401,0.07204 -0.01861,0.03992 -0.03696,0.07986 -0.05487,0.120072 -0.007,0.01565 -0.01367,0.03138 -0.02053,0.04706 -0.01633,0.03733 -0.0324,0.0748 -0.04813,0.112387 -0.0045,0.01068 -0.0091,0.02133 -0.01347,0.03202 -0.02615,0.06331 -0.05131,0.127147 -0.07572,0.191154 -0.002,0.0054 -0.0044,0.01064 -0.0064,0.01601 -0.09687,0.255733 -0.179849,0.516775 -0.248346,0.782864 -1.93e-4,7.44e-4 -4.49e-4,0.0015 -6.21e-4,0.0022 -0.0029,0.01112 -0.0058,0.02217 -0.0087,0.0333 -0.01455,0.0577 -0.02823,0.115716 -0.04139,0.173863 -9.31e-4,0.0041 -0.002,0.0081 -0.0029,0.01217 -0.01324,0.05895 -0.02573,0.117992 -0.03754,0.177385 -0.0038,0.01938 -0.0075,0.03884 -0.01123,0.05827 -0.0065,0.03436 -0.01286,0.06892 -0.01893,0.103422 -0.0052,0.0294 -0.01025,0.05888 -0.01508,0.08837 -0.0062,0.03819 -0.01231,0.07658 -0.01797,0.114948 -0.0045,0.03005 -0.0088,0.06014 -0.01283,0.09029 -0.0033,0.02443 -0.0062,0.04915 -0.0093,0.07364 -0.0052,0.041 -0.01,0.08209 -0.01444,0.123274 -0.0015,0.01376 -0.0027,0.02753 -0.0042,0.0413 -0.07058,0.686868 -0.04823,1.398496 0.07797,2.126061 6.1e-4,0.0035 0.0013,0.0071 0.0019,0.01057 4.83e-4,0.0028 8.07e-4,0.0056 0.0013,0.0083 0.01171,0.06662 0.02408,0.13323 0.03754,0.200119 8.7e-4,0.0043 0.002,0.0085 0.0029,0.01281 0.02786,0.137375 0.05905,0.275321 0.09433,0.413686 5.73e-4,0.0022 0.0014,0.0045 0.0019,0.0067 0.01767,0.06906 0.0363,0.13821 0.05583,0.207483 0.01858,0.0659 0.03797,0.131528 0.0584,0.196597 0.0018,0.0058 0.0037,0.01152 0.0055,0.01729 0.01828,0.05773 0.03742,0.115181 0.05711,0.172262 0.0052,0.0149 0.0105,0.02966 0.01572,0.04451 0.01766,0.05008 0.03583,0.09996 0.05455,0.149529 0.0045,0.01177 0.009,0.02348 0.01347,0.03522 0.01888,0.04923 0.03817,0.09825 0.05807,0.146967 0.03743,0.09159 0.07704,0.182124 0.118076,0.271842 v 6.19e-4 c 0.01534,0.03352 0.03102,0.06696 0.04685,0.10022 0.01429,0.03003 0.02895,0.05984 0.04364,0.08965 0.01455,0.02954 0.02934,0.05905 0.04428,0.08837 0.01408,0.02763 0.02825,0.05518 0.04267,0.08261 0.01714,0.03262 0.03436,0.06499 0.05198,0.09734 0.0057,0.01045 0.01126,0.02096 0.01701,0.03138 l -11.754055,20.67339 3.06774,1.763924 c -0.983351,1.164034 -2.561494,3.334221 -3.416194,6.160136 -0.948425,3.135799 -3.029564,6.937599 -2.981107,9.352426 0.0385,1.91841 -0.566482,3.82682 -0.265351,5.48198 0.301131,1.65515 1.829782,3.85065 3.682507,4.98631 2.125791,1.30305 5.789185,-0.0189 8.470055,-0.62373 0.680456,-0.15352 0.939375,-0.36768 1.600128,-0.57538 -0.502516,2.14656 -0.603851,4.28869 -0.589099,6.1246 0.01276,1.58775 0.613786,3.75723 1.766975,5.23798 1.15319,1.48077 3.14545,3.00012 4.267113,3.26498 1.121664,0.26487 2.749076,0.65754 3.897163,0.64679 2.66243,-0.025 4.579765,-0.73178 6.26254,-2.16609 1.986561,-1.69324 3.180788,-4.12484 4.006897,-6.15501 0.826108,-2.03017 1.075182,-3.96559 1.261941,-5.4522 0.181499,-1.44472 0.57345,-3.5116 0.777443,-5.37663 0.07444,-0.68054 0.142486,-1.22335 0.211126,-1.762 0.242355,0.2198 0.450754,0.37236 0.706854,0.64614 0.1171,0.12519 0.193675,0.27547 0.305779,0.41016 0.02733,1.21304 0.0028,2.28026 0.03209,3.56148 0.03336,1.45924 0.2538,2.9875 0.524927,4.13333 0.135564,0.57292 0.534785,2.81547 0.735411,3.42635 0.398924,1.2147 0.47076,1.38345 0.51915,1.46263 0.222179,0.36359 0.386332,0.35804 0.588457,0.59715 0.101064,0.11956 0.277261,0.41771 0.902258,0.44891 0.312498,0.0156 0.673826,-0.12732 0.873059,-0.2965 0.199233,-0.16917 0.28016,-0.32615 0.331128,-0.43801 0.203871,-0.44746 0.120201,-0.49266 0.120001,-0.59652 -0.0013,-0.6755 -0.343632,-2.45474 -0.692415,-4.13909 -0.261796,-1.26427 -0.513356,-2.56827 -0.720651,-4.38212 -0.140825,-1.23223 -0.389599,-3.39639 -0.56343,-4.65589 0.245858,0.51402 0.703986,1.04482 1.33959,1.22569 1.330017,0.37848 2.58545,-0.0775 3.739941,-0.65607 0.05751,-0.0288 0.104116,-0.073 0.161392,-0.10278 -0.34091,1.97586 0.06583,3.8207 0.739903,5.60429 1.071454,2.83506 4.035627,4.89665 6.151527,5.22422 2.115902,0.32756 4.284407,0.0911 6.011302,-0.3679 3.540299,-0.94107 7.286341,-3.73929 6.899451,-9.0966 -0.14389,-1.99243 -0.36365,-3.83243 -1.25521,-5.41442 -0.891557,-1.581977 -1.994713,-2.926695 -2.591579,-3.686021 -0.61943,-0.788027 -1.369212,-1.029456 -1.962055,-1.152045 0.07591,-0.141431 0.100238,-0.248127 0.338503,-0.477078 0.369585,-0.355145 0.918264,-0.726915 1.536278,-0.999318 1.236035,-0.544788 2.655753,-0.671516 3.737693,-0.05347 0.3101,0.177127 0.58332,0.61735 0.7492,1.535946 0.16588,0.918603 0.17747,2.17652 0.1553,3.498396 -0.0222,1.32188 -0.31025,2.76116 -0.19284,4.052 0.11744,1.29086 0.28638,4.15835 1.21382,5.1192 2.61212,2.70624 6.20552,2.67592 8.763,1.36209 1.51965,-0.78068 2.28293,-3.41615 2.73597,-4.85024 0.0667,-0.21115 0.0856,-0.40931 0.13957,-0.61957 0.227,0.30609 0.61062,0.91012 0.95713,1.19752 1.09996,0.9123 2.33322,1.43304 3.79705,1.65217 1.46383,0.21913 3.22154,-0.34856 4.31781,-1.55132 0.51136,-0.56101 0.80446,-1.27912 0.84162,-1.95187 0.0372,-0.67276 -0.12964,-1.26859 -0.33594,-1.8094 -0.41263,-1.08161 -0.7933,-2.03779 -1.11146,-2.975842 -0.37662,-1.110457 -1.1146,-2.676943 -1.78206,-4.184561 -0.45783,-1.034128 -1.01062,-1.980718 -1.64793,-2.830482 0.74326,0.112811 1.49749,0.09525 2.24954,-0.07044 0.023,1.760751 0.11238,3.225846 0.56921,4.659086 0.53769,1.686938 1.99728,4.376939 3.36807,5.635349 1.37077,1.25841 3.64472,1.59176 5.62146,1.19687 1.71178,-0.34196 3.47835,-1.40221 4.38518,-2.95087 0.78816,-1.345979 1.24615,-3.273677 0.98633,-5.60397 0.6517,0.35061 0.76225,0.679001 1.40472,0.998996 2.53343,1.261821 4.76253,2.165125 4.76253,2.165125 l 1.67071,-4.026711 c 0,0 -1.36266,-1.030305 -3.53619,-1.824125 -1.11001,-0.405395 -2.65735,-1.44233 -3.82176,-2.863779 -1.16442,-1.421443 -2.63814,-3.904717 -3.48165,-5.473006 -0.84351,-1.56829 -0.95819,-1.809756 -2.17735,-4.355864 -2.43835,-5.092234 -4.90884,-9.456172 -4.90884,-9.456172 -0.73762,0.08165 -1.48325,-0.469227 -2.26912,0.972737 0,0 2.44878,7.973233 3.59074,11.340485 0.1527,0.450249 0.20551,0.861556 0.31284,1.292609 -0.0241,0.0025 -0.0497,-0.0019 -0.0738,0.0012 -0.70655,0.08253 -1.40797,0.252372 -2.07757,0.439939 -0.66959,0.187567 -1.22446,0.419051 -1.91232,0.934637 -1.28658,0.964423 -1.82829,2.485957 -2.13917,4.088188 -0.17326,0.117298 -0.35712,0.32771 -0.52397,0.388388 -0.65476,0.23812 -2.70545,-0.177561 -4.56455,-0.681362 -0.92954,-0.2519 -1.80728,-0.497462 -2.70773,-0.503343 -0.45023,-0.0031 -0.94354,0.04926 -1.43488,0.343566 -0.49135,0.294306 -0.86831,0.881085 -0.96772,1.441177 -0.0737,0.415148 -0.0926,0.845879 0.0741,1.29997 0.16668,0.454096 0.57377,0.852911 0.9568,1.029728 0.76607,0.353646 1.33014,0.228876 1.87126,0.182833 1.08225,-0.09209 1.93205,-0.09858 2.23382,0.160732 0.55478,0.476719 1.30946,1.703488 1.91458,3.070307 0.60511,1.366812 1.11434,2.865198 1.49167,3.977725 0.43579,1.28492 0.15205,1.18696 0.21818,1.97268 0.0355,0.4209 -0.0386,0.64577 -0.0921,0.79055 -0.10144,0.27464 -0.20629,0.46654 -0.45915,0.59748 -0.37391,0.19362 -0.78131,0.71977 -1.56419,0.67208 -1.02892,-0.0627 -0.98035,-0.0499 -1.81222,-0.60548 -0.11918,-0.0796 -0.43303,-0.48937 -0.68664,-1.14372 -0.25361,-0.65435 -0.4724,-1.49648 -0.69113,-2.31721 -0.21873,-0.820736 -0.41288,-1.604147 -0.79541,-2.316259 -0.19127,-0.356057 -0.43591,-0.734295 -0.91926,-1.014363 -0.48336,-0.280061 -1.21157,-0.292323 -1.70762,-0.0714 -0.32918,0.146605 -0.64898,0.328019 -0.92279,0.681362 -0.27382,0.353342 -0.3988,0.921124 -0.32022,1.328787 0.15714,0.815323 0.56815,1.092453 0.87081,1.409803 0.60533,0.6347 0.97759,1.13523 0.97381,1.33615 -0.0152,0.80735 -0.1531,2.08944 -0.50343,3.19837 -0.35032,1.10895 -1.04187,1.48735 -1.6351,1.79211 -1.66831,0.85705 -4.28792,0.1799 -5.02306,-0.9055 -0.73515,-1.08539 -0.87954,-0.99214 -0.97573,-2.04953 -0.0962,-1.0574 -0.0576,-2.38422 -0.035,-3.73342 0.0226,-1.349198 0.0348,-2.719487 -0.19283,-3.980278 -0.22767,-1.260805 -0.74254,-2.550656 -1.9611,-3.246727 -1.97539,-1.128388 -4.227778,-0.833611 -5.973759,-0.06404 -0.873,0.384781 -1.642228,0.892721 -2.255648,1.482164 -0.319069,0.306593 -0.59922,0.637791 -0.822042,1.00347 -0.01987,-0.0043 -0.03819,-0.01524 -0.05806,-0.01952 -1.492132,-0.324308 -3.13007,-0.192957 -4.450646,0.153693 -1.112793,0.292107 -1.846258,1.019456 -2.478965,1.820277 -0.21607,0.10656 -0.449126,0.136933 -0.651024,0.291698 -1.245,0.954335 -2.160865,2.494743 -2.904423,4.174953 -0.846318,0.59889 -1.729164,1.21803 -2.520032,1.6144 -0.765991,0.3839 -1.345496,0.48879 -1.707616,0.4742 -0.01024,-0.18703 -0.01073,-0.43844 -0.0083,-0.82384 0.0029,-0.47426 0.08924,-1.15723 -0.569846,-1.84558 -0.329543,-0.34418 -0.841351,-0.53769 -1.277022,-0.55905 -0.435671,-0.0214 -0.827384,0.0668 -1.252957,0.21036 -0.819296,0.27633 -1.275118,0.98165 -1.513175,1.62913 -0.02156,0.0586 -0.01475,0.13165 -0.03401,0.19115 -0.154284,-0.12902 -0.326966,-0.32279 -0.472947,-0.43097 -0.267014,-0.19789 -0.507644,-0.35952 -0.796695,-0.49245 -0.144525,-0.0665 -0.298416,-0.13242 -0.543536,-0.16714 -0.245121,-0.0347 -0.690437,-0.0428 -1.10087,0.30513 -0.337004,0.28569 -0.369307,0.46897 -0.42931,0.61957 -0.06,0.1506 -0.09508,0.27909 -0.128665,0.41625 -0.06716,0.27432 -0.119386,0.57569 -0.171018,0.92471 -0.103265,0.69805 -0.198474,1.57329 -0.300646,2.50741 -0.204343,1.86822 -0.452029,4.01361 -0.714234,5.02698 -0.328711,1.2704 -0.74104,3.19459 -1.456703,4.95334 -0.715662,1.75875 -1.7213,3.23105 -2.957685,3.79361 -1.395183,0.63482 -2.570051,1.07884 -4.261659,0.94905 -0.845804,-0.0649 -2.00427,-0.13399 -3.009665,-0.62822 -1.005394,-0.49423 -1.705324,-1.059 -2.100989,-1.78794 -0.429241,-0.79488 -1.298896,-1.80587 -1.557132,-3.1654 -0.332553,-1.75078 -0.325371,-3.65027 -0.276902,-5.89694 0.973094,-0.41201 1.924009,-0.84227 2.676291,-1.28044 3.674905,-2.14044 5.993711,-5.0592 7.107043,-7.93591 0.519078,-1.341232 1.225533,-3.062143 1.519592,-4.709674 0.147029,-0.82376 0.240484,-1.915647 0.01765,-2.745305 -0.22284,-0.82967 -0.676382,-2.540054 -1.555207,-2.960797 -0.876221,-0.419498 -2.340429,-0.149474 -3.230416,0.136077 -0.889988,0.285546 -1.874961,1.224545 -2.395218,1.845898 -1.040514,1.242706 -2.012222,2.269107 -2.71704,3.331576 -1.372981,2.06968 -1.685032,3.082983 -3.463681,10.488465 -0.166873,0.69478 -0.232664,1.37769 -0.311876,2.06202 -0.868168,0.30908 -1.747455,0.62581 -2.64228,0.8277 -2.384219,0.53791 -4.63827,0.48614 -5.731196,-0.1838 -1.365994,-0.83731 -1.731611,-1.5563 -1.94409,-2.72417 -0.212478,-1.16787 -0.679845,-2.87869 -0.141819,-4.86625 0.563393,-2.081267 0.873454,-5.21722 1.828579,-8.266664 0.610293,-1.948499 2.162775,-4.243821 3.208919,-5.655196 l 1.957885,1.125787 13.527126,-20.412432 c 0.491628,-0.05204 0.982868,-0.143035 1.468254,-0.276965 1.485569,-0.409903 2.745326,-1.218671 3.730958,-2.253177 0.01498,-0.01572 0.02975,-0.03157 0.0446,-0.04739 0.02966,-0.03161 0.05908,-0.0634 0.08824,-0.09542 0.0097,-0.01061 0.01927,-0.02137 0.02888,-0.03202 h 3.21e-4 c 0.37978,0.06715 0.603537,0.100539 0.603537,0.100539 0.808601,-0.782125 1.312436,-1.815573 1.666225,-2.793978 0,0 -0.215451,-0.01779 -0.580114,-0.05827 6.21e-4,-0.0016 0.0013,-0.0032 0.0019,-0.0048 0.0052,-0.01344 0.01028,-0.02689 0.0154,-0.04034 0.0081,-0.02133 0.01613,-0.04267 0.02407,-0.06404 0.0079,-0.02135 0.01598,-0.04264 0.02374,-0.06404 0.01626,-0.04482 0.03198,-0.0898 0.04749,-0.134799 0.005,-0.01443 0.01019,-0.02878 0.01508,-0.04322 0.01947,-0.05748 0.03825,-0.115174 0.05647,-0.172902 6.21e-4,-0.002 0.0013,-0.004 0.0019,-0.0061 0.01958,-0.06218 0.03835,-0.124553 0.05647,-0.186991 4.04e-4,-0.0014 8.69e-4,-0.0028 0.0013,-0.0042 0.01675,-0.05781 0.03263,-0.115551 0.04813,-0.173543 0.0032,-0.01206 0.0065,-0.02412 0.0096,-0.03618 0.01524,-0.05804 0.02999,-0.11599 0.04396,-0.174183 0.0034,-0.01431 0.0066,-0.02859 0.0099,-0.04291 0.01186,-0.05055 0.02344,-0.101133 0.03433,-0.15177 4.58e-4,-0.0021 8.07e-4,-0.0043 0.0013,-0.0064 0.01348,-0.06289 0.0262,-0.125919 0.03818,-0.188912 4e-5,-2.08e-4 -3.9e-5,-4.34e-4 0,-6.2e-4 0.02381,-0.125227 0.04473,-0.250479 0.06257,-0.375903 0.0014,-0.01013 0.0028,-0.02029 0.0042,-0.03042 0.0077,-0.05578 0.01498,-0.111682 0.0215,-0.167459 0.003,-0.02576 0.0056,-0.05141 0.0083,-0.07717 0.0032,-0.02994 0.0061,-0.05972 0.009,-0.08965 0.0024,-0.02544 0.0049,-0.05078 0.0071,-0.07621 0.0038,-0.04455 0.0072,-0.08901 0.01027,-0.133519 0.0013,-0.01899 0.0024,-0.03801 0.0035,-0.05699 0.0029,-0.04683 0.0054,-0.0938 0.0074,-0.140563 0.0011,-0.0249 0.0017,-0.04974 0.0025,-0.0746 0.0011,-0.03527 0.0022,-0.07045 0.0029,-0.105662 5.91e-4,-0.03153 7.45e-4,-0.06298 9.93e-4,-0.09446 4.3e-5,-0.0073 -2.1e-5,-0.01476 0,-0.0221 3.5e-5,-0.01099 3.36e-4,-0.02199 3.21e-4,-0.03298 -9e-6,-0.0061 2.5e-5,-0.01216 0,-0.01825 -1.83e-4,-0.04872 -0.0011,-0.09742 -0.0022,-0.146006 -2.35e-4,-0.0099 -3.67e-4,-0.0196 -6.21e-4,-0.02946 -2.29e-4,-0.0083 -3.83e-4,-0.01666 -6.21e-4,-0.02498 -9e-5,-0.0028 -2.27e-4,-0.0058 -3.21e-4,-0.0086 -0.0017,-0.05175 -0.004,-0.103405 -0.0067,-0.154972 -5.8e-5,-0.0011 -2.63e-4,-0.0021 -3.21e-4,-0.0032 -0.0029,-0.05326 -0.0062,-0.106409 -0.01027,-0.159454 -0.0014,-0.01806 -0.003,-0.03608 -0.0045,-0.05411 -0.04487,-0.530545 -0.148696,-1.049165 -0.316368,-1.544277 -0.250819,-0.740639 -0.607058,-1.433016 -1.047286,-2.063945 -0.0065,-0.0094 -0.01331,-0.01851 -0.01989,-0.02786 -0.01068,-0.01517 -0.02131,-0.03037 -0.03209,-0.04547 -0.0044,-0.0062 -0.009,-0.01237 -0.01347,-0.01857 -0.03054,-0.04255 -0.06143,-0.08482 -0.09273,-0.126795 -0.0048,-0.0065 -0.0099,-0.01303 -0.01476,-0.01953 -1.639597,-2.185527 -4.309259,-3.574041 -7.073353,-3.57108 z m 46.696001,3.109685 c 0.4517,1.233115 0.46352,4.007854 0.42642,5.741007 -0.0466,2.177441 0.27764,1.725708 -0.42289,4.411898 -0.34708,1.330862 -0.71296,3.068174 -1.78013,4.11124 -1.96997,1.354326 -3.89175,0.821522 -4.44583,-1.461027 -0.55152,-2.721875 -0.21559,-3.223386 0.32984,-5.048436 0.54544,-1.82505 0.75295,-2.044952 1.04761,-2.842007 0.29465,-0.797053 1.83135,-2.000491 2.41254,-2.899 0.23068,-0.377565 1.14271,-1.049463 2.23607,-1.859984 0.0672,-0.04985 0.1289,-0.103513 0.19637,-0.153691 z m 21.83483,33.455056 c 0.0914,-0.0019 0.18027,6.2e-4 0.26599,0.0074 0.17434,0.09135 0.98402,0.04777 1.15606,0.139604 1.0653,0.799669 1.3491,1.14376 2.48409,2.445291 0.64852,0.743676 1.16569,1.865856 1.62516,2.993779 -0.43311,1.731513 -0.2361,3.209495 -1.3521,5.185795 -0.5359,0.971956 -1.43307,1.279268 -2.69716,1.531796 -0.99911,0.19959 -2.25795,0.15448 -3.26923,-0.773907 -1.01129,-0.928386 -1.38873,-1.36848 -1.93479,-2.702403 -0.50818,-1.241368 -0.90142,-3.29562 -0.22685,-5.622214 0.63242,-2.181185 2.57801,-3.177064 3.94883,-3.205102 z m -67.376057,5.209488 c 0.07524,-0.0012 0.152927,0.02658 0.283319,0.08901 0.25818,0.123605 0.303088,0.193267 0.379577,0.478044 0.07649,0.284783 0.08341,0.791986 -0.02663,1.408518 -0.220084,1.233071 -0.859196,2.836455 -1.392211,4.213702 -0.990852,2.560243 -2.593591,5.194933 -5.669591,6.986543 -0.295681,0.17222 -0.747599,0.34642 -1.103437,0.52383 0.02541,-0.1192 0.02466,-0.23792 0.05326,-0.35701 1.738703,-7.239166 2.025025,-6.799711 3.268277,-8.956353 0.729669,-1.265743 1.693538,-2.470312 2.477679,-3.406827 0.392072,-0.468254 1.216633,-0.777778 1.459912,-0.890447 0.121639,-0.05632 0.194604,-0.08749 0.269843,-0.08901 z m 31.22158,4.756427 c 0.01316,0.0025 0.03328,-3.1e-4 0.04619,0.0025 0.03961,0.0086 0.03651,0.02175 0.0738,0.03135 -0.04359,-0.01314 -0.07458,-0.01964 -0.120001,-0.03364 z m -4.229575,1.516416 c 0.08057,-0.0084 0.169717,-0.0093 0.271446,0.0012 0.706648,0.07331 1.569204,0.333831 2.415431,0.616044 0.846227,0.28222 1.642719,0.59613 2.516507,0.68008 0.436892,0.0419 0.950092,0.0354 1.474666,-0.26511 0.265821,-0.15228 0.485725,-0.38563 0.652313,-0.649987 0.625186,0.792827 1.452736,1.816697 2.127296,3.013627 0.754805,1.33932 1.184388,2.72925 0.985681,3.70524 -0.466316,2.29035 -3.028342,4.53709 -5.773546,5.26681 -1.41586,0.37635 -3.325691,0.57136 -4.991619,0.31346 -1.665931,-0.2579 -3.004361,-0.91216 -3.737372,-2.1251 -0.673082,-1.11377 -0.699644,-3.27126 -0.08118,-5.37663 0.116806,-0.39763 0.331548,-0.72829 0.487386,-1.11106 1.180948,-0.94521 1.911762,-2.25148 2.626879,-3.35463 0.143704,-0.221682 0.273112,-0.350919 0.413268,-0.543362 0.205245,-0.0531 0.371119,-0.145539 0.612842,-0.170664 z" />
    <g
       id="g114973"
       style="stroke-width:1.61225"
       transform="matrix(0.62090149,0,0,0.6196055,26.051572,10.380522)">
      <g
         id="g106337"
         transform="matrix(1.4855711,-0.41076112,0.43117771,1.4152281,-76.682983,-29.886505)"
         style="stroke-width:1.06784">
        <path
           style="fill:#1a1a1a;stroke-width:1.41267"
           d="m 52.660774,96.855186 -18.07154,18.340524 5.926453,6.43443 20.272796,-18.00186 z"
           id="path83732"
           sodipodi:nodetypes="ccccc" />
        <path
           id="path83676"
           style="fill:#808080;stroke-width:1.41267"
           d="m 70.778788,95.077255 c 0.126998,4.380489 -3.903266,9.143675 -8.953178,9.143675 -5.049912,0 -9.435181,-4.235078 -9.334164,-9.143675 0.105829,-5.14246 4.100585,-8.627233 9.143671,-8.889681 4.880583,-0.253991 9.001392,3.982108 9.143671,8.889681 z"
           sodipodi:nodetypes="sssss" />
        <path
           id="path83962"
           style="fill:#333333;stroke-width:1.41267"
           d="m 60.258854,102.85212 -1.803507,0.36122 -0.03876,0.34881 c 0.553356,0.21991 1.130223,0.38843 1.723409,0.50023 z" />
        <path
           id="path83801"
           style="fill:#333333;stroke-width:1.41267"
           d="m 54.369808,95.827226 -1.803508,0.361218 -0.0098,0.08785 c 0.0724,0.56352 0.202613,1.11365 0.384989,1.644344 l 1.243335,-0.21084 z" />
        <path
           id="path83898"
           style="fill:#333333;stroke-width:1.41267"
           d="m 58.401086,101.21088 -1.803507,0.3607 -0.106454,0.95808 c 0.356181,0.24614 0.729294,0.46918 1.117245,0.66662 l 0.607715,-0.10283 z" />
        <path
           id="path83892"
           style="fill:#333333;stroke-width:1.41267"
           d="M 55.268978,97.798682 53.46547,98.1599 53.37659,98.961401 c 0.157121,0.316652 0.333671,0.623692 0.5271,0.920358 l 1.180289,-0.200505 z" />
        <path
           id="path83894"
           style="fill:#333333;stroke-width:1.41267"
           d="m 56.558305,99.649731 -1.803508,0.360699 -0.09715,0.87385 c 0.244069,0.28308 0.505366,0.55232 0.781864,0.80615 l 0.933793,-0.15813 z" />
        <path
           id="path83791"
           style="fill:#333333;stroke-width:1.41267"
           d="m 53.657707,90.765002 c -0.237398,0.412232 -0.441569,0.847941 -0.610299,1.305347 l 0.490409,-0.0832 z" />
        <path
           style="fill:#333333;stroke-width:1.41267"
           d="m 55.161751,91.835631 -1.803294,0.360885 -0.202889,1.830253 1.821251,-0.30868 z"
           id="path83793"
           sodipodi:nodetypes="ccccc" />
        <path
           id="path83797"
           style="fill:#333333;stroke-width:1.41267"
           d="m 53.155412,93.996847 -0.59738,0.119372 c -0.03749,0.313366 -0.05993,0.633991 -0.06666,0.961182 -0.0061,0.295405 0.0044,0.588232 0.02997,0.877982 l 0.449068,-0.07596 z" />
        <path
           style="fill:#333333;stroke-width:1.41267"
           d="m 56.375217,93.637195 -1.803295,0.360885 -0.202889,1.830252 1.821251,-0.30868 z"
           id="path83799"
           sodipodi:nodetypes="ccccc" />
        <path
           style="fill:#333333;stroke-width:1.41267"
           d="m 57.318442,95.661133 -1.803294,0.360885 -0.20289,1.830253 1.821252,-0.308681 z"
           id="path83888"
           sodipodi:nodetypes="ccccc" />
        <path
           style="fill:#333333;stroke-width:1.41267"
           d="m 58.65408,97.6382 -1.803294,0.360885 -0.202889,1.830253 1.821251,-0.30868 z"
           id="path83890"
           sodipodi:nodetypes="ccccc" />
        <path
           style="fill:#333333;stroke-width:1.41267"
           d="m 60.496142,99.230232 -1.803295,0.360885 -0.202889,1.830263 1.821251,-0.30869 z"
           id="path83896"
           sodipodi:nodetypes="ccccc" />
        <path
           style="fill:#333333;stroke-width:1.41267"
           d="m 59.054385,87.48329 -1.803294,0.360885 -0.202889,1.830253 1.821251,-0.30868 z"
           id="path83904"
           sodipodi:nodetypes="ccccc" />
        <path
           id="path83906"
           style="fill:#333333;stroke-width:1.41267"
           d="m 55.834318,88.268514 c -0.733557,0.573411 -1.369836,1.253701 -1.885156,2.027266 l 1.714624,-0.290421 z" />
        <path
           style="fill:#333333;stroke-width:1.41267"
           d="m 56.689005,90.183291 -1.803295,0.360884 -0.202889,1.830253 1.821251,-0.30868 z"
           id="path83908"
           sodipodi:nodetypes="ccccc" />
        <path
           style="fill:#333333;stroke-width:1.41267"
           d="m 60.297785,89.524319 -1.803295,0.360885 -0.202889,1.830252 1.821251,-0.30868 z"
           id="path83910"
           sodipodi:nodetypes="ccccc" />
        <path
           style="fill:#333333;stroke-width:1.41267"
           d="m 58.322212,91.684598 -1.803295,0.360884 -0.202889,1.830253 1.821251,-0.30868 z"
           id="path83912"
           sodipodi:nodetypes="ccccc" />
        <path
           style="fill:#333333;stroke-width:1.41267"
           d="m 61.407284,91.494889 -1.803294,0.360885 -0.20289,1.830252 1.821252,-0.30868 z"
           id="path83916"
           sodipodi:nodetypes="ccccc" />
        <path
           style="fill:#333333;stroke-width:1.41267"
           d="m 63.085512,93.136193 -1.803294,0.360885 -0.202889,1.830253 1.821251,-0.30868 z"
           id="path83918"
           sodipodi:nodetypes="ccccc" />
        <path
           style="fill:#333333;stroke-width:1.41267"
           d="m 59.939896,93.207096 -1.803294,0.360885 -0.202889,1.830253 1.821251,-0.308681 z"
           id="path83920"
           sodipodi:nodetypes="ccccc" />
        <path
           style="fill:#333333;stroke-width:1.41267"
           d="m 61.049396,95.267465 -1.803295,0.360884 -0.202889,1.830253 1.821251,-0.30868 z"
           id="path83922"
           sodipodi:nodetypes="ccccc" />
        <path
           style="fill:#333333;stroke-width:1.41267"
           d="m 64.628243,94.818025 -1.803295,0.360885 -0.202889,1.830252 1.821251,-0.30868 z"
           id="path83924"
           sodipodi:nodetypes="ccccc" />
        <path
           style="fill:#333333;stroke-width:1.41267"
           d="m 62.532938,96.738839 -1.803295,0.360884 -0.202889,1.830253 1.821251,-0.30868 z"
           id="path83926"
           sodipodi:nodetypes="ccccc" />
        <path
           id="path83936"
           style="fill:#333333;stroke-width:1.41267"
           d="m 60.948735,86.243831 c -0.625208,0.07017 -1.231612,0.19075 -1.813326,0.358635 l -0.111105,1.000456 1.821594,-0.308509 z" />
        <path
           id="path83938"
           style="fill:#333333;stroke-width:1.41267"
           d="m 62.45717,86.188021 -0.123507,1.115177 1.821594,-0.308508 0.05116,-0.521932 C 63.642456,86.315406 63.057116,86.218487 62.45717,86.188021 Z" />
        <path
           style="fill:#333333;stroke-width:1.41267"
           d="m 62.334579,87.302323 -1.803295,0.360884 -0.202889,1.830253 1.821251,-0.30868 z"
           id="path83940"
           sodipodi:nodetypes="ccccc" />
        <path
           style="fill:#333333;stroke-width:1.41267"
           d="m 65.360463,86.902156 -1.803294,0.360885 -0.20289,1.830252 1.821252,-0.30868 z"
           id="path83944"
           sodipodi:nodetypes="ccccc" />
        <path
           style="fill:#333333;stroke-width:1.41267"
           d="m 67.038691,88.663193 -1.803294,0.360885 -0.202889,1.830253 1.821251,-0.30868 z"
           id="path83946"
           sodipodi:nodetypes="ccccc" />
        <path
           style="fill:#333333;stroke-width:1.41267"
           d="m 63.294413,89.422557 -1.803294,0.360885 -0.202889,1.830253 1.821251,-0.308681 z"
           id="path83948"
           sodipodi:nodetypes="ccccc" />
        <path
           style="fill:#333333;stroke-width:1.41267"
           d="m 65.092374,90.854331 -1.803295,0.360884 -0.202889,1.830253 1.821251,-0.30868 z"
           id="path83950"
           sodipodi:nodetypes="ccccc" />
        <path
           style="fill:#333333;stroke-width:1.41267"
           d="m 68.85082,90.255225 -1.803295,0.360885 -0.202889,1.830252 1.821251,-0.30868 z"
           id="path83952"
           sodipodi:nodetypes="ccccc" />
        <path
           style="fill:#333333;stroke-width:1.41267"
           d="m 66.516049,92.595103 -1.803295,0.360884 -0.202889,1.830253 1.821251,-0.30868 z"
           id="path83954"
           sodipodi:nodetypes="ccccc" />
        <path
           style="fill:#333333;stroke-width:1.41267"
           d="m 62.234915,100.63115 -1.803294,0.36088 -0.20289,1.83025 1.821252,-0.30868 z"
           id="path83958"
           sodipodi:nodetypes="ccccc" />
        <path
           style="fill:#333333;stroke-width:1.41267"
           d="m 64.152608,101.76359 -1.803294,0.36088 -0.202889,1.83025 1.821251,-0.30868 z"
           id="path83960"
           sodipodi:nodetypes="ccccc" />
        <path
           style="fill:#333333;stroke-width:1.41267"
           d="m 66.307148,96.308738 -1.803294,0.360885 -0.20289,1.830252 1.821252,-0.30868 z"
           id="path83972"
           sodipodi:nodetypes="ccccc" />
        <path
           style="fill:#333333;stroke-width:1.41267"
           d="m 68.164975,97.620778 -1.803294,0.360885 -0.202889,1.830253 1.821251,-0.30868 z"
           id="path83974"
           sodipodi:nodetypes="ccccc" />
        <path
           style="fill:#333333;stroke-width:1.41267"
           d="m 64.061499,98.380142 -1.803294,0.360885 -0.202889,1.830253 1.821251,-0.30868 z"
           id="path83976"
           sodipodi:nodetypes="ccccc" />
        <path
           style="fill:#333333;stroke-width:1.41267"
           d="m 66.42819,99.27312 -1.803295,0.360884 -0.202889,1.830256 1.821251,-0.30868 z"
           id="path83978"
           sodipodi:nodetypes="ccccc" />
        <path
           id="path83980"
           style="fill:#333333;stroke-width:1.41267"
           d="m 70.138354,98.366606 -1.694986,0.338997 -0.203089,1.830377 0.735873,-0.12505 c 0.472951,-0.639389 0.865432,-1.328802 1.162202,-2.044324 z" />
        <path
           style="fill:#333333;stroke-width:1.41267"
           d="m 66.279189,100.10523 -1.803294,0.36088 -0.202889,1.83025 1.821251,-0.30868 z"
           id="path104886"
           sodipodi:nodetypes="ccccc" />
        <path
           id="path83982"
           style="fill:#333333;stroke-width:1.41267"
           d="m 68.061479,100.77421 -1.803508,0.36122 -0.202571,1.83038 0.188619,-0.032 c 0.632666,-0.38991 1.216627,-0.85427 1.740462,-1.37511 z" />
        <path
           style="fill:#1a1a1a;stroke-width:1.41267"
           d="m 54.735033,87.986672 c 0,0 1.541026,6.371828 4.021522,9.376496 2.480496,3.004672 8.275871,5.714802 8.275871,5.714802 1.047289,-0.58797 1.866301,-1.52884 2.518742,-2.45525 0,0 -5.643312,-2.169629 -8.085376,-4.952823 -2.442065,-2.783195 -4.529504,-9.249501 -4.529504,-9.249501 -0.992476,0.378356 -1.716724,0.905728 -2.201255,1.566276 z"
           id="path83788"
           sodipodi:nodetypes="czcczcc" />
        <path
           id="path83986"
           style="fill:#333333;stroke-width:1.41267"
           d="m 70.099597,91.873979 -1.46296,0.292488 -0.203088,1.83038 1.821594,-0.308509 0.106454,-1.085722 c -0.07729,-0.24702 -0.165148,-0.490057 -0.262,-0.728637 z" />
        <path
           style="fill:#333333;stroke-width:1.41267"
           d="m 68.314009,93.996941 -1.803294,0.360885 -0.202889,1.830253 1.821251,-0.308681 z"
           id="path83990"
           sodipodi:nodetypes="ccccc" />
        <path
           style="fill:#333333;stroke-width:1.41267"
           d="m 70.082038,95.368849 -1.803295,0.360884 -0.202889,1.830253 1.821251,-0.30868 z"
           id="path83992"
           sodipodi:nodetypes="ccccc" />
        <path
           id="path83996"
           style="fill:#333333;stroke-width:1.41267"
           d="m 70.646851,96.676786 -0.375688,0.07545 -0.195337,1.760616 c 0.260014,-0.597532 0.453117,-1.214378 0.571025,-1.836064 z" />
        <path
           style="fill:#808080;fill-opacity:1;stroke-width:1.41267"
           d="M 51.898803,89.70111 67.773232,86.018242"
           id="path104940" />
      </g>
      <path
         style="color:#000000;fill:#000000;stroke-width:1.61225;-inkscape-stroke:none"
         d="m 159.58203,99.214844 c 0,0 3.944,12.868216 5.7832,18.302736 0.24593,0.72667 0.33105,1.39025 0.50391,2.08594 -0.0389,0.004 -0.0804,-0.003 -0.11914,0.002 -1.13795,0.13319 -2.26744,0.40736 -3.34587,0.71008 -1.07843,0.30272 -1.97207,0.67655 -3.07991,1.50867 -2.07212,1.55651 -2.94462,4.01176 -3.44531,6.59765 -0.27905,0.18931 -0.57504,0.52903 -0.84375,0.62696 -1.05454,0.38431 -4.35738,-0.28651 -7.35157,-1.09961 -1.49709,-0.40655 -2.91109,-0.80301 -4.36132,-0.8125 -0.72512,-0.005 -1.51921,0.0797 -2.31055,0.55469 -0.79134,0.47499 -1.3985,1.42222 -1.5586,2.32617 -0.11866,0.67002 -0.1493,1.36478 0.11915,2.09765 0.26844,0.73288 0.92411,1.37674 1.54101,1.66211 1.2338,0.57076 2.14216,0.36924 3.01367,0.29493 1.74303,-0.14863 3.11164,-0.15875 3.59766,0.25976 0.8935,0.76939 2.1094,2.74913 3.08398,4.95508 0.97459,2.20595 1.79464,4.62439 2.40235,6.41992 0.70187,2.07377 0.24476,1.91566 0.35127,3.18376 0.0571,0.6793 -0.0623,1.04216 -0.14843,1.27583 -0.16337,0.44324 -0.33213,0.75273 -0.73938,0.96406 -0.6022,0.31249 -1.25859,1.16179 -2.51947,1.08482 -1.65714,-0.10115 -1.57882,-0.0805 -2.9186,-0.97722 -0.19194,-0.12847 -0.69701,-0.78963 -1.10547,-1.8457 -0.40846,-1.05607 -0.761,-2.41563 -1.11328,-3.74024 -0.35229,-1.3246 -0.66516,-2.58897 -1.28125,-3.73828 -0.30805,-0.57465 -0.702,-1.18471 -1.48047,-1.63672 -0.77847,-0.452 -1.95109,-0.47178 -2.75,-0.11523 -0.53016,0.23661 -1.04533,0.52934 -1.48633,1.09961 -0.44099,0.57027 -0.64217,1.48659 -0.51562,2.14453 0.25309,1.31588 0.91488,1.76321 1.40234,2.27539 0.97492,1.02436 1.57444,1.83199 1.56836,2.15625 -0.0244,1.30302 -0.24633,3.37235 -0.81055,5.16211 -0.56422,1.78976 -1.67809,2.40047 -2.63353,2.89233 -2.68692,1.38322 -6.90623,0.29043 -8.09022,-1.46133 -1.184,-1.75176 -1.41624,-1.60139 -1.57117,-3.30795 -0.15492,-1.70657 -0.0931,-3.84788 -0.0566,-6.02539 0.0364,-2.17752 0.0561,-4.38899 -0.31055,-6.42383 -0.36668,-2.03485 -1.19563,-4.11682 -3.1582,-5.24024 -3.18149,-1.82114 -6.80907,-1.34554 -9.62109,-0.10351 -1.40602,0.62101 -2.64487,1.44126 -3.63282,2.39258 -0.51388,0.49483 -0.96534,1.02896 -1.32421,1.61914 -0.032,-0.007 -0.0617,-0.0243 -0.0937,-0.0312 -2.40317,-0.52341 -5.0411,-0.31143 -7.16797,0.24804 -1.79222,0.47144 -2.973178,1.64502 -3.992191,2.9375 -0.347994,0.17198 -0.723657,0.22093 -1.048828,0.47071 -2.005151,1.54024 -3.480189,4.02653 -4.677735,6.73828 -1.363048,0.96656 -2.784852,1.96575 -4.058594,2.60547 -1.233676,0.61959 -2.166784,0.78916 -2.75,0.76562 -0.01649,-0.30185 -0.01751,-0.70805 -0.01367,-1.33008 0.0047,-0.76542 0.143531,-1.86756 -0.917969,-2.97851 -0.53075,-0.55548 -1.354965,-0.86788 -2.056641,-0.90235 -0.701676,-0.0345 -1.332165,0.10819 -2.017578,0.33985 -1.319528,0.44597 -2.054094,1.58392 -2.4375,2.6289 -0.03472,0.0946 -0.02367,0.21258 -0.05469,0.3086 -0.248485,-0.20823 -0.526608,-0.52071 -0.761719,-0.69531 -0.430044,-0.31938 -0.817668,-0.58039 -1.283203,-0.79493 -0.232768,-0.10726 -0.480218,-0.21349 -0.875,-0.26953 -0.394782,-0.056 -1.112411,-0.0693 -1.773438,0.49219 -0.542767,0.46107 -0.594766,0.75694 -0.691406,1 -0.09664,0.24306 -0.152948,0.45051 -0.207031,0.67187 -0.108168,0.44273 -0.192234,0.9289 -0.275391,1.49219 -0.166315,1.1266 -0.319821,2.53928 -0.484375,4.04688 -0.329108,3.01519 -0.728095,6.47778 -1.150391,8.11328 -0.529411,2.05034 -1.193083,5.15564 -2.345703,7.99414 -1.152619,2.8385 -2.772396,5.21511 -4.763672,6.12305 -2.247031,1.02456 -4.139461,1.74114 -6.863902,1.53166 -1.362221,-0.10474 -3.227784,-0.21644 -4.847035,-1.01409 -1.619251,-0.79765 -2.746575,-1.7093 -3.383818,-2.88577 -0.69132,-1.28289 -2.091731,-2.91459 -2.507636,-5.10878 -0.535598,-2.82565 -0.524499,-5.89119 -0.446437,-9.51716 1.567229,-0.66495 3.09895,-1.35924 4.310547,-2.06641 5.918666,-3.45453 9.653226,-8.16536 11.446318,-12.80818 0.836007,-2.16466 1.973666,-4.94189 2.447266,-7.60089 0.2368,-1.32949 0.387513,-3.09175 0.02862,-4.43077 -0.358897,-1.33903 -1.089273,-4.09954 -2.504676,-4.77859 -1.411209,-0.67704 -3.769299,-0.24089 -5.20268,0.21997 -1.433381,0.46085 -3.019751,1.97611 -3.857658,2.97893 -1.675814,2.00564 -3.24103,3.66196 -4.376184,5.37671 -2.211272,3.34032 -2.714031,4.97567 -5.578658,16.92761 -0.268759,1.12133 -0.374377,2.22366 -0.501953,3.32813 -1.39824,0.49883 -2.814688,1.01011 -4.25586,1.33594 -3.839935,0.86815 -7.470242,0.78435 -9.230468,-0.29688 -2.200019,-1.35137 -2.78865,-2.51161 -3.13086,-4.39648 -0.34221,-1.88487 -1.09504,-4.64574 -0.228515,-7.85352 0.90738,-3.35902 1.407023,-8.42019 2.945312,-13.34179 1.53829,-4.92161 6.81895,-11.25789 6.81895,-11.25789 l -3.742187,-1.40821 c 0,0 -4.810049,4.56439 -6.895122,11.47274 -1.527499,5.06097 -4.879297,11.19679 -4.801254,15.09416 0.062,3.09617 -0.91237,6.17618 -0.42738,8.84748 0.484991,2.6713 2.946587,6.21482 5.930517,8.04771 3.423721,2.10303 9.324156,-0.0308 13.641867,-1.00693 1.095917,-0.24777 1.512935,-0.5932 2.577119,-0.92841 -0.809334,3.46439 -0.972622,6.9215 -0.948862,9.88453 0.02055,2.56252 0.988501,6.06398 2.845785,8.45383 1.857285,2.38986 5.065773,4.84175 6.872282,5.26923 1.806509,0.42748 4.427893,1.06142 6.276959,1.04406 4.288012,-0.0403 7.375722,-1.18082 10.085938,-3.4957 3.199482,-2.73278 5.122803,-6.65751 6.453303,-9.93407 1.3305,-3.27656 1.732001,-6.40006 2.032788,-8.79933 0.292316,-2.33169 0.92341,-5.66772 1.251953,-8.67774 0.119886,-1.09835 0.229295,-1.97441 0.339844,-2.84375 0.390329,0.35475 0.726208,0.6011 1.138672,1.04297 0.188597,0.20205 0.311638,0.44472 0.492188,0.66211 0.04401,1.95776 0.0048,3.68016 0.05197,5.74797 0.05372,2.35512 0.408867,4.82172 0.845534,6.67102 0.218334,0.92465 0.860946,4.54395 1.184066,5.52988 0.642493,1.96044 0.758431,2.23239 0.836367,2.36019 0.357832,0.5868 0.6221,0.57812 0.947636,0.96404 0.16277,0.19296 0.446529,0.67425 1.453125,0.72461 0.503298,0.0252 1.085373,-0.20548 1.40625,-0.47852 0.320877,-0.27304 0.451116,-0.52649 0.533203,-0.70703 0.328348,-0.72216 0.19368,-0.79528 0.193359,-0.96289 -0.0021,-1.09022 -0.553341,-3.96189 -1.115078,-6.68032 -0.421639,-2.04044 -0.826889,-4.14474 -1.160752,-7.07218 -0.392892,-3.44503 -1.319862,-11.54907 -1.206898,-8.3995 0.176619,0.99793 1.052125,2.46265 2.457031,2.86328 2.142077,0.61084 4.164057,-0.12475 6.023437,-1.05859 0.09263,-0.0465 0.16752,-0.11792 0.259766,-0.16602 -0.549058,3.1889 0.105776,6.16634 1.191406,9.04492 1.725645,4.5756 6.499877,7.90273 9.90766,8.4314 3.4078,0.52867 6.90037,0.1471 9.68165,-0.59375 5.70187,-1.51881 11.73498,-6.03506 11.11186,-14.6814 -0.23174,-3.21564 -0.58557,-6.18506 -2.02149,-8.73828 -1.43592,-2.55322 -3.21253,-4.72372 -4.17382,-5.94922 -0.99763,-1.27182 -2.20535,-1.66152 -3.16016,-1.85937 0.12226,-0.22827 0.16118,-0.40002 0.54492,-0.76953 0.59524,-0.57318 1.47926,-1.17365 2.47461,-1.61329 1.99071,-0.87926 4.277,-1.08339 6.01953,-0.0859 0.49944,0.28588 0.93987,0.99596 1.20703,2.47851 0.26716,1.48256 0.2857,3.51307 0.25,5.64649 -0.0357,2.13342 -0.4998,4.45639 -0.31069,6.53973 0.18913,2.08335 0.46134,6.71118 1.95504,8.26193 4.20698,4.36768 9.99447,4.31873 14.11345,2.19829 2.4475,-1.25997 3.6766,-5.51357 4.40625,-7.82808 0.10743,-0.34079 0.1377,-0.66066 0.2246,-1 0.3656,0.49401 0.98335,1.46898 1.54142,1.93281 1.77156,1.4724 3.75816,2.31272 6.11575,2.66638 2.35759,0.35366 5.18854,-0.56232 6.95416,-2.50349 0.82357,-0.90544 1.29563,-2.0646 1.35547,-3.15039 0.0599,-1.08578 -0.20874,-2.04709 -0.54101,-2.91992 -0.66456,-1.74565 -1.27785,-3.28877 -1.79026,-4.80273 -0.60657,-1.7922 -1.79492,-4.32072 -2.8699,-6.75391 -0.73737,-1.66901 -1.62786,-3.1969 -2.6543,-4.56836 1.19707,0.18207 2.41182,0.15413 3.62305,-0.11328 0.037,2.84173 0.18077,5.20625 0.91652,7.5194 0.86598,2.7226 3.21691,7.064 5.42464,9.09499 2.20772,2.03099 5.86996,2.56866 9.05362,1.93134 2.75693,-0.5519 5.60215,-2.26301 7.06267,-4.76244 1.26938,-2.17231 2.00686,-5.2834 1.58841,-9.04433 1.0496,0.56586 1.22799,1.09615 2.26273,1.6126 4.08024,2.0365 7.66993,3.49414 7.66993,3.49414 l 2.69114,-6.49897 c 0,0 -2.19478,-1.6627 -5.6954,-2.94387 -1.78774,-0.65428 -4.27994,-2.32757 -6.1553,-4.62169 -1.87536,-2.29411 -4.24881,-6.30202 -5.60734,-8.83313 -1.35853,-2.53111 -1.54299,-2.92082 -3.50654,-7.03007 -3.9271,-8.21851 -7.9063,-15.261799 -7.9063,-15.261799 -1.18799,0.131771 -2.38865,-0.756998 -3.65435,1.570233 z m 7.32159,25.927316 c 0.28079,0.14743 1.58458,0.077 1.86166,0.2252 1.71573,1.29061 2.17305,1.84626 4.00102,3.94684 1.04448,1.20024 1.87737,3.01148 2.61737,4.83187 -0.69755,2.79455 -0.38047,5.17989 -2.17787,8.36951 -0.8631,1.56867 -2.30803,2.06443 -4.34391,2.47198 -1.60915,0.32213 -3.63639,0.24919 -5.26512,-1.24915 -1.62873,-1.49835 -2.23679,-2.2086 -3.11626,-4.36146 -0.81845,-2.00348 -1.45142,-5.31891 -0.36498,-9.07388 1.08645,-3.75497 4.57919,-5.33309 6.78809,-5.16091 z m -109.376276,8.53948 c 0.391815,-0.18184 0.470616,-0.2015 0.890625,0 0.415816,0.19949 0.488137,0.31187 0.611328,0.77148 0.123191,0.45962 0.134261,1.2784 -0.04297,2.27344 -0.35446,1.99009 -1.383733,4.578 -2.242187,6.80078 -1.595831,4.13206 -4.176767,8.38385 -9.13086,11.27539 -0.476213,0.27795 -1.204244,0.55938 -1.777344,0.84571 0.04093,-0.19239 0.03987,-0.38397 0.08594,-0.57617 2.800291,-11.68352 3.261098,-10.97423 5.263435,-14.45491 1.175178,-2.04282 2.727917,-3.98675 3.990826,-5.49822 0.631455,-0.75574 1.959392,-1.25566 2.351208,-1.4375 z m 50.718746,7.5332 c 0.0212,0.004 0.0534,-6.3e-4 0.0742,0.004 0.0638,0.0139 0.0591,0.0353 0.11914,0.0508 -0.0702,-0.0212 -0.1202,-0.0321 -0.19336,-0.0547 z m -6.375,2.44922 c 1.1381,0.11832 2.52773,0.53867 3.89063,0.99414 1.3629,0.45548 2.64544,0.96216 4.05273,1.09766 0.70365,0.0677 1.53013,0.0573 2.375,-0.42774 0.42812,-0.24576 0.78248,-0.62217 1.05078,-1.04882 1.0069,1.27957 2.33937,2.93152 3.42579,4.86328 1.21566,2.16158 1.90792,4.40529 1.58789,5.98047 -0.75103,3.69647 -4.8775,7.32229 -9.29883,8.5 -2.28033,0.60741 -5.35598,0.9221 -8.03906,0.50586 -2.68309,-0.41624 -4.838975,-1.47209 -6.019536,-3.42969 -1.084041,-1.79755 -1.126939,-5.27981 -0.130859,-8.67774 0.188123,-0.64174 0.534169,-1.17519 0.785156,-1.79296 1.901991,-1.5255 3.078728,-3.63365 4.230469,-5.41407 0.23144,-0.35778 0.44029,-0.56636 0.66602,-0.87695 0.44075,-0.11426 0.76846,-0.34157 1.42382,-0.27344 z"
         id="path105124"
         sodipodi:nodetypes="cscczccsscsssssssssssssssssssssssszscssssccscscscssssscsscssssssssszcscssssszssscsssssccssssscszzssssscscsssssssscsscsscsssssscssssssssscssscsssccsssscsccszzsccccscccsszcscssssccsssscscccsscscsssssscscs" />
      <path
         style="color:#000000;fill:#000000;fill-opacity:1;stroke-width:1.61225;-inkscape-stroke:none"
         d="m 20.978516,61.605469 -3.542969,1.855468 c 0.417665,0.797236 0.750261,1.369745 1.160156,2.212891 0.377617,0.776751 0.626374,1.535 1.464844,3.1875 0.893366,1.760692 2.029073,4.724817 2.952119,6.216708 0.852314,1.377571 1.590146,2.757965 2.34375,4.507221 1.188459,3.12917 2.190345,10.260235 -0.31648,15.57767 -1.217109,2.585408 -2.43397,4.282816 -4.153982,5.198863 -2.879476,1.81158 -3.124225,1.55862 -5.653532,0.31204 -0.94818,-0.809189 -1.570537,-1.659061 -1.65625,-1.92383 l -3.8066407,1.232422 c 1.1711347,3.606218 6.0481267,8.789658 10.1107327,8.081938 1.152922,-0.22633 3.350918,-0.53674 4.461853,-1.12841 2.22187,-1.18333 4.65958,-3.44908 5.936152,-5.34552 1.389745,-2.064565 1.918618,-4.022755 2.630071,-6.635801 0.994312,-3.651936 0.08102,-5.108465 -0.139608,-8.229517 -0.26787,-3.789319 -1.409276,-6.909097 -2.241833,-8.841619 -0.799505,-1.8558 -1.983404,-3.665198 -2.976384,-5.270123 C 26.628266,71.122766 24.331061,68.436577 23.628906,67.052734 22.871856,65.560699 22.695,64.955692 22.193359,63.923828 21.723997,62.95836 21.352298,62.31894 20.978516,61.605469 Z"
         id="path106451"
         sodipodi:nodetypes="ccssscccccccssssssssc" />
      <path
         style="color:#000000;fill:#000000;fill-opacity:1;stroke-width:1.61225;-inkscape-stroke:none"
         d="m 44.542969,49.689453 c -3.62226,2.276008 -7.431319,4.820609 -11.136694,5.957053 l -0.05859,0.01758 -0.05664,0.01953 c -2.039553,0.71254 -6.253203,1.746699 -8.205079,2.232422 -1.951877,0.485724 -0.02474,0.0065 -0.03711,0.0098 -0.01237,0.0033 0.404781,-0.118116 -0.03711,0.0098 -4.347018,0.885432 -7.418824,1.424573 -12.183255,1.88069 -1.709312,0.179928 -5.6957116,0.06347 -8.3612418,0.431118 -1.62126,0.223622 -4.18669293,0.240014 -6.3496093,1.238281 -2.9217601,1.348505 -4.5227482,4.228078 -5.4447179,7.220025 -0.9219698,2.991947 -0.4856924,6.400584 -0.7920356,8.915421 l 3.9707031,0.484375 c 0.3029774,-2.487206 0.8716562,-4.818314 2.3882278,-6.975143 1.43498313,-2.040796 2.55365258,-3.225808 3.7668918,-3.767762 2.1413706,-0.956552 3.6723797,-0.59687 5.584155,-0.860562 1.6584196,-0.228748 3.1884519,-0.133969 5.8226209,-0.411263 1.341626,-0.141224 3.35231,-0.225909 6.106564,-0.74855 2.754253,-0.522641 2.783422,-0.115895 8.32481,-1.595288 5.541388,-1.479394 5.157227,-1.134833 8.545862,-3.108095 3.388636,-1.973263 7.038403,-5.219508 10.503832,-7.714988 z"
         id="path106453"
         sodipodi:nodetypes="cccczzccsssccsssszzzcc" />
      <path
         style="color:#000000;fill:#000000;stroke-width:1.61225;-inkscape-stroke:none"
         d="m 133.15707,26.178401 c -3.35949,2.179865 -4.12259,10.335559 -4.3737,13.022526 -0.0129,2.911434 -0.0247,6.658722 0.56836,9.779297 0.71854,3.78056 1.78038,6.846887 2.2832,10.277343 0.1729,1.179571 0.36225,2.400594 0.65039,3.642579 0.10252,0.441883 0.1514,0.546567 0.26172,0.882812 -0.11875,0.355917 -0.28248,0.874453 -0.42382,1.179688 -0.19829,-0.212195 -0.3431,-0.348583 -0.74805,-0.859375 -0.13803,-0.174101 -1.47051,-2.106752 -2.58789,-3.791016 -0.55869,-0.842132 -1.10036,-1.666409 -1.50977,-2.294922 -0.2047,-0.314256 -0.37581,-0.580291 -0.49804,-0.771484 -0.12223,-0.191193 -0.28472,-0.486695 -0.14454,-0.220703 -0.0685,-0.129917 -0.14248,-0.520545 -0.20507,-0.738282 0.0172,-0.128859 0.0237,-0.08447 0.0352,-0.220703 0.0269,-0.319042 0.0697,-0.690411 -0.12109,-1.283203 -0.19079,-0.592792 -1.04985,-1.517376 -1.94727,-1.621094 -0.29407,-0.03399 -0.65665,0.114838 -0.99804,0.277344 -0.34811,-0.228262 -0.6397,-0.401283 -1.2793,-0.742187 l 0.1543,0.0918 c -1.69599,-1.108028 -3.76029,-1.501772 -5.81055,-1.449218 -2.05027,0.05255 -4.1251,0.55095 -5.76563,1.851562 -1.15829,0.918292 -1.63451,1.783385 -2.94182,3.604019 -1.30731,1.820634 -1.93932,5.309978 -2.4572,7.443892 -0.27551,1.133326 -0.28818,2.797093 -0.24551,3.56537 0.0427,0.768278 0.10162,1.41061 0.0801,1.6875 -0.0195,0.251157 -0.008,0.249718 -0.0195,0.435547 -0.006,0.0074 -0.0272,0.0142 -0.0332,0.02148 -1.09153,1.821662 -1.78293,3.228458 -2.92383,4.982422 -1.47941,2.241573 -3.529655,3.467832 -5.172885,1.342819 -1.643226,-2.125013 -1.591621,-2.827489 -2.346643,-4.936571 -0.79907,-2.284792 -1.457796,-4.20748 -2.189453,-5.966797 -0.898766,-2.018219 -1.065312,-4.602044 -1.707131,-6.531341 l -3.882812,0.845703 c 0.175444,1.728004 0.569322,1.941212 0.916015,4.455078 0.346693,2.513866 0.819513,7.769024 0.63876,9.525391 -0.180753,1.756367 -0.0017,0.0065 -0.002,0.0098 -3.32e-4,0.0033 0.153409,-1.445427 0,0.0098 -0.153409,1.455227 -1.629208,6.116564 -3.284769,7.079472 -1.65556,0.962908 -4.082033,1.492742 -5.293542,0.648512 -2.126423,-1.471496 -4.047794,-6.946224 -4.480324,-9.054225 -0.424137,-2.037211 -0.917829,-3.560482 -1.105883,-5.178326 -0.188054,-1.617844 -0.489006,-3.109342 -1.300367,-5.427143 l -3.509765,1.921875 c 0.341614,1.657692 0.39341,2.673228 0.77761,5.043798 0.560489,3.458293 0.60782,3.035312 1.102658,5.412109 1.038823,5.513579 2.253432,8.749607 4.344004,11.280819 2.090572,2.531213 4.274603,2.413055 5.623646,2.821983 3.957891,0.818917 7.723423,-1.187961 9.317873,-3.497514 1.59445,-2.309553 1.38036,-5.968016 1.582371,-8.680302 -0.09984,1.88919 2.88336,6.671417 4.744902,7.263841 1.51155,0.312431 3.672225,0.515765 4.885895,-0.109045 1.21367,-0.624811 1.83683,-1.732534 2.29297,-2.37037 0.70428,-1.078161 1.46591,-2.35163 1.82573,-3.262144 0.40288,-1.12183 0.59486,-1.948406 1.13529,-3.006665 0.19326,0.36033 0.43411,0.71002 0.61914,1.390625 0.33162,1.21984 0.97217,1.767888 1.61523,2.355468 0.64307,0.587581 1.18701,1.073614 2.22071,1.371094 0.67081,0.19305 1.93835,0.568391 3.45312,0.539063 1.51477,-0.02933 4.96782,-0.767224 6.933,-2.886336 1.96518,-2.119109 3.84465,-6.82285 4.27348,-9.435293 0.22297,-1.358335 0.41692,-2.458756 0.40485,-3.731106 0.59787,0.890534 1.2982,1.965416 1.65234,2.41211 0.4398,0.554735 0.68622,0.795323 0.97852,1.109375 -0.21951,0.165273 -0.38483,0.308307 -0.61133,0.476562 -1.74208,1.294135 -2.80987,1.959823 -3.91442,3.771662 -1.69044,1.9802 -3.26571,3.974704 -3.6861,4.789802 -1.14139,2.199358 -2.33681,3.307655 -3.09741,5.106655 -0.7606,1.799 -2.01284,4.321519 -2.28592,8.056168 -0.16209,1.450821 -0.44237,4.058898 0.0288,6.094755 1.60917,3.96315 2.9498,7.094704 6.96916,7.654854 1.91452,0.14466 5.22275,-0.11494 6.97821,-1.59613 0.79341,-0.70857 2.06183,-2.118584 2.61947,-3.093496 1.11529,-1.949831 2.64843,-4.257141 3.05061,-6.828717 0.4722,-3.019297 0.78692,-7.88175 0.84233,-10.896396 0.025,-1.361894 -0.23577,-3.136212 -0.16116,-4.785747 0.35164,-0.02508 0.71418,-0.01057 1.07617,-0.261719 0.51713,-0.358784 0.77393,-0.890024 0.8711,-1.248047 0.19433,-0.716046 0.0772,-1.02876 0.0293,-1.314453 -0.0867,-0.517695 -0.14373,-0.860506 -0.15429,-0.714844 0.004,-0.03855 0.008,-0.08938 0.0117,-0.125 0.0113,-0.110746 0.0217,-0.205596 0.0293,-0.28125 0.004,-0.03783 0.007,-0.0687 0.01,-0.103516 0.002,-0.02329 0.006,-0.110313 0.008,-0.185546 0.0644,-0.919885 0.23299,-1.905527 0.37891,-3.167969 0.25659,-2.220224 0.13891,-4.532731 0.39207,-6.190726 0.23286,-1.525069 0.41207,-1.675521 1.17179,-4.919448 0.75971,-3.243926 -0.0512,-2.344803 2.00454,-4.796074 1.49023,-2.221122 4.33677,-1.105959 6.21477,0.52903 1.878,1.634988 1.48121,3.84278 1.93968,6.773685 l 0.002,0.01367 0.002,0.01367 c 0.65795,3.137819 1.02194,6.931713 2.64958,9.719619 0.33835,0.579538 1.2668,1.706453 2.07112,2.545325 0.80432,0.838871 2.96207,2.012523 4.54941,1.805132 3.22735,-0.235361 5.72881,-3.954011 7.0579,-5.733313 1.32909,-1.779302 1.56911,-2.425224 2.22401,-4.260103 0.6549,-1.834879 0.55546,-2.596098 0.95579,-3.699707 l -3.75976,-1.363281 c 0.0388,-0.106938 -0.70981,1.314572 -1.42579,2.474609 -0.67721,1.097236 -0.65013,1.543162 -1.72656,2.806641 -1.07644,1.263479 -1.59782,1.711491 -3.25247,2.133456 -1.25474,0.505081 -2.41757,-0.370352 -2.99698,-1.371009 -1.48536,-2.544206 -1.88621,-3.117756 -2.42438,-5.852296 -0.53818,-2.73454 -0.1931,-5.731384 -2.58989,-9.7598 -0.79529,-1.362216 -2.18457,-2.031397 -3.32813,-2.287109 -1.14355,-0.255712 -2.17963,-0.233925 -2.92773,-0.257812 -0.94473,-0.03017 -1.54363,0.130663 -1.82227,0.140625 -0.55917,-0.0012 -0.78079,-0.02804 -1.13281,-0.03711 -0.0577,-0.0015 -0.26578,0.0701 -0.35547,0.06836 0.12043,-0.757473 0.39411,-2.106911 0.50059,-3.028261 0.45313,-4.218396 1.1149,-7.719911 0.23424,-11.797142 -0.57216,-2.222325 -1.03225,-4.972806 -2.50662,-6.304687 -1.47438,-1.331881 -3.41557,-2.411988 -6.77505,-0.232123 z m 5.08916,7.702121 c 0.32655,3.475477 0.31639,5.384527 0.0762,8.492188 -0.22752,4.653959 -1.57347,9.540814 -2.5039,12.769531 -0.31576,1.097244 -0.3809,1.804269 -0.51758,2.220703 -0.59736,-3.23497 -1.44794,-6.12151 -2.01953,-9.128906 -0.47537,-2.501049 -0.51079,-6.130759 -0.49805,-9.015625 0.005,-1.204669 0.40101,-2.204258 0.78906,-3.892578 l 0.002,-0.0039 c 2.29741,-5.684362 4.21107,-4.413878 4.67183,-1.441413 z m -18.07037,22.29128 c 0.42346,0.09968 1.03941,0.893657 1.68564,1.062234 0.0897,0.02341 0.17837,0.04545 0.30664,0.06836 0.0292,0.0052 0.14763,-0.0068 0.17773,0.002 -0.0868,1.597083 0.0674,3.278318 0.17578,4.916016 0.12305,1.858918 -0.0242,3.044923 -0.5574,5.307743 -0.53325,2.26282 -1.61842,5.67113 -4.4274,7.474017 -2.80898,1.802887 -4.55422,0.761915 -5.41575,0.123599 -1.90489,-1.416762 -2.65952,-7.405555 -1.81431,-10.794031 2.87932,-5.437053 4.50863,-7.702867 6.63627,-7.980289 2.12764,-0.277422 3.2328,-0.179649 3.2328,-0.179649 z m 11.1329,14.964578 c 0.72749,1.990163 0.74639,6.468433 0.68664,9.265625 -0.0751,3.514241 0.44736,2.78473 -0.6809,7.120058 -0.559,2.14792 -1.14818,4.952245 -2.86692,6.635683 -3.17276,2.185789 -6.26792,1.325628 -7.1603,-2.35825 -0.88825,-4.392921 -0.34759,-5.202018 0.53087,-8.147524 0.87847,-2.945506 1.21317,-3.300806 1.68773,-4.587197 0.47455,-1.286391 2.9491,-3.2283 3.88514,-4.678432 0.37152,-0.609364 1.84065,-1.693828 3.60157,-3.001953 0.10829,-0.08045 0.20773,-0.167063 0.3164,-0.248047 z"
         id="path106463"
         sodipodi:nodetypes="zccssccsssscccsscccsszccsccczcccczzzzzccsccsczczcczcccsssszscscscczccccssscssccccsccszczcccssczzccszcczcsscsccczzccccsccccccsccczzcczcsscczzcsccs" />
    </g>
    <g
       id="g118120"
       transform="translate(4.8645349)">
      <g
         id="g42928"
         inkscape:export-filename="2024\tough_crowd\godot\sprites\faces\jenny_not_amused.svg"
         inkscape:export-xdpi="96"
         inkscape:export-ydpi="96"
         transform="matrix(1.9419744,0,0,1.9419744,220.31435,-43.864464)"
         style="stroke-width:0.686869">
        <g
           id="g3978"
           transform="matrix(1.21,0,0,1.21,-82.927262,-18.41175)"
           style="stroke-width:0.56766"
           inkscape:export-filename="2024\tough_crowd\godot\sprites\faces\jenny_not_amused.svg"
           inkscape:export-xdpi="96"
           inkscape:export-ydpi="96">
          <path
             style="fill:#ffdd55;fill-opacity:1;stroke:none;stroke-width:0.300387"
             d="m -23.36896,88.206978 -1.239733,3.719198 c 0,0 -0.764225,3.1499 -0.867813,5.020918 0.01693,0.888151 0.171492,2.009608 0.681853,3.103156 l 10.225303,1.00225 c 0,0 0.746511,-1.490873 0.818779,-2.000208 0.219846,-1.549424 0.317997,-2.230511 0.241065,-4.215284 -0.100709,-2.598178 -0.491411,-4.810244 -0.74742,-5.514271 z"
             id="path3642"
             sodipodi:nodetypes="cccccsscc" />
          <path
             style="fill:#deaa87;fill-opacity:1;stroke:none;stroke-width:0.300387"
             d="m -20.765522,87.835059 c -1.184323,0.638814 -2.332287,2.362485 -2.851385,3.595224 -0.519098,1.232739 -0.583585,1.853755 -0.433907,3.409265 0.149678,1.55551 0.458667,4.583653 1.859599,5.640782 1.400932,1.05713 3.115829,1.03499 4.587011,0.18596 1.471182,-0.849028 2.148027,-3.30061 2.603439,-4.95893 0.455412,-1.65832 0.677373,-3.270346 0.247946,-4.710983 -0.429427,-1.440637 -1.358982,-2.936247 -2.541452,-3.471251 -1.18247,-0.535004 -2.286928,-0.328881 -3.471251,0.309933 z"
             id="path3528"
             sodipodi:nodetypes="zzzzzzzzz" />
          <path
             style="fill:#ffdd55;fill-opacity:1;stroke:none;stroke-width:0.300387"
             d="m -23.244987,92.112136 3.657211,0.123973 3.843171,0.247946 c 0,0 0.0994,-2.211136 -0.371919,-2.913372 -0.471316,-0.702236 -1.043271,-0.847817 -1.859599,-1.053772 -0.816328,-0.205955 -1.867223,-0.51229 -2.913372,0.06199 -1.046149,0.57428 -2.355492,3.533235 -2.355492,3.533235 z"
             id="path3584"
             sodipodi:nodetypes="ccczzzc" />
          <path
             style="fill:#ffdd55;fill-opacity:1;stroke:none;stroke-width:0.300387"
             d="m -23.988827,90.872404 c 0,0 0.468082,-2.497254 0.991786,-3.285291 0.523704,-0.788037 1.0887,-0.994892 2.107546,-1.301721 1.018846,-0.306829 2.869059,-0.381597 3.905158,-0.123973 1.036099,0.257624 1.583552,0.488327 2.169532,1.239734 0.58598,0.751407 0.867813,3.099332 0.867813,3.099332 0,0 -1.524401,-0.235973 -2.107545,-0.712847 -0.583145,-0.476873 -1.422447,-0.697205 -2.60344,-0.836821 -1.180992,-0.139617 -2.738314,0.428045 -3.223305,0.588873 -0.484991,0.160828 -1.843169,1.178079 -2.107545,1.332714 z"
             id="path3640"
             sodipodi:nodetypes="czzzzczzzc" />
          <path
             style="fill:#deaa87;fill-opacity:1;stroke:none;stroke-width:0.300387"
             d="m -23.864854,92.948955 c 0,0 -0.656883,-0.02939 -0.898806,0.309935 -0.241923,0.339324 -0.09745,1.124521 0,1.549665 0.09745,0.425144 0.227144,0.820277 0.4649,0.960792 0.237756,0.140515 0.588873,-0.03099 0.588873,-0.03099 z"
             id="path3644"
             sodipodi:nodetypes="czzzcc" />
          <path
             style="fill:#deaa87;fill-opacity:1;stroke:none;stroke-width:0.300387"
             d="m -15.133358,93.537828 c 0,0 0.656883,-0.02939 0.898806,0.309935 0.241923,0.339324 0.09745,1.124521 0,1.549665 -0.09745,0.425144 -0.227144,0.820277 -0.4649,0.960792 -0.237756,0.140515 -0.588873,-0.03099 -0.588873,-0.03099 z"
             id="path3784"
             sodipodi:nodetypes="czzzcc" />
          <path
             style="fill:#ffffff;fill-opacity:1;stroke:none;stroke-width:0.300387"
             d="m -21.571348,92.762997 c -0.377641,0.0092 -0.444835,0.214993 -0.588873,0.526886 -0.144038,0.311893 -0.141712,0.932941 -0.03099,1.270725 0.110722,0.337784 0.242788,0.605357 0.526887,0.681852 0.284099,0.07649 0.588663,-0.07606 0.836819,-0.340926 0.248156,-0.264867 0.531304,-0.768674 0.402914,-1.208738 -0.12839,-0.440064 -0.769116,-0.938978 -1.146757,-0.929799 z"
             id="path3786"
             sodipodi:nodetypes="zzzzzzz" />
          <path
             style="fill:#ffffff;fill-opacity:1;stroke:none;stroke-width:0.300387"
             d="m -17.43559,92.97995 c 0.377641,0.0092 0.444835,0.214993 0.588873,0.526886 0.144038,0.311893 0.141712,0.932941 0.03099,1.270725 -0.110722,0.337784 -0.242788,0.605357 -0.526887,0.681852 -0.284099,0.07649 -0.588663,-0.07606 -0.836819,-0.340926 -0.248156,-0.264867 -0.531304,-0.768674 -0.402914,-1.208738 0.12839,-0.440064 0.769116,-0.938978 1.146757,-0.929799 z"
             id="path3788"
             sodipodi:nodetypes="zzzzzzz" />
          <ellipse
             style="fill:#000000;fill-opacity:1;stroke:none;stroke-width:0.300387"
             id="path3907"
             cx="-21.447374"
             cy="94.219681"
             rx="0.61986631"
             ry="0.71284634" />
          <ellipse
             style="fill:#000000;fill-opacity:1;stroke:none;stroke-width:0.300387"
             id="ellipse3909"
             cx="-17.635197"
             cy="94.43663"
             rx="0.61986631"
             ry="0.71284634" />
          <path
             style="fill:none;fill-opacity:1;stroke:#1a1a1a;stroke-width:0.300387"
             d="m -21.726315,99.054638 c 0,0 0.930076,-2.698677 1.797613,-2.727412 0.867537,-0.02873 1.549665,3.068338 1.549665,3.068338"
             id="path3911"
             sodipodi:nodetypes="czc" />
        </g>
      </g>
      <g
         id="g3501"
         transform="matrix(1.9419744,0,0,1.9419744,8.6009325,56.497737)"
         inkscape:export-filename="curly_not_amused.png"
         inkscape:export-xdpi="96"
         inkscape:export-ydpi="96"
         style="stroke-width:0.686869">
        <path
           style="fill:#ffd5d5;fill-opacity:1;stroke:none;stroke-width:0.363469"
           d="m 25.538492,38.183765 c -1.752732,0.504577 -4.076332,2.30155 -5.082903,4.339066 -1.006571,2.037516 -1.632597,5.078932 -0.37192,6.942503 1.260677,1.863571 4.212295,2.108846 6.198663,2.107544 1.986368,-0.0013 3.924166,-0.364275 5.082903,-1.735625 1.158737,-1.37135 1.108059,-3.409228 0.867815,-5.330851 -0.240244,-1.921623 -1.092658,-4.641185 -2.479466,-5.702771 -1.386808,-1.061586 -2.46236,-1.124443 -4.215092,-0.619866 z"
           id="path3485"
           sodipodi:nodetypes="zzzzzzzz" />
        <path
           style="fill:#ffd5d5;fill-opacity:1;stroke:#000000;stroke-width:0.363469"
           d="m 23.27435,48.959415 c 0,0 1.31464,-3.441851 2.761364,-3.41883 1.446724,0.02302 2.58604,3.41883 2.58604,3.41883"
           id="path3487"
           sodipodi:nodetypes="czc" />
        <path
           style="fill:#ffffff;fill-opacity:1;stroke:none;stroke-width:0.363469"
           d="m 23.975649,40.938312 c -0.525974,-0.04383 -0.815413,0.37546 -1.051947,1.051948 -0.236534,0.676488 -0.37735,1.245138 0.04383,1.709415 0.42118,0.464277 0.957382,0.74647 1.49026,0.569806 0.532878,-0.176664 0.702532,-0.475274 0.876623,-1.095779 0.174091,-0.620505 0.06021,-1.205777 -0.262987,-1.665586 -0.323195,-0.459809 -0.569806,-0.525973 -1.095779,-0.569804 z"
           id="path3489"
           sodipodi:nodetypes="zzzzzzz" />
        <path
           style="fill:#ffffff;fill-opacity:1;stroke:none;stroke-width:0.363469"
           d="m 28.490259,41.113637 c -0.525974,-0.04383 -0.815413,0.37546 -1.051947,1.051948 -0.236534,0.676488 -0.37735,1.245138 0.04383,1.709415 0.42118,0.464277 0.957382,0.74647 1.49026,0.569806 0.532878,-0.176664 0.702532,-0.475274 0.876623,-1.095779 0.174091,-0.620505 0.06021,-1.205777 -0.262987,-1.665586 -0.323195,-0.459809 -0.569806,-0.525973 -1.095779,-0.569804 z"
           id="path3491"
           sodipodi:nodetypes="zzzzzzz" />
        <ellipse
           style="fill:#000000;fill-opacity:1;stroke:none;stroke-width:0.363469"
           id="ellipse3493"
           cx="24.107143"
           cy="43.195618"
           rx="0.96428567"
           ry="1.0300325" />
        <ellipse
           style="fill:#000000;fill-opacity:1;stroke:none;stroke-width:0.363469"
           id="ellipse3495"
           cx="28.490261"
           cy="43.63393"
           rx="0.96428567"
           ry="1.0300325" />
        <path
           style="fill:#000000;fill-opacity:1;stroke:none;stroke-width:0.363469"
           d="M 27.701298,38.659091 24.720779,39.974027 21.915585,40.5 c 0,0 -0.210181,1.29842 -0.350651,2.060064 -0.14047,0.761643 -0.158331,1.849962 -0.525974,2.498377 -0.367643,0.648415 -0.712297,0.998596 -1.314935,1.753247 -0.208158,0.535494 0.879109,1.737607 0.788961,2.673701 -0.09015,0.936093 -0.13653,2.232249 -1.227273,2.673703 -1.090743,0.441454 -4.426948,-1.183444 -4.426948,-1.183444 0,0 -0.0498,-2.242484 0.430323,-2.980049 0.510524,-0.78427 -0.480702,-1.161199 -0.430323,-2.674171 0.05038,-1.512971 0.644773,-2.120706 1.460661,-2.924257 0.637481,-0.62784 1.56369,-0.845224 1.56369,-0.845224 0,0 -0.207834,-1.984595 0.39448,-3.331168 0.602314,-1.346573 2.097678,-3.482727 3.637987,-4.12013 1.540308,-0.637404 3.269547,-0.37014 4.251623,-10e-7 0.982075,0.370138 1.621753,1.402597 1.621753,1.402597 z"
           id="path3497"
           sodipodi:nodetypes="ccczzczzcszsczzzcc" />
        <path
           style="fill:#000000;fill-opacity:1;stroke:none;stroke-width:0.363469"
           d="m 27.131494,35.327923 c 0,0 1.889261,-0.837473 2.849025,-0.788962 0.959764,0.04851 1.971685,0.549579 2.849026,1.095778 0.877341,0.546199 1.4935,1.536293 1.972402,2.58604 0.478902,1.049747 0.866427,2.703097 0.74513,3.594156 -0.121297,0.891059 -0.788961,1.534091 -0.788961,1.534091 0,0 1.946652,1.087254 2.147729,1.928572 0.201077,0.841318 -0.47669,1.6255 -0.832795,2.147726 -0.356105,0.522226 -1.095777,1.008118 -1.095777,1.008118 l 2.542207,2.629868 c 0,0 -3.352593,1.349862 -4.646104,1.4026 -1.293511,0.05274 -3.024349,-0.920457 -3.024349,-0.920457 l 1.008115,-2.498376 c 0,0 -0.455225,-0.796768 -0.35065,-1.665584 0.104575,-0.868816 1.534092,-3.199675 1.534092,-3.199675 0,0 -1.145079,-1.58851 -1.446427,-2.410714 C 30.292809,40.9489 30.199676,39.36039 30.199676,39.36039 l -2.805197,-0.832792 z"
           id="path3499"
           sodipodi:nodetypes="czzzzczzcczcczczccc" />
      </g>
      <g
         id="g3232"
         inkscape:export-filename="moritz_not_amused.svg"
         inkscape:export-xdpi="96"
         inkscape:export-ydpi="96"
         transform="matrix(1.9419744,0,0,1.9419744,61.356644,5.3477846)"
         style="stroke-width:0.686869">
        <path
           style="fill:#000000;fill-opacity:1;stroke:none;stroke-width:0.363469"
           d="m 16.922351,63.722257 c 0,0 -1.5462,2.84085 -1.487679,4.029133 0.05852,1.188283 0.592943,1.308581 0.867812,1.921584 0.274869,0.613003 -0.371919,1.642647 -0.309933,2.41748 0.06199,0.774833 0.236043,1.398939 0.619867,1.983573 0.383824,0.584635 1.983572,0.805826 1.983572,0.805826 l 3.967144,-0.06199 7.376409,-1.239733 1.983574,-0.247943 c 0,0 1.664835,-0.782226 2.045562,-1.673639 0.380728,-0.891413 0.852276,-2.096721 0.495894,-3.161319 -0.356382,-1.064598 -1.797613,-3.037346 -1.797613,-3.037346 l -0.681853,-1.053771 -3.967144,-3.719197 -5.020918,-0.619869 z"
           id="path2826"
           sodipodi:nodetypes="czzzzcccczzccccc" />
        <path
           style="fill:#aa4400;fill-opacity:1;stroke:none;stroke-width:0.363469"
           d="m 18.100097,65.581857 c -0.801782,2.096943 -0.506086,6.527542 0.433906,8.678129 0.939993,2.150588 1.62141,3.190426 3.905159,4.029131 2.283748,0.838704 4.217884,0.677624 6.322635,-0.619866 2.104752,-1.29749 3.486899,-3.720361 3.471251,-5.764758 -0.01565,-2.044396 -0.137523,-5.004951 -1.053772,-6.942502 -0.916249,-1.937551 -0.851218,-4.275545 -2.975357,-5.082903 -2.124139,-0.807358 -6.079897,-1.003575 -7.19045,0.433906 -1.110553,1.43748 -2.217505,3.537022 -2.913372,5.268863 z"
           id="path2766"
           sodipodi:nodetypes="czzzzzzzc" />
        <path
           style="fill:#000000;fill-opacity:1;stroke:none;stroke-width:0.363469"
           d="m 26.158359,57.523596 c 0,0 -2.473401,-2.413372 -3.781185,-2.541453 -1.307784,-0.128081 -2.313174,0.851605 -3.161318,1.611652 -0.848144,0.760047 -0.396641,4.148807 -1.239732,4.215092 -0.843092,0.06628 -1.883954,-0.118425 -2.355493,2.045559 -0.471539,2.163985 1.128875,4.812068 1.673639,4.958929 0.544763,0.146861 2.033161,-1.146011 2.727412,-2.045558 0.694252,-0.899547 0.578255,-2.358281 0.867813,-3.409266 0.289558,-1.050985 1.288355,-1.270841 1.921586,-1.425691 0.633231,-0.15485 2.140096,2.191769 2.140096,2.191769 z"
           id="path2822"
           sodipodi:nodetypes="czzzzzzzzcc" />
        <path
           style="fill:#aa4400;fill-opacity:1;stroke:none;stroke-width:0.363469"
           d="m 30.90334,67.379471 c 0,0 1.420847,-0.787487 2.107546,0.06198 0.686699,0.849472 0.482957,1.895152 0.18596,2.417478 -0.296998,0.522327 -1.735626,1.363708 -1.735626,1.363708 z"
           id="path3155"
           sodipodi:nodetypes="czzcc" />
        <path
           style="fill:#000000;fill-opacity:1;stroke:#000000;stroke-width:0.363469"
           d="m 25.352533,57.523596 c 0,0 2.486465,-0.906943 3.595225,-0.681855 1.10876,0.225088 2.504205,0.312246 3.161319,1.177747 0.657114,0.865501 -0.0026,2.952532 0.495892,3.781185 0.498517,0.828653 1.349748,0.772989 1.673638,1.735624 0.32389,0.962635 0.781427,1.875586 0.18596,2.913374 -0.595467,1.037788 -0.991786,1.859598 -0.991786,1.859598 0,0 -2.771597,-0.587598 -2.975357,-1.425691 -0.203761,-0.838094 -0.416501,-1.137277 -10e-7,-2.293507 0.4165,-1.15623 -1.032483,-3.33457 -2.603437,-2.913371 -1.570954,0.421199 -2.665426,0.991786 -2.665426,0.991786 z"
           id="path2824"
           sodipodi:nodetypes="czzzzzczzzcc" />
        <path
           style="fill:#ffffff;fill-opacity:1;stroke:none;stroke-width:0.363469"
           d="m 21.943268,66.635629 c -0.498488,0.166162 -1.139876,0.375921 -1.363706,1.053774 -0.22383,0.677853 -0.210123,1.068902 0.18596,1.611653 0.396083,0.542751 1.037467,0.728392 1.425692,0.681854 0.388225,-0.04654 0.780608,-0.285188 0.991787,-0.55788 0.211179,-0.272692 0.454397,-1.167681 0.123973,-1.921587 -0.330425,-0.753907 -0.865218,-1.033976 -1.363706,-0.867814 z"
           id="path2830"
           sodipodi:nodetypes="zzzzzzz" />
        <path
           style="fill:#ffffff;fill-opacity:1;stroke:none;stroke-width:0.363469"
           d="m 27.212132,66.387682 c -0.498488,0.166162 -1.139876,0.375921 -1.363706,1.053774 -0.22383,0.677853 -0.148137,1.130889 0.247946,1.67364 0.396083,0.542751 0.727534,0.666405 1.425692,0.681854 0.698158,0.01545 0.780608,-0.285188 0.991787,-0.55788 0.211179,-0.272692 0.392411,-1.229668 0.06199,-1.983574 -0.330425,-0.753907 -0.865218,-1.033976 -1.363706,-0.867814 z"
           id="path2832"
           sodipodi:nodetypes="zzzzzzzz" />
        <ellipse
           style="fill:#1a1a1a;fill-opacity:1;stroke:none;stroke-width:0.363469"
           id="path2834"
           cx="22.005255"
           cy="68.867149"
           rx="1.1777461"
           ry="1.1777459" />
        <ellipse
           style="fill:#1a1a1a;fill-opacity:1;stroke:none;stroke-width:0.363469"
           id="ellipse2888"
           cx="27.336105"
           cy="68.929138"
           rx="1.1777461"
           ry="1.1777459" />
        <path
           style="fill:none;fill-opacity:1;stroke:#000000;stroke-width:0.363469"
           d="m 23.306974,76.367531 c 0,0 0.260229,-4.542781 1.983572,-4.648997 1.723343,-0.106216 2.665427,4.58701 2.665427,4.58701"
           id="path2944"
           sodipodi:nodetypes="czc" />
        <path
           style="fill:#aa4400;fill-opacity:1;stroke:none;stroke-width:0.363469"
           d="m 19.029896,67.503444 c 0,0 -1.420847,-0.787487 -2.107546,0.06198 -0.686699,0.849472 -0.482957,1.895152 -0.18596,2.417478 0.296998,0.522327 1.735626,1.363708 1.735626,1.363708 z"
           id="path2946"
           sodipodi:nodetypes="czzcc" />
      </g>
      <g
         id="g4567"
         transform="matrix(1.9419744,0,0,1.9419744,178.90926,21.353081)"
         inkscape:export-filename="ronald_not_amused.svg"
         inkscape:export-xdpi="96"
         inkscape:export-ydpi="96"
         style="stroke-width:0.686869">
        <path
           style="fill:#ff9955;fill-opacity:1;stroke:none;stroke-width:0.363469"
           d="m -6.1363616,63.445617 c 1.3137734,-1.830451 1.1217571,-2.114492 0.9862013,-3.484579 -0.1355558,-1.370087 -0.2600186,-4.355094 -2.5860389,-5.741882 -1.4537126,-0.866713 -6.8220198,-1.790712 -9.5700938,-0.225036 -0.596628,0.33992 -2.181221,2.482331 -2.957316,4.206443 -0.331356,0.736115 -0.414375,1.858656 0.211352,4.345998 0.625728,2.487343 2.758965,1.734475 2.884605,3.153748 3.575685,1.493811 9.7175171,-0.424242 11.0312904,-2.254692 z"
           id="path4543"
           sodipodi:nodetypes="zsssszcz" />
        <path
           style="fill:#ffd5d5;fill-opacity:1;stroke:none;stroke-width:0.363469"
           d="m -14.407499,55.051946 c 3.091086,-0.03392 7.3928982,3.175806 7.9772732,5.435068 0.584374,2.259262 -0.569343,4.377532 -1.577922,6.0487 -1.008579,1.671167 -2.2328382,3.365822 -4.0324672,3.681818 -1.79963,0.315995 -3.802748,-0.768713 -5.084416,-2.103896 -1.281667,-1.335184 -2.455505,-2.577811 -1.928571,-5.259742 0.526934,-2.681931 1.555018,-7.768023 4.646103,-7.801948 z"
           id="path4545"
           sodipodi:nodetypes="zzzzzzz" />
        <path
           style="fill:#ff9955;fill-opacity:1;stroke:none;stroke-width:0.363469"
           d="m -18.452922,66.940915 c -0.160774,-0.627395 -0.901126,-1.556828 -0.569805,-2.194302 0.331321,-0.637475 1.843909,-0.865161 2.564123,-1.050401 0.720214,-0.18524 2.191518,0.69158 3.203703,0.67423 1.012185,-0.01735 2.138906,-0.879208 3.021881,-0.814485 0.8829746,0.06472 1.155943,0.05274 1.6399084,0.334865 0.4839654,0.282121 1.5132141,0.520958 1.6239558,1.213702 0.1107417,0.692745 -0.869924,1.575719 -1.2272727,2.306798 -0.3573487,0.731079 -0.9727071,1.603522 -1.5998376,2.15193 -0.6271309,0.548408 -1.4949529,0.781612 -2.3230519,0.911615 -0.828099,0.130003 -1.619687,0.154802 -2.542208,-0.163625 -0.922521,-0.318427 -2.215057,-1.220677 -2.761364,-1.869973 -0.546307,-0.649296 -0.869258,-0.872957 -1.030032,-1.500354 z"
           id="path4547"
           sodipodi:nodetypes="zzzzzzzzzzzzz" />
        <path
           style="fill:#ffffff;fill-opacity:1;stroke:none;stroke-width:0.363469"
           d="m -15.406656,60.289773 c -0.563611,0.119006 -0.791856,0.293017 -0.78896,0.942369 0.0029,0.649352 0.379743,1.064363 0.788961,1.139611 0.409218,0.07525 0.734186,-0.09842 0.986202,-0.35065 0.31309,-0.373493 0.345477,-1.03498 0.04383,-1.577921 -0.137261,-0.2392 -0.466423,-0.272415 -1.030034,-0.153409 z"
           id="path4549"
           sodipodi:nodetypes="zzzccz" />
        <path
           style="fill:#ffffff;fill-opacity:1;stroke:none;stroke-width:0.363469"
           d="m -10.716721,60.158279 c -0.563611,0.119006 -0.791856,0.293017 -0.78896,0.942369 0.0029,0.649352 0.379743,1.064363 0.788961,1.139611 0.409218,0.07525 0.7341861,-0.09842 0.9862021,-0.35065 0.31309,-0.373493 0.345477,-1.03498 0.04383,-1.577921 -0.137261,-0.2392 -0.4664231,-0.272415 -1.0300331,-0.153409 z"
           id="path4551"
           sodipodi:nodetypes="zzzccz" />
        <ellipse
           style="fill:#000000;fill-opacity:1;stroke:none;stroke-width:0.363469"
           id="ellipse4553"
           cx="-15.176542"
           cy="61.473213"
           rx="0.73417205"
           ry="0.6793831" />
        <ellipse
           style="fill:#000000;fill-opacity:1;stroke:none;stroke-width:0.363469"
           id="ellipse4555"
           cx="-10.552354"
           cy="61.429382"
           rx="0.73417205"
           ry="0.6793831" />
        <path
           style="fill:none;fill-opacity:1;stroke:#000000;stroke-width:0.363469"
           d="m -16.107953,68.091721 c 0,0 1.849777,-2.859172 3.090096,-2.849027 1.240319,0.01015 3.2435064,2.520292 3.2435064,2.520292"
           id="path4557"
           sodipodi:nodetypes="czc" />
        <path
           style="fill:#ff9955;fill-opacity:1;stroke:none;stroke-width:0.363469"
           d="m -5.9172078,61.407467 c 0,0 -3.0797526,-1.703232 -4.3392862,-2.564122 -1.259533,-0.86089 -2.520291,-2.695618 -2.520291,-2.695618 0,0 -0.69661,1.205759 -1.468345,1.88474 -0.771734,0.678981 -4.711851,1.577922 -4.711851,1.577922 l 0.767046,-3.046266 3.791396,-2.695616 5.8952922,0.94237 2.0162338,2.213474 z"
           id="path4559"
           sodipodi:nodetypes="czczcccccc" />
        <path
           style="fill:#ff9955;fill-opacity:1;stroke:none;stroke-width:0.363469"
           d="m -15.077922,54.087662 c 0,0 -0.97581,-1.958471 -0.876623,-2.673702 0.09919,-0.715231 0.870859,-1.184658 1.490259,-1.665584 0.6194,-0.480926 1.363748,-1.081072 2.191559,-1.139611 0.827811,-0.05854 1.825299,0.399063 2.366883,0.832792 0.5415844,0.433729 0.7876137,0.539834 0.8766233,1.402599 0.08901,0.862765 -1.2711033,4.120128 -1.2711033,4.120128 z"
           id="path4561"
           sodipodi:nodetypes="czzzzzcc" />
        <path
           style="fill:#ffd5d5;fill-opacity:1;stroke:none;stroke-width:0.363469"
           d="m -18.626984,61.124069 c 0,0 -1.030945,-0.573713 -1.458792,-0.158407 -0.427848,0.415307 -0.399258,1.597808 -0.169626,2.178082 0.229631,0.580275 1.153462,0.950436 1.153462,0.950436 z"
           id="path4563"
           sodipodi:nodetypes="czzcc" />
        <path
           style="fill:#ffd5d5;fill-opacity:1;stroke:none;stroke-width:0.363468"
           d="m -6.5097129,61.226684 c 0,0 1.2004038,-0.307329 1.515764,0.211276 0.3153599,0.518607 -0.044328,1.680771 -0.4383057,2.196689 -0.3939772,0.515918 -1.4293872,0.648969 -1.4293872,0.648969 z"
           id="path4565"
           sodipodi:nodetypes="czzcc" />
      </g>
    </g>
  </g>
</svg>
