<?xml version="1.0" encoding="UTF-8" standalone="no"?>
<!-- Created with Inkscape (http://www.inkscape.org/) -->

<svg
   width="58.109528mm"
   height="128.69098mm"
   viewBox="0 0 58.109528 128.69098"
   version="1.1"
   id="svg674"
   inkscape:version="1.2.2 (732a01da63, 2022-12-09)"
   sodipodi:docname="´tim_side.svg"
   xml:space="preserve"
   xmlns:inkscape="http://www.inkscape.org/namespaces/inkscape"
   xmlns:sodipodi="http://sodipodi.sourceforge.net/DTD/sodipodi-0.dtd"
   xmlns="http://www.w3.org/2000/svg"
   xmlns:svg="http://www.w3.org/2000/svg"><sodipodi:namedview
     id="namedview676"
     pagecolor="#ffffff"
     bordercolor="#000000"
     borderopacity="0.25"
     inkscape:showpageshadow="2"
     inkscape:pageopacity="0.0"
     inkscape:pagecheckerboard="0"
     inkscape:deskcolor="#d1d1d1"
     inkscape:document-units="mm"
     showgrid="false"
     inkscape:zoom="0.53354917"
     inkscape:cx="-534.15883"
     inkscape:cy="1838.6309"
     inkscape:window-width="1920"
     inkscape:window-height="1027"
     inkscape:window-x="-8"
     inkscape:window-y="-8"
     inkscape:window-maximized="1"
     inkscape:current-layer="layer1"
     showguides="false"><inkscape:grid
       type="xygrid"
       id="grid1241" /></sodipodi:namedview><defs
     id="defs671" /><g
     inkscape:label="Ebene 1"
     inkscape:groupmode="layer"
     id="layer1"
     transform="translate(153.64083,-573.35918)"><path
       style="fill:#a05a2c;stroke:none;stroke-width:0.529167"
       d="m -117.4023,689.66144 c 0,0 -3.70706,3.44704 -4.60489,5.59314 -0.89774,2.14613 -0.11973,5.71435 0.30734,6.36298 0.42709,0.64864 15.19431,-11.6822 15.19431,-11.6822 0,0 -1.76867,-3.15374 -2.95328,-3.9836 -1.18458,-0.82987 -2.86524,-0.70665 -2.86524,-0.70665 z"
       id="path93424"
       sodipodi:nodetypes="czzczcc"
       inkscape:export-filename="2024\tough_crowd\godot\sprites\03_tim_cycle_talk.svg"
       inkscape:export-xdpi="96"
       inkscape:export-ydpi="96" /><path
       style="fill:#37abc8;stroke:none;stroke-width:0.529167"
       d="m -130.74863,646.62306 c 0,0 -1.90592,12.182 -2.04374,17.11454 -0.13783,4.93254 -0.11151,7.90268 1.12821,10.87804 1.23973,2.97536 2.07972,4.44654 5.68257,7.91667 3.60286,3.47014 9.78508,7.46483 9.78508,7.46483 l 4.24,-4.59947 c 0,0 -10.3517,-10.73591 -10.30694,-13.73718 0.0576,-3.86176 1.9068,-9.44487 2.5763,-11.39865 0.75945,-2.21626 0.2746,-1.73608 0.71597,-1.86133 1.65047,-0.46835 2.70447,0.29039 3.09933,1.11578 0.39487,0.82539 -0.48177,2.67796 -1.65783,7.76519 -1.17607,5.08723 -1.30001,8.2013 -1.31708,12.38227 -0.0171,4.18097 2.82174,15.86858 2.82174,15.86858 l 7.81032,1.11577 c 0,0 -3.36506,-12.95577 -1.41442,-21.11801 1.95063,-8.16225 7.27036,-14.77407 8.0142,-17.99738 0.74384,-3.22331 1.04272,-4.19768 0.86782,-7.19045 -0.1749,-2.99277 -0.74384,-6.44661 -0.74384,-6.44661 z"
       id="path93426"
       sodipodi:nodetypes="czzzccssszzzcczzzcc"
       inkscape:export-filename="tim_side.png"
       inkscape:export-xdpi="96"
       inkscape:export-ydpi="96" /><path
       style="fill:#a05a2c;stroke:none;stroke-width:0.529167"
       d="m -114.48986,695.17805 c 0,0 -4.98544,0.35076 -7.08646,1.8959 -2.10102,1.54514 -2.87674,3.7105 -2.75491,4.53308 0.12183,0.82258 16.86037,0.24795 16.86037,0.24795 0,0 1.28496,-5.7349 -0.77392,-6.36024 -2.05888,-0.62533 -6.24508,-0.31669 -6.24508,-0.31669 z"
       id="path93428"
       sodipodi:nodetypes="czzczc" /><path
       style="fill:#ffd5d5;fill-opacity:1;stroke:none;stroke-width:0.529167"
       d="m -130.14023,609.86681 -10.6617,18.10009 3.71919,6.19867 7.93429,-6.69456 z"
       id="path93430"
       sodipodi:nodetypes="ccccc" /><path
       style="fill:#ffd5d5;fill-opacity:1;stroke:none;stroke-width:0.529167"
       d="m -104.15096,607.18193 c 0,0 8.084189,13.04918 8.475299,17.06578 0.39111,4.0166 0.0172,3.47629 -1.48768,5.95071 -1.50484,2.47442 -8.430179,7.4384 -8.430179,7.4384 z"
       id="path93432"
       sodipodi:nodetypes="czzcc" /><path
       style="fill:#ff7f2a;fill-opacity:1;stroke:none;stroke-width:0.529167"
       d="m -132.42705,616.31342 c 0.53731,-7.05671 3.55658,-8.44287 7.31852,-10.51542 3.76194,-2.07255 9.9509,-2.79534 14.37662,-2.1039 4.42572,0.69144 7.05199,2.17837 8.11374,6.42066 0.73142,2.92245 1.91125,12.87259 2.0346,23.17793 0.0557,4.65409 -0.17501,16.36954 -0.17501,16.36954 l -32.16437,-1.11578 c 0.40559,-1.34482 3.92386,-14.11753 3.58372,-18.48988 -1.28889,-16.56897 -3.35172,-10.27732 -3.08782,-13.74315 z"
       id="path93434"
       sodipodi:nodetypes="szzssccss" /><path
       style="fill:#000000;stroke:#000000;stroke-width:0.529167"
       d="m -139.93412,606.27158 c 0,0 -8.28412,3.73801 -10.41375,5.95072 -2.12963,2.21271 -2.97536,5.70277 -2.97536,5.70277 0,0 2.82978,0.77704 5.95071,-0.24794 3.12094,-1.02498 11.40554,-7.68635 11.40554,-7.68635 z"
       id="path93436"
       sodipodi:nodetypes="czczcc" /><path
       style="fill:#ffd5d5;fill-opacity:1;stroke:none;stroke-width:0.529167"
       d="m -148.98417,612.09833 c 0,0 0.80335,14.18093 2.72741,18.1001 1.92407,3.91917 3.0154,5.35956 5.45483,5.70276 2.43943,0.3432 4.8853,-1.71018 5.95072,-3.47125 1.06541,-1.76107 0.47068,-1.87783 -0.4959,-3.71919 -0.96657,-1.84136 -5.45482,-3.47126 -5.45482,-3.47126 l -3.7192,-15.37268 z"
       id="path93438"
       sodipodi:nodetypes="czzzzccc" /><ellipse
       style="fill:#000000;stroke:#000000;stroke-width:0.529167"
       id="ellipse93444"
       cx="-134.23134"
       cy="605.89966"
       rx="5.2068768"
       ry="5.0829043" /><path
       style="fill:#ffd5d5;fill-opacity:1;stroke:none;stroke-width:0.529167"
       d="m -151.83936,611.33319 c 0.29096,-1.24084 6.09624,-5.26151 7.78475,-5.10751 1.68851,0.15401 3.46592,4.42856 3.87033,6.1268 0.40441,1.69823 -0.60133,2.79124 -1.44011,3.54022 -0.83879,0.74898 -4.11973,4.0705 -5.56092,3.75185 -1.44119,-0.31865 -4.94501,-7.07052 -4.65405,-8.31136 z"
       id="path93450"
       sodipodi:nodetypes="zzzzzz" /><path
       style="fill:#ff7f2a;fill-opacity:1;stroke:none;stroke-width:0.529167"
       d="m -125.71351,606.45314 c 0,0 -3.93448,0.44841 -6.16235,2.7938 -2.22787,2.3454 -6.19866,11.52951 -6.19866,11.52951 0,0 -0.15301,4.42886 0.61986,6.45908 0.77288,2.03022 3.67666,5.24318 3.67666,5.24318 l 5.2795,-4.82614 z"
       id="path93460"
       sodipodi:nodetypes="czczccc" /><g
       id="g87723"
       transform="translate(-245.68331,241.66621)"><path
         style="fill:#ffd5d5;stroke:#ffd5d5;stroke-width:0.529167"
         d="m 119.52907,338.65289 c -2.09219,2.34414 -1.88986,2.60889 -2.66847,5.44177 -0.27342,0.99484 -0.07,3.884 0.18749,5.28494 0.48569,2.64266 0.98091,5.75736 0.94143,6.72188 -0.0524,1.27939 -0.43489,3.45745 -0.46132,4.68884 -0.0275,1.27987 1.39127,1.65821 2.77243,1.85919 2.63163,0.38294 11.52649,-0.64789 13.41104,-2.85314 1.88455,-2.20525 2.80658,-6.9218 2.04374,-11.52888 -0.76284,-4.60708 -2.00397,-10.34243 -6.55964,-11.89716 -4.55567,-1.55473 -6.85979,-0.86237 -9.6667,2.28256 z"
         id="path87703"
         sodipodi:nodetypes="sssssszzzs" /><path
         style="fill:#ffd5d5;stroke:#ffd5d5;stroke-width:0.529167"
         d="m 117.77278,347.87521 c -0.34028,0.33298 -1.90227,3.04885 -2.5176,3.86445 -0.61534,0.8156 -0.94224,2.59808 -0.30811,2.94785 0.63413,0.34977 4.31521,-0.24795 4.31521,-0.24795 0,0 -1.14922,-6.89733 -1.4895,-6.56435 z"
         id="path87705"
         sodipodi:nodetypes="zzzcz" /><path
         style="fill:#6c5353;stroke:none;stroke-width:0.529167"
         d="m 128.18835,340.92648 c 0,0 -3.95313,3.41591 -7.12846,3.71919 -3.17532,0.30329 -6.81853,0.12397 -6.81853,0.12397 0,0 0.53496,-5.02528 2.39804,-7.22052 1.86307,-2.19524 4.13451,-3.36677 5.29637,-4.03278 1.16185,-0.666 4.08908,-2.3568 5.6859,-1.65677 1.59683,0.70003 1.3954,3.20307 1.76388,3.45181 0.36848,0.24873 1.54258,-1.06015 4.03718,-0.6261 2.4946,0.43404 3.30904,0.7728 4.89878,3.47125 1.58974,2.69845 2.33939,7.10491 2.01364,10.03303 -0.32575,2.92812 -1.86063,5.57733 -3.06302,7.75895 -1.20239,2.18162 -5.00146,5.59019 -5.00146,5.59019 0,0 1.31069,-6.40157 1.10238,-8.7161 -0.20831,-2.31453 -0.878,-5.28829 -1.71345,-7.3711 -0.83545,-2.08281 -2.13069,-3.30759 -3.47125,-4.52502 z"
         id="path87707"
         sodipodi:nodetypes="czczzzzzzzzczzc" /><path
         style="fill:#ffd5d5;fill-opacity:1;stroke:none;stroke-width:0.529167"
         d="m 130.85378,348.92276 c 0,0 1.57176,-2.04779 2.54145,-2.04556 0.96969,0.002 1.87538,0.71158 2.20053,1.3947 0.32515,0.68312 0.36238,1.93167 0,2.60343 -0.36238,0.67176 -0.65617,1.15197 -1.36371,1.45669 -0.70754,0.30471 -2.10754,-0.5269 -2.10754,-0.5269"
         id="path87709"
         sodipodi:nodetypes="czzzzc" /><path
         id="path87711"
         style="fill:#000000;fill-opacity:1;stroke:none;stroke-width:0.529167"
         d="m 123.60154,355.49345 c -2.29956,0.26822 -4.18068,0.48784 -5.92,0.11578 0.0201,0.26426 -0.004,0.39496 -0.0102,0.55402 -0.0333,0.81319 -0.16624,1.33171 -0.29007,2.39717 0.57167,0.0915 2.01159,0.29169 3.10592,0.11071 1.53113,-0.25322 2.05096,-0.6144 2.5129,-1.47391 0.40273,-0.6787 0.53786,-0.94941 0.60145,-1.70377 z"
         sodipodi:nodetypes="ccscscc" /><path
         style="fill:#ffffff;fill-opacity:1;stroke:#ffffff;stroke-width:0.529167"
         d="m 121.18439,349.37601 c -0.0422,0.56486 0.11734,1.13317 0.67274,1.49212 0.55539,0.35894 0.82397,0.17069 1.48003,-0.11053 0.65607,-0.28122 0.79132,-0.6673 0.87456,-1.27105 0.0832,-0.60376 0.018,-1.30583 -0.33637,-1.54738 -0.35438,-0.24156 -1.2413,-0.49737 -2.00981,-0.0621 -0.34807,0.29704 -0.63893,0.93416 -0.68115,1.49901 z"
         id="path87713"
         sodipodi:nodetypes="zzzzzcz" /><ellipse
         style="fill:#000000;fill-opacity:1;stroke:none;stroke-width:0.529167"
         id="ellipse87715"
         cx="122.14465"
         cy="349.83707"
         rx="1.1622494"
         ry="1.0692694" /><path
         style="fill:#6c5353;fill-opacity:1;stroke:none;stroke-width:0.529167"
         d="m 119.45022,346.27317 c 0,0 0.76377,-0.16717 1.35876,-0.43831 0.59499,-0.27114 1.76526,-0.36824 2.5203,-0.35065 0.75503,0.0176 1.50855,0.28927 1.66558,0.26299 0.15704,-0.0263 0.46101,-0.55089 0.17529,-0.87663 -0.28572,-0.32574 -0.65192,-0.34548 -1.44643,-0.30682 -0.7945,0.0387 -2.67031,0.0616 -3.26543,0.50406 -0.59512,0.44242 -1.00807,1.20536 -1.00807,1.20536 z"
         id="path87717"
         sodipodi:nodetypes="czzzzzzc" /><path
         style="fill:#ffd5d5;fill-opacity:1;stroke:none;stroke-width:0.529167"
         d="m 124.87024,361.63341 -1.8409,1.44643 c 0,0 1.31618,1.11893 2.19155,1.44643 0.87538,0.3275 1.87495,0.44578 2.93669,0.35065 1.06175,-0.0951 2.21607,-0.51103 3.28734,-1.00812 1.07128,-0.49709 2.71754,-1.9724 2.71754,-1.9724 -1.69952,-0.62303 -1.68475,-0.96589 -2.06007,-1.88474 z"
         id="path87719"
         sodipodi:nodetypes="cczzzccc" /><path
         id="path87721"
         style="fill:#d40000;fill-opacity:1;stroke:none;stroke-width:1.32292;stroke-dasharray:none"
         d="m 123.10153,357.02317 c -1.04218,0.0128 -3.22631,0.0704 -4.02198,0.32659 -1.0609,0.34156 -1.54926,0.96067 -1.54926,0.96067 l -0.12247,0.25425 c 0.58752,0.0931 2.00051,0.28488 3.0794,0.10645 1.53113,-0.25322 2.05108,-0.6143 2.51302,-1.47381 0.0364,-0.0614 0.0696,-0.11878 0.10181,-0.17415 -1.9e-4,0 -3.3e-4,0 -5.2e-4,0 z" /></g><path
       style="fill:#ff7f2a;fill-opacity:1;stroke:none;stroke-width:0.529167"
       d="m -104.33255,606.4993 5.522719,8.94156 2.71753,4.6461 -3.59415,2.45455 -5.084419,3.41883 z"
       id="path93462" /></g></svg>
