<?xml version="1.0" encoding="UTF-8" standalone="no"?>
<!-- Created with Inkscape (http://www.inkscape.org/) -->

<svg
   width="58.109528mm"
   height="130.09814mm"
   viewBox="0 0 58.109528 130.09814"
   version="1.1"
   id="svg674"
   inkscape:version="1.2.2 (732a01da63, 2022-12-09)"
   sodipodi:docname="´tim_side.svg"
   xml:space="preserve"
   xmlns:inkscape="http://www.inkscape.org/namespaces/inkscape"
   xmlns:sodipodi="http://sodipodi.sourceforge.net/DTD/sodipodi-0.dtd"
   xmlns="http://www.w3.org/2000/svg"
   xmlns:svg="http://www.w3.org/2000/svg"><sodipodi:namedview
     id="namedview676"
     pagecolor="#ffffff"
     bordercolor="#000000"
     borderopacity="0.25"
     inkscape:showpageshadow="2"
     inkscape:pageopacity="0.0"
     inkscape:pagecheckerboard="0"
     inkscape:deskcolor="#d1d1d1"
     inkscape:document-units="mm"
     showgrid="false"
     inkscape:zoom="1.5091049"
     inkscape:cx="472.46549"
     inkscape:cy="1378.3004"
     inkscape:window-width="1920"
     inkscape:window-height="1027"
     inkscape:window-x="-8"
     inkscape:window-y="-8"
     inkscape:window-maximized="1"
     inkscape:current-layer="layer1"
     showguides="false"><inkscape:grid
       type="xygrid"
       id="grid1241" /></sodipodi:namedview><defs
     id="defs671" /><g
     inkscape:label="Ebene 1"
     inkscape:groupmode="layer"
     id="layer1"
     transform="translate(-202.78324,-332.67223)"><g
       id="g86033"
       transform="translate(130.32853,246.94222)"><path
         style="fill:#37abc8;stroke:none;stroke-width:0.529167"
         d="m 94.715575,157.94194 c 0,0 -4.325214,13.16756 -4.463038,18.1001 -0.137824,4.93254 1.239732,8.92607 2.231518,13.14116 0.991787,4.2151 2.107807,7.02504 3.471253,11.15759 1.363446,4.13255 4.958932,11.65349 4.958932,11.65349 l 6.9425,-0.49589 c 0,0 -8.182366,-18.66256 -7.934289,-26.03439 0.156809,-4.65985 1.217959,-10.68976 2.507329,-14.50314 0.75041,-2.21934 3.86462,-1.30233 4.93106,-1.36544 5.05156,-0.29885 3.57229,-1.69319 4.71099,0.24796 1.1387,1.94114 0.25948,6.03253 0,10.1658 -0.25948,4.13327 0.44271,7.21459 1.73563,12.39733 1.29292,5.18274 6.69455,18.34804 6.69455,18.34804 l 5.20688,-0.49589 c 0,0 -4.00962,-17.2333 -3.96714,-24.05082 0.0425,-6.81752 0.74383,-12.64526 1.48767,-15.86857 0.74384,-3.22331 1.66259,-5.68536 1.48769,-8.67813 -0.1749,-2.99277 -0.74384,-6.44661 -0.74384,-6.44661 z"
         id="path85991"
         sodipodi:nodetypes="czzzccssszzzcczzzcc"
         inkscape:export-filename="tim_side.png"
         inkscape:export-xdpi="96"
         inkscape:export-ydpi="96" /><path
         style="fill:#a05a2c;stroke:none;stroke-width:0.529167"
         d="m 99.762166,208.50799 c 0,0 -5.030835,0.56135 -7.030164,1.75067 -1.999329,1.18932 -3.499358,4.51914 -3.542582,5.29454 -0.04322,0.7754 19.16321,-0.33561 19.16321,-0.33561 0,0 0.45738,-3.5868 0,-4.95893 -0.45738,-1.37213 -1.88087,-2.27406 -1.88087,-2.27406 z"
         id="path85993"
         sodipodi:nodetypes="czzczcc" /><path
         style="fill:#a05a2c;stroke:none;stroke-width:0.529167"
         d="m 119.43373,208.78861 c 0,0 -4.98544,0.35076 -7.08646,1.8959 -2.10102,1.54514 -2.87674,3.7105 -2.75491,4.53308 0.12183,0.82258 16.86037,0.24795 16.86037,0.24795 0,0 1.28496,-5.7349 -0.77392,-6.36024 -2.05888,-0.62533 -6.24508,-0.31669 -6.24508,-0.31669 z"
         id="path85995"
         sodipodi:nodetypes="czzczc" /><path
         style="fill:#ffd5d5;fill-opacity:1;stroke:none;stroke-width:0.529167"
         d="m 95.955307,122.23764 -10.661699,18.10009 3.719196,6.19867 7.93429,-6.69456 z"
         id="path85997"
         sodipodi:nodetypes="ccccc" /><path
         style="fill:#ffd5d5;fill-opacity:1;stroke:none;stroke-width:0.529167"
         d="m 121.94458,119.55276 c 0,0 8.08419,13.04918 8.4753,17.06578 0.39111,4.0166 0.0172,3.47629 -1.48768,5.95071 -1.50484,2.47442 -8.43018,7.4384 -8.43018,7.4384 z"
         id="path85999"
         sodipodi:nodetypes="czzcc" /><path
         style="fill:#ff7f2a;fill-opacity:1;stroke:none;stroke-width:0.529167"
         d="m 93.668486,128.68425 c 0.537318,-7.05671 3.556584,-8.44287 7.318524,-10.51542 3.76194,-2.07255 9.9509,-2.79534 14.37662,-2.1039 4.42572,0.69144 7.05199,2.17837 8.11374,6.42066 0.73142,2.92245 1.91125,12.87259 2.0346,23.17793 0.0557,4.65409 -0.17501,16.36954 -0.17501,16.36954 l -32.164366,-1.11578 c 0.405586,-1.34482 3.923854,-14.11753 3.583715,-18.48988 -1.288887,-16.56897 -3.351721,-10.27732 -3.087823,-13.74315 z"
         id="path86001"
         sodipodi:nodetypes="szzssccss" /><path
         style="fill:#000000;stroke:#000000;stroke-width:0.529167"
         d="m 86.161419,118.64241 c 0,0 -8.284124,3.73801 -10.413754,5.95072 -2.12963,2.21271 -2.975358,5.70277 -2.975358,5.70277 0,0 2.829778,0.77704 5.950717,-0.24794 3.120939,-1.02498 11.405539,-7.68635 11.405539,-7.68635 z"
         id="path86003"
         sodipodi:nodetypes="czczcc" /><path
         style="fill:#ffd5d5;fill-opacity:1;stroke:none;stroke-width:0.529167"
         d="m 77.111372,124.46916 c 0,0 0.803347,14.18093 2.72741,18.1001 1.924063,3.91917 3.015395,5.35956 5.454824,5.70276 2.439429,0.3432 4.885306,-1.71018 5.950718,-3.47125 1.065412,-1.76107 0.470681,-1.87783 -0.495894,-3.71919 -0.966575,-1.84136 -5.454824,-3.47126 -5.454824,-3.47126 l -3.719197,-15.37268 z"
         id="path86005"
         sodipodi:nodetypes="czzzzccc" /><path
         style="fill:#ffd5d5;stroke:#ffd5d5;stroke-width:0.529167"
         d="m 99.941293,92.689928 c -2.092188,2.344141 -1.889863,2.608889 -2.668465,5.441773 -0.273427,0.99484 -0.06999,3.883999 0.187488,5.284939 0.485684,2.64266 0.980907,5.75736 0.941431,6.72188 -0.05236,1.27939 -0.43489,2.92828 -0.461319,4.15967 -0.02747,1.27987 1.391268,1.65821 2.772422,1.85919 2.63163,0.38294 11.52649,-0.11872 13.41104,-2.32397 1.88455,-2.20525 2.80658,-6.9218 2.04374,-11.52888 -0.76284,-4.607075 -2.00397,-10.342427 -6.55964,-11.89716 -4.55567,-1.554733 -6.85979,-0.862374 -9.666697,2.282558 z"
         id="path86007"
         sodipodi:nodetypes="sssssszzzs" /><path
         style="fill:#ffd5d5;stroke:#ffd5d5;stroke-width:0.529167"
         d="m 98.185002,101.91225 c -0.340283,0.33298 -1.902265,3.04885 -2.517602,3.86445 -0.615337,0.8156 -0.942236,2.59808 -0.308109,2.94785 0.634128,0.34977 4.315215,-0.24795 4.315215,-0.24795 0,0 -1.149221,-6.89733 -1.489504,-6.56435 z"
         id="path86009"
         sodipodi:nodetypes="zzzcz" /><ellipse
         style="fill:#000000;stroke:#000000;stroke-width:0.529167"
         id="ellipse86011"
         cx="91.864189"
         cy="118.27052"
         rx="5.2068768"
         ry="5.0829043" /><path
         style="fill:#6c5353;stroke:none;stroke-width:0.529167"
         d="m 108.60057,94.96352 c 0,0 -3.95313,3.415906 -7.12846,3.719191 -3.175319,0.30329 -6.818523,0.123973 -6.818523,0.123973 0,0 0.53496,-5.025283 2.398033,-7.220522 1.863073,-2.195239 4.13451,-3.366776 5.29637,-4.03278 1.16185,-0.666004 4.08908,-2.356804 5.6859,-1.656773 1.59683,0.700029 1.3954,3.203074 1.76388,3.451807 0.36848,0.248733 1.54258,-1.060142 4.03718,-0.626097 2.4946,0.434045 3.30904,0.772804 4.89878,3.471253 1.58974,2.698449 2.33939,7.104909 2.01364,10.033028 -0.32575,2.92812 -1.86063,5.57733 -3.06302,7.75895 -1.20239,2.18162 -5.00146,5.59019 -5.00146,5.59019 0,0 1.31069,-6.40157 1.10238,-8.7161 -0.20831,-2.31453 -0.878,-5.28829 -1.71345,-7.371099 -0.83545,-2.082808 -2.13069,-3.307586 -3.47125,-4.525021 z"
         id="path86013"
         sodipodi:nodetypes="czczzzzzzzzczzc" /><path
         style="fill:#ffd5d5;fill-opacity:1;stroke:none;stroke-width:0.529167"
         d="m 111.266,102.9598 c 0,0 1.57176,-2.04779 2.54145,-2.04556 0.96969,0.002 1.87538,0.71158 2.20053,1.3947 0.32515,0.68312 0.36238,1.93167 0,2.60343 -0.36238,0.67176 -0.65617,1.15197 -1.36371,1.45669 -0.70754,0.30471 -2.10754,-0.5269 -2.10754,-0.5269"
         id="path86015"
         sodipodi:nodetypes="czzzzc" /><path
         style="fill:#ffd5d5;fill-opacity:1;stroke:none;stroke-width:0.529167"
         d="m 74.256177,123.70402 c 0.290963,-1.24084 6.096247,-5.26151 7.784755,-5.10751 1.688507,0.15401 3.465915,4.42856 3.870329,6.1268 0.404413,1.69823 -0.601328,2.79124 -1.440115,3.54022 -0.838787,0.74898 -4.119724,4.0705 -5.560915,3.75185 -1.441191,-0.31865 -4.945017,-7.07052 -4.654054,-8.31136 z"
         id="path86017"
         sodipodi:nodetypes="zzzzzz" /><path
         style="fill:none;fill-opacity:1;stroke:#000000;stroke-width:0.529167"
         d="m 98.062853,111.23501 c 0,0 2.313327,0.23285 3.099327,0.15495 0.786,-0.0779 1.27613,-0.35192 1.92159,-0.68185 0.64546,-0.32997 1.67364,-1.42569 1.67364,-1.42569"
         id="path86019"
         sodipodi:nodetypes="czzc" /><path
         style="fill:#ffffff;fill-opacity:1;stroke:#ffffff;stroke-width:0.529167"
         d="m 101.59661,103.41305 c -0.0422,0.56486 0.11734,1.13317 0.67274,1.49212 0.55539,0.35894 0.82397,0.17069 1.48003,-0.11053 0.65607,-0.28122 0.79132,-0.6673 0.87456,-1.27105 0.0832,-0.60376 0.018,-1.30583 -0.33637,-1.54738 -0.35438,-0.24156 -1.2413,-0.49737 -2.00981,-0.0621 -0.34807,0.29704 -0.63893,0.93416 -0.68115,1.49901 z"
         id="path86021"
         sodipodi:nodetypes="zzzzzcz" /><ellipse
         style="fill:#000000;fill-opacity:1;stroke:none;stroke-width:0.529167"
         id="ellipse86023"
         cx="102.55688"
         cy="103.8741"
         rx="1.1622494"
         ry="1.0692694" /><path
         style="fill:#6c5353;fill-opacity:1;stroke:none;stroke-width:0.529167"
         d="m 99.862443,100.31021 c 0,0 0.763767,-0.16717 1.358757,-0.438309 0.59499,-0.27114 1.76526,-0.36824 2.5203,-0.35065 0.75503,0.0176 1.50855,0.28927 1.66558,0.26299 0.15704,-0.0263 0.46101,-0.55089 0.17529,-0.87663 -0.28572,-0.32574 -0.65192,-0.34548 -1.44643,-0.30682 -0.7945,0.0387 -2.67031,0.0616 -3.26543,0.50406 -0.59512,0.44242 -1.008067,1.205359 -1.008067,1.205359 z"
         id="path86025"
         sodipodi:nodetypes="czzzzzzc" /><path
         style="fill:#ff7f2a;fill-opacity:1;stroke:none;stroke-width:0.529167"
         d="m 100.38203,118.82397 c 0,0 -3.934477,0.44841 -6.162348,2.7938 -2.227872,2.3454 -6.198663,11.52951 -6.198663,11.52951 0,0 -0.15301,4.42886 0.619865,6.45908 0.772875,2.03022 3.676658,5.24318 3.676658,5.24318 l 5.279499,-4.82614 z"
         id="path86027"
         sodipodi:nodetypes="czczccc" /><path
         style="fill:#ff7f2a;fill-opacity:1;stroke:none;stroke-width:0.529167"
         d="m 121.76299,118.87013 5.52272,8.94156 2.71753,4.6461 -3.59415,2.45455 -5.08442,3.41883 z"
         id="path86029" /><path
         style="fill:#ffd5d5;fill-opacity:1;stroke:none;stroke-width:0.529167"
         d="m 105.28246,115.67045 -1.8409,1.44643 c 0,0 1.31618,1.11893 2.19155,1.44643 0.87538,0.3275 1.87495,0.44578 2.93669,0.35065 1.06175,-0.0951 2.21607,-0.51103 3.28734,-1.00812 1.07128,-0.49709 2.71754,-1.9724 2.71754,-1.9724 -1.69952,-0.62303 -1.68475,-0.96589 -2.06007,-1.88474 z"
         id="path86031"
         sodipodi:nodetypes="cczzzccc" /></g></g></svg>
