<?xml version="1.0" encoding="UTF-8" standalone="no"?>
<!-- Created with Inkscape (http://www.inkscape.org/) -->

<svg
   width="59.120758mm"
   height="101.09949mm"
   viewBox="0 0 59.120758 101.09949"
   version="1.1"
   id="svg674"
   inkscape:version="1.2.2 (732a01da63, 2022-12-09)"
   sodipodi:docname="´tim_side.svg"
   xmlns:inkscape="http://www.inkscape.org/namespaces/inkscape"
   xmlns:sodipodi="http://sodipodi.sourceforge.net/DTD/sodipodi-0.dtd"
   xmlns="http://www.w3.org/2000/svg"
   xmlns:svg="http://www.w3.org/2000/svg">
  <sodipodi:namedview
     id="namedview676"
     pagecolor="#ffffff"
     bordercolor="#000000"
     borderopacity="0.25"
     inkscape:showpageshadow="2"
     inkscape:pageopacity="0.0"
     inkscape:pagecheckerboard="0"
     inkscape:deskcolor="#d1d1d1"
     inkscape:document-units="mm"
     showgrid="false"
     inkscape:zoom="0.75455247"
     inkscape:cx="746.13764"
     inkscape:cy="614.93404"
     inkscape:window-width="1920"
     inkscape:window-height="1027"
     inkscape:window-x="-8"
     inkscape:window-y="-8"
     inkscape:window-maximized="1"
     inkscape:current-layer="layer1"
     showguides="false">
    <inkscape:grid
       type="xygrid"
       id="grid1241" />
  </sodipodi:namedview>
  <defs
     id="defs671" />
  <g
     inkscape:label="Ebene 1"
     inkscape:groupmode="layer"
     id="layer1"
     transform="translate(-201.54215,-116.83476)">
    <g
       id="g28741">
      <path
         style="fill:#37abc8;fill-opacity:1;stroke:none;stroke-width:0.529167"
         d="m 222.89413,151.90187 c 0,0 -16.76535,13.3146 -19.58778,19.09188 -2.82243,5.77728 -1.65482,8.08002 -0.62609,10.80694 1.02873,2.72692 3.64321,4.05425 5.15397,4.78238 1.33082,0.64139 4.57756,3.73926 5.38998,7.9656 1.15658,6.01668 -6.9425,18.84393 -6.9425,18.84393 l 9.12632,-0.17532 c 0,0 8.97463,-13.29977 8.56296,-18.21526 -0.41167,-4.91549 -5.10969,-9.21514 -3.39604,-9.08894 1.71365,0.1262 2.85449,-0.64832 4.41792,-0.21786 1.23547,0.34016 3.8952,1.94344 5.5039,5.36325 0.42703,0.90778 1.71937,3.76822 1.81933,4.85391 0.47653,5.17574 -4.71829,17.67059 -4.71829,17.67059 l 8.93338,-0.19037 c 0,0 4.7498,-12.6658 5.20687,-18.10009 0.25454,-3.02634 -0.19799,-6.29978 -2.22399,-9.02868 -2.77939,-3.74367 -3.38178,-5.3949 -4.22262,-6.8399 -0.58306,-1.00199 -2.86809,-3.59462 4.99187,-10.96357 4.76781,-4.46996 8.39725,-9.1201 8.39725,-9.1201 z"
         id="path26758"
         sodipodi:nodetypes="czzsscczzsssccsssscc" />
      <path
         style="fill:#a05a2c;stroke:none;stroke-width:0.529167"
         d="m 234.52174,210.61409 c 0,0 4.54778,0.56135 6.35513,1.75067 1.80735,1.18932 3.16335,4.51914 3.20242,5.29454 0.0391,0.7754 -17.32314,-0.33561 -17.32314,-0.33561 0,0 -0.41346,-3.5868 0,-4.95893 0.41346,-1.37213 1.70027,-2.27406 1.70027,-2.27406 z"
         id="path26829"
         sodipodi:nodetypes="czzczcc" />
      <path
         style="fill:#a05a2c;stroke:none;stroke-width:0.529167"
         d="m 213.09113,211.01868 c 0,0 4.98544,0.35076 7.08646,1.8959 2.10102,1.54514 2.87674,3.7105 2.75491,4.53308 -0.12183,0.82258 -16.86037,0.24795 -16.86037,0.24795 0,0 -1.28496,-5.7349 0.77392,-6.36024 2.05888,-0.62533 6.24508,-0.31669 6.24508,-0.31669 z"
         id="path26831"
         sodipodi:nodetypes="czzczc" />
      <path
         style="fill:#ff7f2a;fill-opacity:1;stroke:none;stroke-width:0.529167"
         d="m 232.48052,146.92208 c -4.1591,-0.083 -5.54533,1.08255 -7.53896,2.1039 -1.99363,1.02135 -0.78887,0.44515 -4.38312,3.50649 -3.59425,3.06134 -15.77922,15.25325 -15.77922,15.25325 0,0 0.67179,3.16927 3.5065,5.25974 2.83471,2.09047 8.38145,3.76037 13.14934,4.20779 4.76789,0.44742 13.85065,-1.4026 13.85065,-1.4026 0,0 12.29324,-11.66863 14.02598,-15.42857 1.73274,-3.75994 2.03261,-5.15991 -0.52598,-8.24026 -2.55859,-3.08035 -12.14609,-5.17676 -16.30519,-5.25974 z"
         id="path26868"
         sodipodi:nodetypes="zzzczzczzz" />
      <path
         style="fill:#ffd5d5;fill-opacity:1;stroke:none;stroke-width:0.529167"
         d="m 222.13636,121.67533 c 0,0 -7.56257,6.3821 -10.51948,10.87012 -2.95691,4.48803 -5.26412,6.17052 -5.61039,8.59092 -0.34626,2.4204 3.9708,4.81046 6.13637,7.01298 2.16556,2.20253 7.36363,6.48701 7.36363,6.48701 l 8.76624,-5.43506 -11.74676,-9.64285 4.73377,-7.01299 4.38312,-6.83766 z"
         id="path27200"
         sodipodi:nodetypes="czzzcccccc" />
      <path
         style="fill:#ff7f2a;fill-opacity:1;stroke:none;stroke-width:0.529167"
         d="m 219.68182,141.48701 c 0,0 -4.04498,0.81055 -5.5486,1.95013 -1.50362,1.13958 -2.86699,5.06286 -2.86699,5.06286 l 9.11689,7.36364 10.62401,-7.01481 c 0,0 -2.15692,-2.19401 -3.92106,-3.73782 -1.76415,-1.5438 -7.40425,-3.624 -7.40425,-3.624 z"
         id="path27601"
         sodipodi:nodetypes="czccczc" />
      <path
         style="fill:#ffd5d5;fill-opacity:1;stroke:none;stroke-width:0.529167"
         d="m 242.56455,132.95768 c 1.00598,0.7943 3.02132,1.35103 4.21508,2.04557 1.19376,0.69454 2.04556,3.71919 2.04556,3.71919 l 4.40106,-2.2935 c 0,0 0.7895,-2.17877 0.062,-3.65721 -0.72753,-1.47844 -1.09112,-2.82584 -2.2935,-3.59523 -1.20238,-0.76939 -4.92063,-2.42497 -6.57058,-1.92159 -1.64995,0.50338 -2.75191,1.16128 -3.09934,2.35549 -0.34743,1.19421 0.23376,2.55298 1.23974,3.34728 z"
         id="path27732"
         sodipodi:nodetypes="zzcczzzzzz" />
      <path
         style="fill:#ffd5d5;fill-opacity:1;stroke:none;stroke-width:0.529167"
         d="m 245.10599,162.27736 c 0,0 12.05528,0.64153 14.75281,-2.23152 2.69753,-2.87305 -2.10275,-13.66253 -3.96714,-18.47202 -1.86439,-4.80949 -6.07469,-10.41375 -6.07469,-10.41375 l -3.47125,3.47125 c 0,0 3.60059,6.03049 4.33906,9.54595 0.73847,3.51545 0.86782,9.54593 0.86782,9.54593 l -5.82675,0.99179 z"
         id="path27657"
         sodipodi:nodetypes="czzcczccc" />
      <path
         style="fill:#ffd5d5;fill-opacity:1;stroke:none;stroke-width:0.529167"
         d="m 231.95454,144.81818 c -1.18839,2.12145 0.8543,3.82442 2.27922,4.90909 1.42492,1.08467 3.63193,1.23489 5.25975,0.87663 1.62782,-0.35826 3.4857,-1.09864 3.85714,-2.62987 0.37144,-1.53123 -1.57793,-4.20779 -2.27922,-4.20779 -0.70129,0 -7.9285,-1.06951 -9.11689,1.05194 z"
         id="path28034"
         sodipodi:nodetypes="zzzzzz" />
      <path
         style="fill:#ffd5d5;fill-opacity:1;stroke:none;stroke-width:0.529167"
         d="m 250.37486,139.28032 c 0,0 -3.52754,0.58154 -4.71098,-0.61987 -1.18344,-1.20141 -1.26507,-4.13763 -0.61987,-5.33084 0.6452,-1.19321 1.56815,-1.86563 2.47946,-1.23974 0.91131,0.62589 -0.97947,2.72571 -0.37192,3.84317 0.60755,1.11746 3.34728,1.73563 3.34728,1.73563 z"
         id="path27730"
         sodipodi:nodetypes="czzzzcc" />
      <path
         style="fill:#6c5353;fill-opacity:1;stroke:none;stroke-width:0.529167"
         d="m 235.98701,127.63636 c -2.79595,1.58817 -6.40018,4.61382 -7.53896,8.06494 -1.13878,3.45112 0.70994,11.50084 3.33117,12.7987 2.62123,1.29785 2.28986,-1.75819 6.2816,-1.06441 3.99174,0.69378 1.38747,4.63403 6.07879,3.08064 4.69131,-1.55338 7.12033,-11.87174 6.22402,-15.69155 -0.89631,-3.81981 -3.32974,-7.78141 -6.31169,-8.94156 -2.98195,-1.16015 -5.26898,0.16507 -8.06493,1.75324 z"
         id="path26866"
         sodipodi:nodetypes="zzzzzzzz" />
      <path
         style="fill:#ff7f2a;fill-opacity:1;stroke:none;stroke-width:0.529167"
         d="m 251.34848,152.66192 c 4.19606,2.19764 8.85682,5.70398 7.30454,9.26039 -6.16417,2.37067 -9.83172,1.5314 -14.53882,2.02869 l -1.36371,-5.45482 0.49589,-5.08291 z"
         id="path27728"
         sodipodi:nodetypes="cccccc" />
      <g
         id="g27838"
         transform="rotate(31.874701,187.50745,242.53864)">
        <path
           style="fill:#000000;stroke:#000000;stroke-width:0.529167"
           d="m 158.35714,116.5064 c 0,0 -8.28412,3.73801 -10.41375,5.95072 -2.12963,2.21271 -2.97536,5.70277 -2.97536,5.70277 0,0 2.82978,0.77704 5.95072,-0.24794 3.12094,-1.02498 11.40554,-7.68635 11.40554,-7.68635 z"
           id="path27805"
           sodipodi:nodetypes="czczcc" />
        <ellipse
           style="fill:#000000;stroke:#000000;stroke-width:0.529167"
           id="ellipse27807"
           cx="164.05992"
           cy="116.13452"
           rx="5.2068768"
           ry="5.0829043" />
      </g>
      <path
         style="fill:#ffd5d5;fill-opacity:1;stroke:none;stroke-width:0.529167"
         d="m 217.4026,118.6948 c -2.35056,1.40115 -2.79402,3.30047 -3.33117,5.25975 -0.53715,1.95929 1.4026,4.03247 1.4026,4.03247 l 8.41558,-0.17533 c 2.37901,0.2081 3.88851,-0.0623 3.81331,-1.84091 0,0 -3.49834,-1.30412 -3.28734,-3.06818 0.211,-1.76406 4.51595,-2.60974 3.15585,-4.90909 -1.3601,-2.29935 -7.81828,-0.69986 -10.16883,0.70129 z"
         id="path27840"
         sodipodi:nodetypes="zzccczzz" />
    </g>
  </g>
</svg>
