<?xml version="1.0" encoding="UTF-8" standalone="no"?>
<!-- Created with Inkscape (http://www.inkscape.org/) -->

<svg
   width="113.66358mm"
   height="26.0037725mm"
   viewBox="0 0 227.32717 52.007545"
   version="1.1"
   id="svg83503"
   inkscape:version="1.2.2 (732a01da63, 2022-12-09)"
   sodipodi:docname="logo_title.svg"
   xmlns:inkscape="http://www.inkscape.org/namespaces/inkscape"
   xmlns:sodipodi="http://sodipodi.sourceforge.net/DTD/sodipodi-0.dtd"
   xmlns="http://www.w3.org/2000/svg"
   xmlns:svg="http://www.w3.org/2000/svg">
  <sodipodi:namedview
     id="namedview83505"
     pagecolor="#ffffff"
     bordercolor="#000000"
     borderopacity="0.25"
     inkscape:showpageshadow="2"
     inkscape:pageopacity="0.0"
     inkscape:pagecheckerboard="0"
     inkscape:deskcolor="#d1d1d1"
     inkscape:document-units="mm"
     showgrid="false"
     inkscape:zoom="0.78127805"
     inkscape:cx="2.5599081"
     inkscape:cy="-15.359448"
     inkscape:window-width="1920"
     inkscape:window-height="1027"
     inkscape:window-x="-8"
     inkscape:window-y="-8"
     inkscape:window-maximized="1"
     inkscape:current-layer="layer1" />
  <defs
     id="defs83500" />
  <g
     inkscape:label="Ebene 1"
     inkscape:groupmode="layer"
     id="layer1"
     transform="translate(106.3323,67.947492)">
    <g
       id="g25678"
       transform="translate(73.149373,-61.296466)"
       inkscape:export-filename=".\title_tough_crowd.svg"
       inkscape:export-xdpi="96"
       inkscape:export-ydpi="96">
      <path
         style="color:#000000;fill:#cccccc;fill-opacity:1;stroke:#cccccc;stroke-width:2.64583;stroke-dasharray:none"
         d="m -84.001039,-0.58657787 c -2.389662,0.68177735 -4.320214,5.37575577 -4.956074,6.92228387 -0.535081,1.7227751 -1.220928,3.94102 -1.434094,5.89772 -0.25822,2.370541 -0.183211,4.380197 -0.506095,6.50413 -0.111023,0.73032 -0.219787,1.488188 -0.273689,2.276411 -0.01918,0.280441 -0.0091,0.351343 -0.0045,0.570605 -0.134986,0.189335 -0.32614,0.466862 -0.465358,0.622065 -0.0793,-0.161729 -0.140575,-0.268831 -0.28849,-0.645003 -0.05042,-0.128218 -0.491498,-1.515265 -0.849853,-2.716088 -0.179177,-0.600411 -0.351483,-1.187152 -0.48072,-1.633888 -0.06462,-0.223367 -0.118023,-0.412063 -0.155964,-0.54754 -0.03794,-0.135477 -0.08089,-0.340069 -0.04584,-0.157013 -0.01714,-0.08941 0.0097,-0.334304 0.01198,-0.474682 0.03356,-0.07323 0.02937,-0.04575 0.06088,-0.124384 0.07377,-0.184159 0.166457,-0.396437 0.160559,-0.78232 -0.0059,-0.385883 -0.34849,-1.089677 -0.862563,-1.314045 -0.168453,-0.07352 -0.410703,-0.05116 -0.642849,-0.01684 -0.165347,-0.198447 -0.307141,-0.353901 -0.625161,-0.672006 l 0.07499,0.0824 c -0.806305,-0.964422 -1.960698,-1.572468 -3.187603,-1.91352 -1.226911,-0.341056 -2.549167,-0.422391 -3.758877,0.05045 -0.85412,0.333848 -1.2936,0.759993 -2.39966,1.601455 -1.10606,0.841462 -2.11344,2.794278 -2.80751,3.964676 -0.3689,0.621517 -0.67782,1.605052 -0.79166,2.068027 -0.11383,0.46298 -0.1952,0.854278 -0.25814,1.014438 -0.0571,0.145278 -0.05,0.146513 -0.0905,0.254535 -0.005,0.0033 -0.0187,0.0035 -0.0236,0.0067 -0.97812,0.881242 -1.6435,1.589301 -2.63867,2.421468 -1.28451,1.05964 -2.72403,1.414048 -3.31477,-0.143392 -0.59074,-1.557439 -0.43284,-1.96431 -0.49908,-3.35107 -0.0606,-1.49887 -0.10339,-2.757705 -0.21912,-3.932976 -0.16805,-1.359016 0.20113,-2.920248 0.16954,-4.179929 l -2.45871,-0.203757 c -0.20886,1.055746 -0.0136,1.253581 -0.26315,2.806063 -0.24955,1.552482 -0.9208,4.752162 -1.3463,5.760052 -0.4255,1.007891 -0.002,0.0035 -0.003,0.0054 -8e-4,0.0019 0.35293,-0.828612 -0.002,0.0058 -0.35471,0.834419 -2.07542,3.328501 -3.23288,3.598514 -1.15746,0.270013 -2.69421,0.143469 -3.26063,-0.576694 -0.99604,-1.257926 -1.14512,-4.85067 -1.02007,-6.178246 0.11721,-1.284108 0.10002,-2.276316 0.28144,-3.269078 0.18142,-0.992762 0.27291,-1.931155 0.21103,-3.4518149 l -2.43215,0.5016299 c -0.0975,1.04425 -0.25068,1.65539 -0.45199,3.129773 -0.29368,2.150896 -0.18896,1.908858 -0.3257,3.407016 -0.38199,3.455552 -0.24702,5.593494 0.53576,7.472827 0.78278,1.879334 2.101,2.205797 2.82794,2.692997 2.20173,1.203727 4.80115,0.69816 6.16628,-0.380876 1.36512,-1.079037 1.90075,-3.285657 2.51205,-4.8561 -0.40152,1.10128 0.50349,4.476454 1.5015,5.165417 0.84092,0.459523 2.08703,0.972241 2.92086,0.822343 0.83383,-0.149898 1.40451,-0.693134 1.7909,-0.988267 0.6135,-0.510994 1.29642,-1.127303 1.67502,-1.601491 0.44244,-0.591584 0.70617,-1.046505 1.21877,-1.575451 0.0495,0.24859 0.12914,0.499515 0.11571,0.936384 -0.0241,0.782995 0.25699,1.224012 0.53237,1.688909 0.2754,0.464899 0.51033,0.851633 1.07022,1.215551 0.36333,0.236163 1.04797,0.688666 1.95271,0.946271 0.90474,0.257603 3.08873,0.447224 4.639482,-0.45167 1.550755,-0.898893 3.518836,-3.34482 4.246721,-4.814928 0.378462,-0.76438 0.692971,-1.381206 0.916297,-2.137305 0.193673,0.636203 0.414788,1.400239 0.544145,1.729208 0.160648,0.408536 0.263381,0.595826 0.380048,0.834974 -0.160279,0.05808 -0.284352,0.112822 -0.449322,0.171401 -1.268835,0.450569 -2.023451,0.65117 -3.007525,1.524229 -1.362457,0.866459 -2.659122,1.7623 -3.056396,2.168957 -1.07615,1.095988 -1.98673,1.53568 -2.76425,2.463569 -0.77752,0.92789 -1.97803,2.195238 -2.81673,4.358563 -0.35906,0.830232 -0.99795,2.32472 -1.08699,3.616563 0.23753,2.640411 0.46626,4.739326 2.75137,5.800884 1.11058,0.433266 3.12194,0.880001 4.432602,0.321024 0.599465,-0.275819 1.608047,-0.881035 2.115768,-1.357471 1.015448,-0.952874 2.343764,-2.041711 3.048421,-3.492442 0.827339,-1.703308 1.895069,-4.527333 2.474089,-6.303548 0.261558,-0.802427 0.428147,-1.901105 0.77127,-2.864963 0.213337,0.04897 0.425974,0.123385 0.68641,0.04029 0.372053,-0.118714 0.62077,-0.386873 0.743324,-0.581373 0.245103,-0.389003 0.232205,-0.595559 0.255518,-0.773536 0.0423,-0.32249 0.07054,-0.535969 0.03788,-0.451577 0.0094,-0.02212 0.02094,-0.05151 0.02959,-0.07194 0.02677,-0.06357 0.05013,-0.117883 0.06835,-0.161331 0.0092,-0.02169 0.0166,-0.03944 0.02469,-0.05952 0.0054,-0.01344 0.02355,-0.06427 0.03836,-0.10849 0.204881,-0.53337 0.483539,-1.086789 0.79888,-1.808337 0.554561,-1.268973 0.903608,-2.660569 1.354282,-3.597027 0.414539,-0.86138 0.548204,-0.917994 1.586958,-2.702209 1.038747,-1.784216 0.394372,-1.398665 2.059071,-2.477933 1.287223,-1.045558 2.775398,0.131955 3.594314,1.441659 0.818915,1.309703 0.18336,2.545859 -0.07536,4.365741 l -0.0013,0.0085 -0.0013,0.0085 c -0.17776,1.978697 -0.648917,4.292776 -0.187515,6.240171 0.09592,0.404816 0.443057,1.241094 0.768673,1.884164 0.325616,0.643069 1.394212,1.7302 2.374299,1.895471 1.958944,0.446415 4.117891,-1.302903 5.229395,-2.115921 1.111505,-0.813018 1.371034,-1.152175 2.092293,-2.120512 0.721258,-0.968338 0.800112,-1.437436 1.237741,-2.018686 L -70.719468,25.0521 c 0.04241,-0.05632 -0.659607,0.650071 -1.294881,1.207455 -0.600878,0.52721 -0.66558,0.796351 -1.533619,1.349594 -0.868045,0.553241 -1.258785,0.724054 -2.317709,0.673706 -0.836526,0.0715 -1.368392,-0.658316 -1.531155,-1.35642 -0.421067,-1.777166 -0.555179,-2.18978 -0.379353,-3.907778 0.17582,-1.718 0.923612,-3.431081 0.230236,-6.253144 -0.225448,-0.951528 -0.929136,-1.600241 -1.561826,-1.959353 -0.632683,-0.359111 -1.251824,-0.534285 -1.691697,-0.684245 -0.555488,-0.189377 -0.940233,-0.202799 -1.107486,-0.247479 -0.331802,-0.102219 -0.458531,-0.158354 -0.665907,-0.227632 -0.03399,-0.01136 -0.170512,-0.0067 -0.223452,-0.02402 0.208728,-0.426964 0.615689,-1.176867 0.845821,-1.703466 1.03324,-2.4172749 2.060497,-4.3718997 2.276198,-6.947658 0.06285,-1.4206645 0.287929,-3.1339336 -0.346232,-4.19076357 -0.634167,-1.05683182 -1.591123,-2.04922143 -3.980778,-1.3674423 z m 1.626517,5.48760637 c -0.435705,2.1186102 -0.787572,3.2479384 -1.493158,5.0457233 -0.978184,2.7163152 -2.662648,5.3675962 -3.800009,7.1118082 -0.386261,0.592831 -0.55302,0.999941 -0.709616,1.221879 0.231336,-2.025263 0.249198,-3.890039 0.454609,-5.775779 0.170817,-1.568247 0.807326,-3.7253952 1.337499,-5.4324569 0.221201,-0.7128969 0.637421,-1.2332958 1.173682,-2.1632346 l 0.0019,-0.00195 c 2.393887,-2.9511065 3.300008,-1.85091 3.035117,-0.00599 z m -14.767842,9.9279025 c 0.233381,0.135936 0.455281,0.718209 0.808455,0.935408 0.04902,0.03016 0.09768,0.05931 0.16969,0.09617 0.0164,0.0084 0.08889,0.02277 0.105169,0.03345 -0.340859,0.930565 -0.553864,1.954742 -0.786189,2.944805 -0.263689,1.123805 -0.565972,1.79982 -1.292492,3.043819 -0.72655,1.243989 -1.988329,3.066526 -3.982819,3.624868 -1.99449,0.558342 -2.84219,-0.375287 -3.23811,-0.909907 -0.87441,-1.185278 -0.23759,-4.870819 0.87811,-6.725164 2.69461,-2.698932 4.07251,-3.745723 5.386098,-3.523865 1.313588,0.221857 1.952088,0.480415 1.952088,0.480415 z m 3.899484,10.887987 c 0.07143,1.311299 -0.728605,3.968246 -1.270809,5.614825 -0.681215,2.068666 -0.238839,1.731251 -1.694134,4.095253 -0.721024,1.171233 -1.57888,2.725928 -2.904382,3.411409 -2.279855,0.719185 -3.961855,-0.352364 -3.824365,-2.697176 0.26838,-2.764192 0.73598,-3.14546 1.79118,-4.731295 1.0552,-1.585833 1.3183,-1.735601 1.833116,-2.411679 0.51481,-0.676081 2.335913,-1.377508 3.154406,-2.066834 0.330987,-0.293624 1.39977,-0.669506 2.682327,-1.124945 0.07887,-0.02801 0.153608,-0.06128 0.232804,-0.08954 z"
         id="path24080"
         sodipodi:nodetypes="zccssccsssscccsscccsszccsccczcccczzzzzccsccsczczcczcccsssszscscscczccccssscssccccsccszczcccssczzccszcczcsscsccczzccccsccccccsccczzcczcsscczzcsccs" />
      <path
         style="color:#000000;fill:#000000;stroke-width:1;-inkscape-stroke:none"
         d="m -84.001039,-0.58657787 c -2.389662,0.68177735 -4.320214,5.37575577 -4.956074,6.92228387 -0.535081,1.7227751 -1.220928,3.94102 -1.434094,5.89772 -0.25822,2.370541 -0.183211,4.380197 -0.506095,6.50413 -0.111023,0.73032 -0.219787,1.488188 -0.273689,2.276411 -0.01918,0.280441 -0.0091,0.351343 -0.0045,0.570605 -0.134986,0.189335 -0.32614,0.466862 -0.465358,0.622065 -0.0793,-0.161729 -0.140575,-0.268831 -0.28849,-0.645003 -0.05042,-0.128218 -0.491498,-1.515265 -0.849853,-2.716088 -0.179177,-0.600411 -0.351483,-1.187152 -0.48072,-1.633888 -0.06462,-0.223367 -0.118023,-0.412063 -0.155964,-0.54754 -0.03794,-0.135477 -0.08089,-0.340069 -0.04584,-0.157013 -0.01714,-0.08941 0.0097,-0.334304 0.01198,-0.474682 0.03356,-0.07323 0.02937,-0.04575 0.06088,-0.124384 0.07377,-0.184159 0.166457,-0.396437 0.160559,-0.78232 -0.0059,-0.385883 -0.34849,-1.089677 -0.862563,-1.314045 -0.168453,-0.07352 -0.410703,-0.05116 -0.642849,-0.01684 -0.165347,-0.198447 -0.307141,-0.353901 -0.625161,-0.672006 l 0.07499,0.0824 c -0.806305,-0.964422 -1.960698,-1.572468 -3.187603,-1.91352 -1.226911,-0.341056 -2.549167,-0.422391 -3.758877,0.05045 -0.85412,0.333848 -1.2936,0.759993 -2.39966,1.601455 -1.10606,0.841462 -2.11344,2.794278 -2.80751,3.964676 -0.3689,0.621517 -0.67782,1.605052 -0.79166,2.068027 -0.11383,0.46298 -0.1952,0.854278 -0.25814,1.014438 -0.0571,0.145278 -0.05,0.146513 -0.0905,0.254535 -0.005,0.0033 -0.0187,0.0035 -0.0236,0.0067 -0.97812,0.881242 -1.6435,1.589301 -2.63867,2.421468 -1.28451,1.05964 -2.72403,1.414048 -3.31477,-0.143392 -0.59074,-1.557439 -0.43284,-1.96431 -0.49908,-3.35107 -0.0606,-1.49887 -0.10339,-2.757705 -0.21912,-3.932976 -0.16805,-1.359016 0.20113,-2.920248 0.16954,-4.179929 l -2.45871,-0.203757 c -0.20886,1.055746 -0.0136,1.253581 -0.26315,2.806063 -0.24955,1.552482 -0.9208,4.752162 -1.3463,5.760052 -0.4255,1.007891 -0.002,0.0035 -0.003,0.0054 -8e-4,0.0019 0.35293,-0.828612 -0.002,0.0058 -0.35471,0.834419 -2.07542,3.328501 -3.23288,3.598514 -1.15746,0.270013 -2.69421,0.143469 -3.26063,-0.576694 -0.99604,-1.257926 -1.14512,-4.85067 -1.02007,-6.178246 0.11721,-1.284108 0.10002,-2.276316 0.28144,-3.269078 0.18142,-0.992762 0.27291,-1.931155 0.21103,-3.4518149 l -2.43215,0.5016299 c -0.0975,1.04425 -0.25068,1.65539 -0.45199,3.129773 -0.29368,2.150896 -0.18896,1.908858 -0.3257,3.407016 -0.38199,3.455552 -0.24702,5.593494 0.53576,7.472827 0.78278,1.879334 2.101,2.205797 2.82794,2.692997 2.20173,1.203727 4.80115,0.69816 6.16628,-0.380876 1.36512,-1.079037 1.90075,-3.285657 2.51205,-4.8561 -0.40152,1.10128 0.50349,4.476454 1.5015,5.165417 0.84092,0.459523 2.08703,0.972241 2.92086,0.822343 0.83383,-0.149898 1.40451,-0.693134 1.7909,-0.988267 0.6135,-0.510994 1.29642,-1.127303 1.67502,-1.601491 0.44244,-0.591584 0.70617,-1.046505 1.21877,-1.575451 0.0495,0.24859 0.12914,0.499515 0.11571,0.936384 -0.0241,0.782995 0.25699,1.224012 0.53237,1.688909 0.2754,0.464899 0.51033,0.851633 1.07022,1.215551 0.36333,0.236163 1.04797,0.688666 1.95271,0.946271 0.90474,0.257603 3.08873,0.447224 4.639482,-0.45167 1.550755,-0.898893 3.518836,-3.34482 4.246721,-4.814928 0.378462,-0.76438 0.692971,-1.381206 0.916297,-2.137305 0.193673,0.636203 0.414788,1.400239 0.544145,1.729208 0.160648,0.408536 0.263381,0.595826 0.380048,0.834974 -0.160279,0.05808 -0.284352,0.112822 -0.449322,0.171401 -1.268835,0.450569 -2.023451,0.65117 -3.007525,1.524229 -1.362457,0.866459 -2.659122,1.7623 -3.056396,2.168957 -1.07615,1.095988 -1.98673,1.53568 -2.76425,2.463569 -0.77752,0.92789 -1.97803,2.195238 -2.81673,4.358563 -0.35906,0.830232 -0.99795,2.32472 -1.08699,3.616563 0.23753,2.640411 0.46626,4.739326 2.75137,5.800884 1.11058,0.433266 3.12194,0.880001 4.432602,0.321024 0.599465,-0.275819 1.608047,-0.881035 2.115768,-1.357471 1.015448,-0.952874 2.343764,-2.041711 3.048421,-3.492442 0.827339,-1.703308 1.895069,-4.527333 2.474089,-6.303548 0.261558,-0.802427 0.428147,-1.901105 0.77127,-2.864963 0.213337,0.04897 0.425974,0.123385 0.68641,0.04029 0.372053,-0.118714 0.62077,-0.386873 0.743324,-0.581373 0.245103,-0.389003 0.232205,-0.595559 0.255518,-0.773536 0.0423,-0.32249 0.07054,-0.535969 0.03788,-0.451577 0.0094,-0.02212 0.02094,-0.05151 0.02959,-0.07194 0.02677,-0.06357 0.05013,-0.117883 0.06835,-0.161331 0.0092,-0.02169 0.0166,-0.03944 0.02469,-0.05952 0.0054,-0.01344 0.02355,-0.06427 0.03836,-0.10849 0.204881,-0.53337 0.483539,-1.086789 0.79888,-1.808337 0.554561,-1.268973 0.903608,-2.660569 1.354282,-3.597027 0.414539,-0.86138 0.548204,-0.917994 1.586958,-2.702209 1.038747,-1.784216 0.394372,-1.398665 2.059071,-2.477933 1.287223,-1.045558 2.775398,0.131955 3.594314,1.441659 0.818915,1.309703 0.18336,2.545859 -0.07536,4.365741 l -0.0013,0.0085 -0.0013,0.0085 c -0.17776,1.978697 -0.648917,4.292776 -0.187515,6.240171 0.09592,0.404816 0.443057,1.241094 0.768673,1.884164 0.325616,0.643069 1.394212,1.7302 2.374299,1.895471 1.958944,0.446415 4.117891,-1.302903 5.229395,-2.115921 1.111505,-0.813018 1.371034,-1.152175 2.092293,-2.120512 0.721258,-0.968338 0.800112,-1.437436 1.237741,-2.018686 L -70.719468,25.0521 c 0.04241,-0.05632 -0.659607,0.650071 -1.294881,1.207455 -0.600878,0.52721 -0.66558,0.796351 -1.533619,1.349594 -0.868045,0.553241 -1.258785,0.724054 -2.317709,0.673706 -0.836526,0.0715 -1.368392,-0.658316 -1.531155,-1.35642 -0.421067,-1.777166 -0.555179,-2.18978 -0.379353,-3.907778 0.17582,-1.718 0.923612,-3.431081 0.230236,-6.253144 -0.225448,-0.951528 -0.929136,-1.600241 -1.561826,-1.959353 -0.632683,-0.359111 -1.251824,-0.534285 -1.691697,-0.684245 -0.555488,-0.189377 -0.940233,-0.202799 -1.107486,-0.247479 -0.331802,-0.102219 -0.458531,-0.158354 -0.665907,-0.227632 -0.03399,-0.01136 -0.170512,-0.0067 -0.223452,-0.02402 0.208728,-0.426964 0.615689,-1.176867 0.845821,-1.703466 1.03324,-2.4172749 2.060497,-4.3718997 2.276198,-6.947658 0.06285,-1.4206645 0.287929,-3.1339336 -0.346232,-4.19076357 -0.634167,-1.05683182 -1.591123,-2.04922143 -3.980778,-1.3674423 z m 1.626517,5.48760637 c -0.435705,2.1186102 -0.787572,3.2479384 -1.493158,5.0457233 -0.978184,2.7163152 -2.662648,5.3675962 -3.800009,7.1118082 -0.386261,0.592831 -0.55302,0.999941 -0.709616,1.221879 0.231336,-2.025263 0.249198,-3.890039 0.454609,-5.775779 0.170817,-1.568247 0.807326,-3.7253952 1.337499,-5.4324569 0.221201,-0.7128969 0.637421,-1.2332958 1.173682,-2.1632346 l 0.0019,-0.00195 c 2.393887,-2.9511065 3.300008,-1.85091 3.035117,-0.00599 z m -14.767842,9.9279025 c 0.233381,0.135936 0.455281,0.718209 0.808455,0.935408 0.04902,0.03016 0.09768,0.05931 0.16969,0.09617 0.0164,0.0084 0.08889,0.02277 0.105169,0.03345 -0.340859,0.930565 -0.553864,1.954742 -0.786189,2.944805 -0.263689,1.123805 -0.565972,1.79982 -1.292492,3.043819 -0.72655,1.243989 -1.988329,3.066526 -3.982819,3.624868 -1.99449,0.558342 -2.84219,-0.375287 -3.23811,-0.909907 -0.87441,-1.185278 -0.23759,-4.870819 0.87811,-6.725164 2.69461,-2.698932 4.07251,-3.745723 5.386098,-3.523865 1.313588,0.221857 1.952088,0.480415 1.952088,0.480415 z m 3.899484,10.887987 c 0.07143,1.311299 -0.728605,3.968246 -1.270809,5.614825 -0.681215,2.068666 -0.238839,1.731251 -1.694134,4.095253 -0.721024,1.171233 -1.57888,2.725928 -2.904382,3.411409 -2.279855,0.719185 -3.961855,-0.352364 -3.824365,-2.697176 0.26838,-2.764192 0.73598,-3.14546 1.79118,-4.731295 1.0552,-1.585833 1.3183,-1.735601 1.833116,-2.411679 0.51481,-0.676081 2.335913,-1.377508 3.154406,-2.066834 0.330987,-0.293624 1.39977,-0.669506 2.682327,-1.124945 0.07887,-0.02801 0.153608,-0.06128 0.232804,-0.08954 z"
         id="path22904"
         sodipodi:nodetypes="zccssccsssscccsscccsszccsccczcccczzzzzccsccsczczcczcccsssszscscscczccccssscssccccsccszczcccssczzccszcczcsscsccczzccccsccccccsccczzcczcsscczzcsccs" />
      <g
         id="g25641">
        <path
           id="path24567"
           style="color:#000000;fill:#cccccc;fill-opacity:1;stroke:#cccccc;stroke-width:2.64583;stroke-dasharray:none"
           d="m -170.28201,-2.6414974 c -0.27516,-0.0025 -0.55211,0.011806 -0.82682,0.049093 -1.97914,0.2686328 -3.45136,1.68426867 -4.54081,3.28972156 -1.08944,1.60545294 -1.44818,3.70419704 -2.08566,5.13870454 l 2.27014,1.0076904 c 0.63047,-1.4187462 1.39028,-2.6968366 2.68149,-3.6995158 1.22175,-0.9487371 2.10064,-1.4478621 2.91921,-1.5487427 1.44476,-0.1780556 2.2887,0.313039 3.47162,0.5038452 1.02616,0.165519 1.91775,0.4995016 3.53208,0.8133871 0.71905,0.1398144 1.73412,0.398167 3.1347,0.5880778 0.006,0.036179 0.0121,0.067836 0.0181,0.1054199 0.0835,0.5287994 0.0935,1.023539 0.29197,2.1549073 0.2115,1.2054408 0.34903,3.1678247 0.62684,4.2193807 0.25653,0.9709774 0.44458,1.9231594 0.57516,3.0964524 0.13881,2.069876 -0.5584,6.476895 -3.01015,9.172567 -1.19105,1.310988 -2.22083,2.095927 -3.40806,2.326473 -2.03792,0.550695 -2.13722,0.3565 -3.41323,-0.841293 -0.41641,-0.651596 -0.63218,-1.268295 -0.63511,-1.440739 l -2.48357,0.03927 c 0.0421,2.349397 1.9988,6.305731 4.53926,6.623886 0.72558,0.07519 2.08726,0.290504 2.85409,0.141593 1.53365,-0.297815 3.39121,-1.197836 4.49275,-2.089795 1.1992,-0.971033 1.86786,-2.035411 2.76366,-3.454569 1.25195,-1.983384 0.97378,-3.012138 1.40818,-4.90151 0.5274,-2.293917 0.41453,-4.349434 0.27027,-5.64565 -0.13854,-1.244757 -0.51349,-2.532116 -0.81236,-3.6633431 -0.27757,-1.0506486 -1.15513,-3.0590388 -1.32136,-4.0064738 -0.11688,-0.6661795 -0.15541,-1.0626424 -0.19896,-1.453658 0.64691,0.1015062 1.52238,0.1952669 3.30109,0.2599324 3.55831,0.1293626 3.26785,0.2641624 5.63738,-0.2899048 2.36954,-0.5540675 5.12494,-1.8153968 7.63468,-2.6649537 l -0.81029,-2.3435261 c -2.5631,0.69104264 -5.28602,1.50770751 -7.69203,1.50843501 l -0.0377,-5.168e-4 -0.0372,0.00155 c -1.34011,0.051954 -4.02973,-0.1003892 -5.27668,-0.1669149 -0.023,-0.001227 0.004,1.046e-4 -0.0176,-0.001034 -0.004,-6.69e-5 -0.001,7.66e-5 -0.006,0 -0.003,-1.623e-4 4.3e-4,1.605e-4 -0.003,0 -0.0174,-2.759e-4 0.005,-1.14e-4 -0.0212,-5.168e-4 -0.006,-5.501e-4 -0.0108,-0.001 -0.0165,-0.00155 -0.005,-2.429e-4 -2e-4,-2.794e-4 -0.005,-5.167e-4 -2.72987,-0.26364257 -4.6497,-0.50248377 -7.55355,-1.09554034 -1.04753,-0.20368507 -3.39327,-0.99641417 -5.04258,-1.26245517 -0.81508,-0.1314711 -1.97542,-0.4568278 -3.16777,-0.4676717 z" />
        <path
           style="color:#000000;fill:#000000;fill-opacity:1;stroke-width:1;-inkscape-stroke:none"
           d="m -157.55638,1.6283584 -2.43984,0.4562542 c 0.10357,0.548208 0.19735,0.9478153 0.28799,1.5218159 0.0835,0.5287999 0.0939,1.0232443 0.29235,2.1546137 0.2115,1.2054421 0.34888,3.1679495 0.62669,4.2195065 0.25653,0.9709783 0.44457,1.9228483 0.57515,3.0961423 0.13881,2.069878 -0.55813,6.477137 -3.00989,9.172811 -1.19105,1.31099 -2.22108,2.095856 -3.40832,2.326402 -2.03792,0.550696 -2.13742,0.356379 -3.41343,-0.841415 -0.41641,-0.651597 -0.63199,-1.268152 -0.63492,-1.440596 l -2.48353,0.03921 c 0.0421,2.349399 1.99891,6.306091 4.53937,6.624246 0.72558,0.07519 2.08691,0.29027 2.85374,0.141359 1.53365,-0.297815 3.39154,-1.197816 4.49308,-2.089776 1.1992,-0.971034 1.86797,-2.035315 2.76377,-3.454475 1.25196,-1.983386 0.97353,-3.012219 1.40793,-4.901593 0.5274,-2.293919 0.41483,-4.34969 0.27057,-5.645908 -0.13854,-1.244758 -0.51372,-2.531803 -0.81259,-3.663031 -0.27757,-1.0506497 -1.15497,-3.0593226 -1.3212,-4.0067585 -0.17922,-1.0215083 -0.17463,-1.4120995 -0.28556,-2.1145765 -0.1038,-0.6572756 -0.20867,-1.1036282 -0.30136,-1.5942366 z"
           id="path22900"
           sodipodi:nodetypes="ccssscccccccssssssssc" />
        <path
           style="color:#000000;fill:#000000;fill-opacity:1;stroke-width:1;-inkscape-stroke:none"
           d="m -141.40584,-1.1545086 c -2.56311,0.69104334 -5.28578,1.50732621 -7.6918,1.50805371 l -0.038,-2.194e-4 -0.0372,0.00129 c -1.34011,0.051954 -4.0294,-0.1001946 -5.27636,-0.1667203 -1.24696,-0.066525 -0.0159,-6.396e-4 -0.0238,-9.299e-4 -0.008,-2.902e-4 0.26175,0.00349 -0.0238,-9.299e-4 -2.74153,-0.26448507 -4.66315,-0.50266427 -7.57476,-1.09730674 -1.04753,-0.20368527 -3.39344,-0.99635747 -5.04276,-1.26239877 -1.00317,-0.1618107 -2.52942,-0.6178113 -3.99454,-0.4189494 -1.97914,0.2686331 -3.45141,1.68423747 -4.54086,3.28969194 -1.08944,1.60545456 -1.44788,3.70437916 -2.08536,5.13888806 l 2.26994,1.0078252 c 0.63047,-1.4187476 1.39043,-2.6967684 2.68165,-3.6994486 1.22175,-0.948738 2.10065,-1.4478186 2.91922,-1.5486994 1.44477,-0.1780557 2.28868,0.3129975 3.4716,0.5038039 1.02616,0.1655192 1.91748,0.4994317 3.53181,0.8133175 0.8222,0.159871 2.03143,0.4747 3.7615,0.6650095 1.73008,0.1903093 1.67371,0.4366143 5.23203,0.5659775 3.55831,0.1293627 3.26779,0.2637877 5.63733,-0.29028 2.36954,-0.5540681 5.12474,-1.8150143 7.63448,-2.6645721 z"
           id="path22902"
           sodipodi:nodetypes="cccczzccsssccsssszzzcc" />
        <path
           id="path23661"
           style="fill:#cccccc;fill-opacity:1;stroke-width:2.64582"
           d="m -130.53706,15.821876 c 0,5.845012 -4.73832,12.49905 -10.58333,12.499052 -5.84502,4e-6 -12.25959,-4.738317 -12.25959,-10.583333 0,-5.845016 6.41457,-12.4990568 12.25959,-12.4990529 5.84501,1.7e-6 10.58333,4.7383206 10.58333,10.5833339 z"
           sodipodi:nodetypes="sssss" />
        <g
           id="g23033"
           inkscape:export-filename="2024\tough_crowd\godot\sprites\faces\jenny_not_amused.svg"
           inkscape:export-xdpi="96"
           inkscape:export-ydpi="96"
           transform="matrix(1.1010995,0,0,1.1010995,-24.693506,-87.716297)"
           style="stroke-width:1.21141">
          <g
             id="g23031"
             transform="matrix(1.21,0,0,1.21,-82.927262,-18.41175)"
             style="stroke-width:1.00116"
             inkscape:export-filename="2024\tough_crowd\godot\sprites\faces\jenny_not_amused.svg"
             inkscape:export-xdpi="96"
             inkscape:export-ydpi="96">
            <path
               style="fill:#ffdd55;fill-opacity:1;stroke:none;stroke-width:0.529782"
               d="m -23.36896,88.206978 -1.239733,3.719198 c 0,0 -0.764225,3.1499 -0.867813,5.020918 0.01693,0.888151 0.171492,2.009608 0.681853,3.103156 l 10.225303,1.00225 c 0,0 0.746511,-1.490873 0.818779,-2.000208 0.219846,-1.549424 0.317997,-2.230511 0.241065,-4.215284 -0.100709,-2.598178 -0.491411,-4.810244 -0.74742,-5.514271 z"
               id="path23009"
               sodipodi:nodetypes="cccccsscc" />
            <path
               style="fill:#deaa87;fill-opacity:1;stroke:none;stroke-width:0.529782"
               d="m -20.765522,87.835059 c -1.184323,0.638814 -2.332287,2.362485 -2.851385,3.595224 -0.519098,1.232739 -0.583585,1.853755 -0.433907,3.409265 0.149678,1.55551 0.458667,4.583653 1.859599,5.640782 1.400932,1.05713 3.115829,1.03499 4.587011,0.18596 1.471182,-0.849028 2.148027,-3.30061 2.603439,-4.95893 0.455412,-1.65832 0.677373,-3.270346 0.247946,-4.710983 -0.429427,-1.440637 -1.358982,-2.936247 -2.541452,-3.471251 -1.18247,-0.535004 -2.286928,-0.328881 -3.471251,0.309933 z"
               id="path23011"
               sodipodi:nodetypes="zzzzzzzzz" />
            <path
               style="fill:#ffdd55;fill-opacity:1;stroke:none;stroke-width:0.529782"
               d="m -23.244987,92.112136 3.657211,0.123973 3.843171,0.247946 c 0,0 0.0994,-2.211136 -0.371919,-2.913372 -0.471316,-0.702236 -1.043271,-0.847817 -1.859599,-1.053772 -0.816328,-0.205955 -1.867223,-0.51229 -2.913372,0.06199 -1.046149,0.57428 -2.355492,3.533235 -2.355492,3.533235 z"
               id="path23013"
               sodipodi:nodetypes="ccczzzc" />
            <path
               style="fill:#ffdd55;fill-opacity:1;stroke:none;stroke-width:0.529782"
               d="m -23.988827,90.872404 c 0,0 0.468082,-2.497254 0.991786,-3.285291 0.523704,-0.788037 1.0887,-0.994892 2.107546,-1.301721 1.018846,-0.306829 2.869059,-0.381597 3.905158,-0.123973 1.036099,0.257624 1.583552,0.488327 2.169532,1.239734 0.58598,0.751407 0.867813,3.099332 0.867813,3.099332 0,0 -1.524401,-0.235973 -2.107545,-0.712847 -0.583145,-0.476873 -1.422447,-0.697205 -2.60344,-0.836821 -1.180992,-0.139617 -2.738314,0.428045 -3.223305,0.588873 -0.484991,0.160828 -1.843169,1.178079 -2.107545,1.332714 z"
               id="path23015"
               sodipodi:nodetypes="czzzzczzzc" />
            <path
               style="fill:#deaa87;fill-opacity:1;stroke:none;stroke-width:0.529782"
               d="m -23.864854,92.948955 c 0,0 -0.656883,-0.02939 -0.898806,0.309935 -0.241923,0.339324 -0.09745,1.124521 0,1.549665 0.09745,0.425144 0.227144,0.820277 0.4649,0.960792 0.237756,0.140515 0.588873,-0.03099 0.588873,-0.03099 z"
               id="path23017"
               sodipodi:nodetypes="czzzcc" />
            <path
               style="fill:#deaa87;fill-opacity:1;stroke:none;stroke-width:0.529782"
               d="m -15.133358,93.537828 c 0,0 0.656883,-0.02939 0.898806,0.309935 0.241923,0.339324 0.09745,1.124521 0,1.549665 -0.09745,0.425144 -0.227144,0.820277 -0.4649,0.960792 -0.237756,0.140515 -0.588873,-0.03099 -0.588873,-0.03099 z"
               id="path23019"
               sodipodi:nodetypes="czzzcc" />
            <path
               style="fill:#ffffff;fill-opacity:1;stroke:none;stroke-width:0.529782"
               d="m -21.571348,92.762997 c -0.377641,0.0092 -0.444835,0.214993 -0.588873,0.526886 -0.144038,0.311893 -0.141712,0.932941 -0.03099,1.270725 0.110722,0.337784 0.242788,0.605357 0.526887,0.681852 0.284099,0.07649 0.588663,-0.07606 0.836819,-0.340926 0.248156,-0.264867 0.531304,-0.768674 0.402914,-1.208738 -0.12839,-0.440064 -0.769116,-0.938978 -1.146757,-0.929799 z"
               id="path23021"
               sodipodi:nodetypes="zzzzzzz" />
            <path
               style="fill:#ffffff;fill-opacity:1;stroke:none;stroke-width:0.529782"
               d="m -17.43559,92.97995 c 0.377641,0.0092 0.444835,0.214993 0.588873,0.526886 0.144038,0.311893 0.141712,0.932941 0.03099,1.270725 -0.110722,0.337784 -0.242788,0.605357 -0.526887,0.681852 -0.284099,0.07649 -0.588663,-0.07606 -0.836819,-0.340926 -0.248156,-0.264867 -0.531304,-0.768674 -0.402914,-1.208738 0.12839,-0.440064 0.769116,-0.938978 1.146757,-0.929799 z"
               id="path23023"
               sodipodi:nodetypes="zzzzzzz" />
            <ellipse
               style="fill:#000000;fill-opacity:1;stroke:none;stroke-width:0.529782"
               id="ellipse23025"
               cx="-21.447374"
               cy="94.219681"
               rx="0.61986631"
               ry="0.71284634" />
            <ellipse
               style="fill:#000000;fill-opacity:1;stroke:none;stroke-width:0.529782"
               id="ellipse23027"
               cx="-17.635197"
               cy="94.43663"
               rx="0.61986631"
               ry="0.71284634" />
            <path
               style="fill:none;fill-opacity:1;stroke:#1a1a1a;stroke-width:0.529782"
               d="m -21.726315,99.054638 c 0,0 0.930076,-2.698677 1.797613,-2.727412 0.867537,-0.02873 1.549665,3.068338 1.549665,3.068338"
               id="path23029"
               sodipodi:nodetypes="czc" />
          </g>
        </g>
        <path
           id="path23664"
           style="fill:#cccccc;fill-opacity:1;stroke-width:2.64582"
           d="m 0.60903894,18.039335 c 0,5.845012 -2.82260074,8.907077 -9.38600584,11.301728 -5.4909691,2.003374 -13.4569131,-2.583133 -13.4569131,-8.428149 0,-5.845016 4.019921,-16.0910327 9.864941,-16.0910288 5.845009,1.7e-6 12.97797794,7.3724358 12.97797794,13.2174498 z"
           sodipodi:nodetypes="sssss" />
        <g
           id="g23057"
           inkscape:export-filename="moritz_not_amused.svg"
           inkscape:export-xdpi="96"
           inkscape:export-ydpi="96"
           transform="matrix(0.93447386,0,0,0.94379949,-34.436176,-45.809538)"
           style="stroke-width:1.42035">
          <path
             style="fill:#000000;fill-opacity:1;stroke:none;stroke-width:0.751602"
             d="m 16.922351,63.722257 c 0,0 -1.5462,2.84085 -1.487679,4.029133 0.05852,1.188283 0.592943,1.308581 0.867812,1.921584 0.274869,0.613003 -0.371919,1.642647 -0.309933,2.41748 0.06199,0.774833 0.236043,1.398939 0.619867,1.983573 0.383824,0.584635 1.983572,0.805826 1.983572,0.805826 l 3.967144,-0.06199 7.376409,-1.239733 1.983574,-0.247943 c 0,0 1.664835,-0.782226 2.045562,-1.673639 0.380728,-0.891413 0.852276,-2.096721 0.495894,-3.161319 -0.356382,-1.064598 -1.797613,-3.037346 -1.797613,-3.037346 l -0.681853,-1.053771 -3.967144,-3.719197 -5.020918,-0.619869 z"
             id="path23035"
             sodipodi:nodetypes="czzzzcccczzccccc" />
          <path
             style="fill:#aa4400;fill-opacity:1;stroke:none;stroke-width:0.751602"
             d="m 18.100097,65.581857 c -0.801782,2.096943 -0.506086,6.527542 0.433906,8.678129 0.939993,2.150588 1.62141,3.190426 3.905159,4.029131 2.283748,0.838704 4.217884,0.677624 6.322635,-0.619866 2.104752,-1.29749 3.486899,-3.720361 3.471251,-5.764758 -0.01565,-2.044396 -0.137523,-5.004951 -1.053772,-6.942502 -0.916249,-1.937551 -0.851218,-4.275545 -2.975357,-5.082903 -2.124139,-0.807358 -6.079897,-1.003575 -7.19045,0.433906 -1.110553,1.43748 -2.217505,3.537022 -2.913372,5.268863 z"
             id="path23037"
             sodipodi:nodetypes="czzzzzzzc" />
          <path
             style="fill:#000000;fill-opacity:1;stroke:none;stroke-width:0.751602"
             d="m 26.158359,57.523596 c 0,0 -2.473401,-2.413372 -3.781185,-2.541453 -1.307784,-0.128081 -2.313174,0.851605 -3.161318,1.611652 -0.848144,0.760047 -0.396641,4.148807 -1.239732,4.215092 -0.843092,0.06628 -1.883954,-0.118425 -2.355493,2.045559 -0.471539,2.163985 1.128875,4.812068 1.673639,4.958929 0.544763,0.146861 2.033161,-1.146011 2.727412,-2.045558 0.694252,-0.899547 0.578255,-2.358281 0.867813,-3.409266 0.289558,-1.050985 1.288355,-1.270841 1.921586,-1.425691 0.633231,-0.15485 2.140096,2.191769 2.140096,2.191769 z"
             id="path23039"
             sodipodi:nodetypes="czzzzzzzzcc" />
          <path
             style="fill:#aa4400;fill-opacity:1;stroke:none;stroke-width:0.751602"
             d="m 30.90334,67.379471 c 0,0 1.420847,-0.787487 2.107546,0.06198 0.686699,0.849472 0.482957,1.895152 0.18596,2.417478 -0.296998,0.522327 -1.735626,1.363708 -1.735626,1.363708 z"
             id="path23041"
             sodipodi:nodetypes="czzcc" />
          <path
             style="fill:#000000;fill-opacity:1;stroke:#000000;stroke-width:0.751602"
             d="m 25.352533,57.523596 c 0,0 2.486465,-0.906943 3.595225,-0.681855 1.10876,0.225088 2.504205,0.312246 3.161319,1.177747 0.657114,0.865501 -0.0026,2.952532 0.495892,3.781185 0.498517,0.828653 1.349748,0.772989 1.673638,1.735624 0.32389,0.962635 0.781427,1.875586 0.18596,2.913374 -0.595467,1.037788 -0.991786,1.859598 -0.991786,1.859598 0,0 -2.771597,-0.587598 -2.975357,-1.425691 -0.203761,-0.838094 -0.416501,-1.137277 -10e-7,-2.293507 0.4165,-1.15623 -1.032483,-3.33457 -2.603437,-2.913371 -1.570954,0.421199 -2.665426,0.991786 -2.665426,0.991786 z"
             id="path23043"
             sodipodi:nodetypes="czzzzzczzzcc" />
          <path
             style="fill:#ffffff;fill-opacity:1;stroke:none;stroke-width:0.751602"
             d="m 21.943268,66.635629 c -0.498488,0.166162 -1.139876,0.375921 -1.363706,1.053774 -0.22383,0.677853 -0.210123,1.068902 0.18596,1.611653 0.396083,0.542751 1.037467,0.728392 1.425692,0.681854 0.388225,-0.04654 0.780608,-0.285188 0.991787,-0.55788 0.211179,-0.272692 0.454397,-1.167681 0.123973,-1.921587 -0.330425,-0.753907 -0.865218,-1.033976 -1.363706,-0.867814 z"
             id="path23045"
             sodipodi:nodetypes="zzzzzzz" />
          <path
             style="fill:#ffffff;fill-opacity:1;stroke:none;stroke-width:0.751602"
             d="m 27.212132,66.387682 c -0.498488,0.166162 -1.139876,0.375921 -1.363706,1.053774 -0.22383,0.677853 -0.148137,1.130889 0.247946,1.67364 0.396083,0.542751 0.727534,0.666405 1.425692,0.681854 0.698158,0.01545 0.780608,-0.285188 0.991787,-0.55788 0.211179,-0.272692 0.392411,-1.229668 0.06199,-1.983574 -0.330425,-0.753907 -0.865218,-1.033976 -1.363706,-0.867814 z"
             id="path23047"
             sodipodi:nodetypes="zzzzzzzz" />
          <ellipse
             style="fill:#1a1a1a;fill-opacity:1;stroke:none;stroke-width:0.751602"
             id="ellipse23049"
             cx="22.005255"
             cy="68.867149"
             rx="1.1777461"
             ry="1.1777459" />
          <ellipse
             style="fill:#1a1a1a;fill-opacity:1;stroke:none;stroke-width:0.751602"
             id="ellipse23051"
             cx="27.336105"
             cy="68.929138"
             rx="1.1777461"
             ry="1.1777459" />
          <path
             style="fill:none;fill-opacity:1;stroke:#000000;stroke-width:0.751602"
             d="m 23.306974,76.367531 c 0,0 0.260229,-4.542781 1.983572,-4.648997 1.723343,-0.106216 2.665427,4.58701 2.665427,4.58701"
             id="path23053"
             sodipodi:nodetypes="czc" />
          <path
             style="fill:#aa4400;fill-opacity:1;stroke:none;stroke-width:0.751602"
             d="m 19.029896,67.503444 c 0,0 -1.420847,-0.787487 -2.107546,0.06198 -0.686699,0.849472 -0.482957,1.895152 -0.18596,2.417478 0.296998,0.522327 1.735626,1.363708 1.735626,1.363708 z"
             id="path23055"
             sodipodi:nodetypes="czzcc" />
        </g>
        <path
           style="color:#000000;fill:#cccccc;fill-opacity:1;stroke:#cccccc;stroke-width:2.64583;stroke-dasharray:none"
           d="M 0.76865253,10.385229 C 2.109962,10.225621 3.504471,10.519707 4.3584304,11.427081 c 0.24477,0.260058 0.3776501,0.760756 0.26771,1.687712 -0.10994,0.926963 -0.4667697,2.13347 -0.8744493,3.391108 -0.4076801,1.257638 -1.1040594,2.549822 -1.3691795,3.818597 -0.2651096,1.268784 -0.9418394,4.060335 -0.3358497,5.250361 1.7067592,3.351699 5.1520669,4.373321 7.9819251,3.864628 1.6815,-0.302268 3.18187,-2.599537 4.0344,-3.838501 0.12552,-0.182427 0.20144,-0.366465 0.31452,-0.551759 0.12759,0.359085 0.31777,1.048928 0.56511,1.425071 0.78517,1.194042 1.812529,2.052594 3.14833,2.690131 1.335801,0.637538 3.182672,0.608704 4.582699,-0.22098 0.653037,-0.386996 1.14332,-0.98814 1.375548,-1.620642 0.232261,-0.632485 0.246897,-1.250859 0.207722,-1.828357 -0.07836,-1.154993 -0.162972,-2.180674 -0.192965,-3.170763 -0.0355,-1.172048 -0.283051,-2.886002 -0.480558,-4.52289 -0.135479,-1.122799 -0.387441,-2.189776 -0.748465,-3.188744 0.677803,0.325191 1.404148,0.529155 2.171784,0.590585 -0.492825,1.690532 -0.835803,3.117684 -0.817975,4.621862 0.02098,1.770432 0.630428,4.769623 1.57339,6.373827 0.942956,1.604202 3.020086,2.58761 5.025905,2.78792 1.736965,0.173458 3.73635,-0.323924 5.056349,-1.539782 1.147246,-1.056727 2.14873,-2.766268 2.581578,-5.070701 0.520714,0.525828 0.530572,0.872425 1.051413,1.366279 2.053806,1.947393 3.921201,3.462742 3.921201,3.462742 l 2.775242,-3.362312 c 0,0 -1.00199,-1.38363 -2.848466,-2.778246 C 42.382368,20.35201 41.205697,18.908114 40.507754,17.208333 39.809809,15.508559 39.126577,12.702883 38.778445,10.9565 38.430312,9.2101181 38.391383,8.9457161 37.969896,6.1544041 37.126923,0.57177501 36.040117,-4.3239569 36.040117,-4.3239569 c -0.729265,-0.137582 -1.281177,-0.882167 -2.454303,0.267024 l -5.05e-4,9e-6 c 0,0 0.01069,8.340795 0.118262,11.894798 0.01439,0.47522 -0.05528,0.883864 -0.07867,1.327462 -0.02382,-0.0047 -0.0472,-0.01637 -0.0711,-0.02044 -0.69981,-0.127658 -1.420136,-0.170244 -2.115316,-0.186645 -0.69518,-0.0164 -1.293518,0.04288 -2.102064,0.334827 -1.512335,0.546121 -2.475181,1.8425469 -3.240924,3.2838759 -0.199986,0.06151 -0.437278,0.209078 -0.614571,0.218325 -0.695775,0.03628 -2.535383,-0.960779 -4.16595,-1.986115 -0.81528,-0.512667 -1.583051,-1.0042709 -2.442437,-1.2731599 -0.429649,-0.134597 -0.9165,-0.228564 -1.472422,-0.09077 -0.555922,0.137791 -1.088031,0.5888349 -1.346849,1.0953899 -0.191835,0.375467 -0.335887,0.781574 -0.309252,1.264555 0.02663,0.482986 0.299306,0.98352 0.613907,1.264599 0.629198,0.56217 1.205063,0.607661 1.736002,0.721839 1.061886,0.228351 1.87636,0.470804 2.089129,0.807013 0.391156,0.618089 0.754482,2.011875 0.93354,3.49589 0.179064,1.484016 0.227873,3.065885 0.263445,4.240114 0.04108,1.356187 -0.201701,1.179521 -0.368181,1.950246 -0.08915,0.412872 -0.225784,0.606203 -0.319256,0.729024 -0.1773,0.232977 -0.33357,0.385724 -0.613667,0.437014 -0.414178,0.07584 -0.957779,0.45992 -1.692509,0.185421 -0.965638,-0.360762 -0.922875,-0.334309 -1.555952,-1.108859 -0.09069,-0.110967 -0.270819,-0.594412 -0.322038,-1.294317 -0.05122,-0.699904 -0.01426,-1.569484 0.01653,-2.418308 0.03078,-0.84882 0.07405,-1.654796 -0.08356,-2.44764 -0.07881,-0.39642 -0.202211,-0.829415 -0.582561,-1.238564 -0.380351,-0.409143 -1.073038,-0.633734 -1.611998,-0.567496 -0.35766,0.04396 -0.71658,0.123887 -1.08174,0.381734 -0.36516,0.257848 -0.65061,0.764276 -0.69466,1.177099 -0.0881,0.825645 0.22382,1.21084 0.42047,1.602813 0.39332,0.783947 0.60299,1.371327 0.54064,1.562358 -0.25054,0.767651 -0.75719,1.953507 -1.41643,2.911571 -0.65924,0.958064 -1.43126,1.117724 -2.0876697,1.235722 C 8.0814582,25.764286 5.7741299,24.350825 5.3884498,23.097917 5.0027601,21.845008 4.8376201,21.891947 5.0547801,20.852631 5.2719502,19.813311 5.6965698,18.55574 6.1127095,17.272122 6.5287892,15.98848 6.9410988,14.68169 7.0920188,13.409424 7.2429188,12.137146 7.1278188,10.753029 6.1660695,9.7310941 4.6069004,8.0744621 2.3667916,7.6977411 0.47210293,7.9232061 -0.47525641,8.0359331 -0.4069703,8.2335664 -1.1659297,8.6179074 Z M -23.624491,12.64899 c -0.783358,0.494605 -0.422158,0.468712 -1.294342,0.616539 -0.844777,0.143172 -1.429544,0.07426 -1.771561,-0.04556 0.0449,-0.181849 0.11787,-0.42272 0.23283,-0.790596 0.141457,-0.452682 0.423547,-1.080532 -0.005,-1.931505 -0.21451,-0.425489 -0.647307,-0.7602189 -1.057694,-0.9080209 -0.4104,-0.147821 -0.810607,-0.177727 -1.259544,-0.164887 -0.864284,0.02471 -1.506591,0.565634 -1.923548,1.1152169 -0.0377,0.04975 -0.0526,0.121663 -0.0884,0.172927 -0.10982,-0.168491 -0.21835,-0.404134 -0.32633,-0.550271 -0.197487,-0.2673099 -0.380367,-0.4923339 -0.617917,-0.7039659 -0.118767,-0.10581 -0.246457,-0.213676 -0.470727,-0.318547 -0.224257,-0.104849 -0.647954,-0.243003 -1.142171,-0.0303 -0.4058,0.174668 -0.49027,0.340541 -0.591687,0.467018 -0.1014,0.126478 -0.17243,0.239177 -0.24464,0.360521 -0.14443,0.2426959 -0.282417,0.5155059 -0.433837,0.8341769 -0.302837,0.637356 -0.649897,1.446547 -1.020714,2.309976 -0.741627,1.726851 -1.605791,3.706115 -2.152818,4.59854 -0.685777,1.118785 -1.642381,2.838295 -2.840975,4.310956 -1.198591,1.472662 -2.590895,2.586834 -3.937726,2.763333 -1.519821,0.199171 -2.773295,0.280227 -4.353036,-0.338475 -0.789867,-0.309351 -1.877338,-0.7142 -2.694305,-1.480782 -0.816954,-0.766582 -1.321171,-1.511411 -1.486431,-2.324188 -0.17808,-0.885651 -0.714007,-2.106708 -0.563477,-3.482336 0.19386,-1.771516 0.755787,-3.585931 1.458991,-5.720262 1.051034,-0.109498 2.086288,-0.242828 2.933805,-0.441903 4.140116,-0.9724799 7.210958,-3.0858459 9.116706,-5.5113569 0.888537,-1.130866 2.067151,-2.569939 2.830045,-4.0595061 0.381447,-0.74477699 0.790177,-1.76161296 0.819647,-2.6201759 0.0295,-0.85857 0.0959,-2.626847 -0.621537,-3.28615 -0.715287,-0.65735 -2.194448,-0.826991 -3.129032,-0.814124 -0.934587,0.01286 -2.151008,0.62272 -2.830195,1.064814 -1.358381,0.884188 -2.587805,1.58147 -3.572449,2.391445 -1.918101,1.57782394 -2.512868,2.45555291 -6.378934,9.017429 -0.36272,0.615635 -0.625117,1.249627 -0.900957,1.880901 -0.920594,0.04174 -1.854248,0.08756 -2.768992,0.019 -2.437308,-0.182672 -5.42698,-1.851554 -5.42698,-1.851554 l -1.362828,1.4848804 c 0,0 3.865713,2.6322625 6.606258,2.8376855 0.695607,0.05213 1.005794,-0.07684 1.698391,-0.08228 -1.108144,1.90584 -1.831371,3.924645 -2.354028,5.684647 -0.452007,1.522105 -0.511567,3.772547 0.15829,5.525769 0.669867,1.753228 2.130798,3.7885 3.126002,4.369738 0.995204,0.581239 2.436855,1.432739 3.537919,1.758121 2.553388,0.754541 4.593376,0.639271 6.621964,-0.240372 2.394805,-1.038444 4.247786,-3.014823 5.631357,-4.714758 1.383574,-1.699934 2.187808,-3.477821 2.801045,-4.844861 0.595957,-1.328535 1.575021,-3.190674 2.315378,-4.914564 0.270147,-0.629044 0.493817,-1.128276 0.716944,-1.623319 0.1675,0.281059 0.32231,0.488003 0.487167,0.824701 0.0754,0.153958 0.10448,0.320083 0.1723,0.48167 -0.328527,1.168024 -0.663827,2.181483 -1.010414,3.415288 -0.394737,1.405236 -0.630697,2.931246 -0.706427,4.106284 -0.0379,0.58752 -0.311957,2.848726 -0.298697,3.491578 0.0264,1.278257 0.0459,1.460442 0.0691,1.550316 0.106157,0.412656 0.264647,0.455487 0.388027,0.743252 0.0617,0.143884 0.143,0.480575 0.731557,0.693146 0.294277,0.106298 0.681684,0.07528 0.921674,-0.02826 0.239987,-0.103534 0.363227,-0.230069 0.444677,-0.322143 0.325787,-0.368296 0.259067,-0.436069 0.289237,-0.535441 0.19626,-0.646371 0.38916,-2.447996 0.548077,-4.160726 0.11928,-1.285567 0.25985,-2.605998 0.591937,-4.401207 0.39079,-2.112613 1.308464,-7.08279 0.804987,-5.196063 -0.0759,0.623368 0.178597,1.650195 0.940204,2.142619 1.161244,0.750802 2.245561,0.635132 3.768299,0.466211 1.522738,-0.168921 1.100375,-0.545591 2.237675,-1.241669 z m 56.860282,-0.01404 c 0.140017,0.13833 0.926929,0.333281 1.064604,0.471393 0.78495,1.076191 0.955834,1.48845 1.660699,3.064949 0.402753,0.900789 0.569183,2.125204 0.678801,3.338178 -0.920432,1.52923 -1.164276,3.000181 -2.809336,4.563842 -0.796656,0.772805 -1.744423,0.804254 -3.0271,0.676159 -1.013822,-0.101243 -2.204325,-0.512475 -2.899986,-1.695959 -0.695659,-1.18349 -0.928042,-1.714719 -1.060244,-3.150011 -0.123031,-1.335701 0.101737,-3.415104 1.427065,-5.442817 1.325335,-2.027711 3.685107,-2.328746 4.965497,-1.825734 z M -40.134668,-2.1606529 c 0.26559,-0.03662 0.31594,-0.03396 0.528817,0.161678 0.21077,0.193689 0.23335,0.273407 0.22324,0.568104 -0.0101,0.294702 -0.15187,0.78186497 -0.437357,1.33928394 -0.570987,1.11484496 -1.650941,2.46141606 -2.563335,3.62264506 -1.696091,2.158679 -3.998799,4.209471 -7.464188,5.023464 -0.33311,0.07825 -0.816377,0.112839 -1.208534,0.178461 0.0592,-0.106567 0.0932,-0.220276 0.1554,-0.325798 3.779249,-6.4145071 3.924366,-5.910578 5.743827,-7.60949909 1.067844,-0.99710097 2.341965,-1.86706591 3.365649,-2.53339891 0.51184,-0.333169 1.390894,-0.388322 1.656481,-0.42494 z"
           id="path25055"
           sodipodi:nodetypes="cssssssscssscsssccsssscsccszzscccscczccsscsssssssssssssssssssssssszscssscccscssssscsscssssssssszcscssssszssscsccscszzssssscscsssssssscsscszccsscccsszcssssssccssss" />
        <path
           style="color:#000000;fill:#000000;stroke-width:1;-inkscape-stroke:none"
           d="M 0.76865253,10.385229 C 2.109962,10.225621 3.504471,10.519707 4.3584304,11.427081 c 0.24477,0.260058 0.3776501,0.760756 0.26771,1.687712 -0.10994,0.926963 -0.4667697,2.13347 -0.8744493,3.391108 -0.4076801,1.257638 -1.1040594,2.549822 -1.3691795,3.818597 -0.2651096,1.268784 -0.9418394,4.060335 -0.3358497,5.250361 1.7067592,3.351699 5.1520669,4.373321 7.9819251,3.864628 1.6815,-0.302268 3.18187,-2.599537 4.0344,-3.838501 0.12552,-0.182427 0.20144,-0.366465 0.31452,-0.551759 0.12759,0.359085 0.31777,1.048928 0.56511,1.425071 0.78517,1.194042 1.812529,2.052594 3.14833,2.690131 1.335801,0.637538 3.182672,0.608704 4.582699,-0.22098 0.653037,-0.386996 1.14332,-0.98814 1.375548,-1.620642 0.232261,-0.632485 0.246897,-1.250859 0.207722,-1.828357 -0.07836,-1.154993 -0.162972,-2.180674 -0.192965,-3.170763 -0.0355,-1.172048 -0.283051,-2.886002 -0.480558,-4.52289 -0.135479,-1.122799 -0.387441,-2.189776 -0.748465,-3.188744 0.677803,0.325191 1.404148,0.529155 2.171784,0.590585 -0.492825,1.690532 -0.835803,3.117684 -0.817975,4.621862 0.02098,1.770432 0.630428,4.769623 1.57339,6.373827 0.942956,1.604202 3.020086,2.58761 5.025905,2.78792 1.736965,0.173458 3.73635,-0.323924 5.056349,-1.539782 1.147246,-1.056727 2.14873,-2.766268 2.581578,-5.070701 0.520714,0.525828 0.530572,0.872425 1.051413,1.366279 2.053806,1.947393 3.921201,3.462742 3.921201,3.462742 l 2.775242,-3.362312 c 0,0 -1.00199,-1.38363 -2.848466,-2.778246 C 42.382368,20.35201 41.205697,18.908114 40.507754,17.208333 39.809809,15.508559 39.126577,12.702883 38.778445,10.9565 38.430312,9.2101181 38.391383,8.9457161 37.969896,6.1544041 37.126923,0.57177501 36.040117,-4.3239569 36.040117,-4.3239569 c -0.729265,-0.137582 -1.281177,-0.882167 -2.454303,0.267024 l -5.05e-4,9e-6 c 0,0 0.01069,8.340795 0.118262,11.894798 0.01439,0.47522 -0.05528,0.883864 -0.07867,1.327462 -0.02382,-0.0047 -0.0472,-0.01637 -0.0711,-0.02044 -0.69981,-0.127658 -1.420136,-0.170244 -2.115316,-0.186645 -0.69518,-0.0164 -1.293518,0.04288 -2.102064,0.334827 -1.512335,0.546121 -2.475181,1.8425469 -3.240924,3.2838759 -0.199986,0.06151 -0.437278,0.209078 -0.614571,0.218325 -0.695775,0.03628 -2.535383,-0.960779 -4.16595,-1.986115 -0.81528,-0.512667 -1.583051,-1.0042709 -2.442437,-1.2731599 -0.429649,-0.134597 -0.9165,-0.228564 -1.472422,-0.09077 -0.555922,0.137791 -1.088031,0.5888349 -1.346849,1.0953899 -0.191835,0.375467 -0.335887,0.781574 -0.309252,1.264555 0.02663,0.482986 0.299306,0.98352 0.613907,1.264599 0.629198,0.56217 1.205063,0.607661 1.736002,0.721839 1.061886,0.228351 1.87636,0.470804 2.089129,0.807013 0.391156,0.618089 0.754482,2.011875 0.93354,3.49589 0.179064,1.484016 0.227873,3.065885 0.263445,4.240114 0.04108,1.356187 -0.201701,1.179521 -0.368181,1.950246 -0.08915,0.412872 -0.225784,0.606203 -0.319256,0.729024 -0.1773,0.232977 -0.33357,0.385724 -0.613667,0.437014 -0.414178,0.07584 -0.957779,0.45992 -1.692509,0.185421 -0.965638,-0.360762 -0.922875,-0.334309 -1.555952,-1.108859 -0.09069,-0.110967 -0.270819,-0.594412 -0.322038,-1.294317 -0.05122,-0.699904 -0.01426,-1.569484 0.01653,-2.418308 0.03078,-0.84882 0.07405,-1.654796 -0.08356,-2.44764 -0.07881,-0.39642 -0.202211,-0.829415 -0.582561,-1.238564 -0.380351,-0.409143 -1.073038,-0.633734 -1.611998,-0.567496 -0.35766,0.04396 -0.71658,0.123887 -1.08174,0.381734 -0.36516,0.257848 -0.65061,0.764276 -0.69466,1.177099 -0.0881,0.825645 0.22382,1.21084 0.42047,1.602813 0.39332,0.783947 0.60299,1.371327 0.54064,1.562358 -0.25054,0.767651 -0.75719,1.953507 -1.41643,2.911571 -0.65924,0.958064 -1.43126,1.117724 -2.0876697,1.235722 C 8.0814582,25.764286 5.7741299,24.350825 5.3884498,23.097917 5.0027601,21.845008 4.8376201,21.891947 5.0547801,20.852631 5.2719502,19.813311 5.6965698,18.55574 6.1127095,17.272122 6.5287892,15.98848 6.9410988,14.68169 7.0920188,13.409424 7.2429188,12.137146 7.1278188,10.753029 6.1660695,9.7310941 4.6069004,8.0744621 2.3667916,7.6977411 0.47210293,7.9232061 -0.47525641,8.0359331 -0.4069703,8.2335664 -1.1659297,8.6179074 M -23.624491,12.64899 c -0.709277,0.515771 -0.729064,0.521627 -1.294342,0.616539 -0.844995,0.141878 -1.429544,0.07426 -1.771561,-0.04556 0.0449,-0.181849 0.11787,-0.42272 0.23283,-0.790596 0.141457,-0.452682 0.423547,-1.080532 -0.005,-1.931505 -0.21451,-0.425489 -0.647307,-0.7602189 -1.057694,-0.9080209 -0.4104,-0.147821 -0.810607,-0.177727 -1.259544,-0.164887 -0.864284,0.02471 -1.506591,0.565634 -1.923548,1.1152169 -0.0377,0.04975 -0.0526,0.121663 -0.0884,0.172927 -0.10982,-0.168491 -0.21835,-0.404134 -0.32633,-0.550271 -0.197487,-0.2673099 -0.380367,-0.4923339 -0.617917,-0.7039659 -0.118767,-0.10581 -0.246457,-0.213676 -0.470727,-0.318547 -0.224257,-0.104849 -0.647954,-0.243003 -1.142171,-0.0303 -0.4058,0.174668 -0.49027,0.340541 -0.591687,0.467018 -0.1014,0.126478 -0.17243,0.239177 -0.24464,0.360521 -0.14443,0.2426959 -0.282417,0.5155059 -0.433837,0.8341769 -0.302837,0.637356 -0.649897,1.446547 -1.020714,2.309976 -0.741627,1.726851 -1.605791,3.706115 -2.152818,4.59854 -0.685777,1.118785 -1.642381,2.838295 -2.840975,4.310956 -1.198591,1.472662 -2.590895,2.586834 -3.937726,2.763333 -1.519821,0.199171 -2.773295,0.280227 -4.353036,-0.338475 -0.789867,-0.309351 -1.877338,-0.7142 -2.694305,-1.480782 -0.816954,-0.766582 -1.321171,-1.511411 -1.486431,-2.324188 -0.17808,-0.885651 -0.714007,-2.106708 -0.563477,-3.482336 0.19386,-1.771516 0.755787,-3.585931 1.458991,-5.720262 1.051034,-0.109498 2.086288,-0.242828 2.933805,-0.441903 4.140116,-0.9724799 7.210958,-3.0858459 9.116706,-5.5113569 0.888537,-1.130866 2.067151,-2.569939 2.830045,-4.0595061 0.381447,-0.74477699 0.790177,-1.76161296 0.819647,-2.6201759 0.0295,-0.85857 0.0959,-2.626847 -0.621537,-3.28615 -0.715287,-0.65735 -2.194448,-0.826991 -3.129032,-0.814124 -0.934587,0.01286 -2.151008,0.62272 -2.830195,1.064814 -1.358381,0.884188 -2.587805,1.58147 -3.572449,2.391445 -1.918101,1.57782394 -2.512868,2.45555291 -6.378934,9.017429 -0.36272,0.615635 -0.625117,1.249627 -0.900957,1.880901 -0.920594,0.04174 -1.854248,0.08756 -2.768992,0.019 -2.437308,-0.182672 -5.42698,-1.851554 -5.42698,-1.851554 l -1.362828,1.4848804 c 0,0 3.865713,2.6322625 6.606258,2.8376855 0.695607,0.05213 1.005794,-0.07684 1.698391,-0.08228 -1.108144,1.90584 -1.831371,3.924645 -2.354028,5.684647 -0.452007,1.522105 -0.511567,3.772547 0.15829,5.525769 0.669867,1.753228 2.130798,3.7885 3.126002,4.369738 0.995204,0.581239 2.436855,1.432739 3.537919,1.758121 2.553388,0.754541 4.593376,0.639271 6.621964,-0.240372 2.394805,-1.038444 4.247786,-3.014823 5.631357,-4.714758 1.383574,-1.699934 2.187808,-3.477821 2.801045,-4.844861 0.595957,-1.328535 1.575021,-3.190674 2.315378,-4.914564 0.270147,-0.629044 0.493817,-1.128276 0.716944,-1.623319 0.1675,0.281059 0.32231,0.488003 0.487167,0.824701 0.0754,0.153958 0.10448,0.320083 0.1723,0.48167 -0.328527,1.168024 -0.663827,2.181483 -1.010414,3.415288 -0.394737,1.405236 -0.630697,2.931246 -0.706427,4.106284 -0.0379,0.58752 -0.311957,2.848726 -0.298697,3.491578 0.0264,1.278257 0.0459,1.460442 0.0691,1.550316 0.106157,0.412656 0.264647,0.455487 0.388027,0.743252 0.0617,0.143884 0.143,0.480575 0.731557,0.693146 0.294277,0.106298 0.681684,0.07528 0.921674,-0.02826 0.239987,-0.103534 0.363227,-0.230069 0.444677,-0.322143 0.325787,-0.368296 0.259067,-0.436069 0.289237,-0.535441 0.19626,-0.646371 0.38916,-2.447996 0.548077,-4.160726 0.11928,-1.285567 0.25985,-2.605998 0.591937,-4.401207 0.39079,-2.112613 1.308464,-7.08279 0.804987,-5.196063 -0.0759,0.623368 0.178597,1.650195 0.940204,2.142619 1.161244,0.750802 2.298476,0.87854 3.768299,0.466211 1.469823,-0.412329 1.100375,-0.545591 2.237675,-1.241669 z m 56.860282,-0.01404 c 0.140017,0.13833 0.926929,0.333281 1.064604,0.471393 0.78495,1.076191 0.955834,1.48845 1.660699,3.064949 0.402753,0.900789 0.569183,2.125204 0.678801,3.338178 -0.920432,1.52923 -1.164276,3.000181 -2.809336,4.563842 -0.796656,0.772805 -1.744423,0.804254 -3.0271,0.676159 -1.013822,-0.101243 -2.204325,-0.512475 -2.899986,-1.695959 -0.695659,-1.18349 -0.928042,-1.714719 -1.060244,-3.150011 -0.123031,-1.335701 0.101737,-3.415104 1.427065,-5.442817 1.325335,-2.027711 3.685107,-2.328746 4.965497,-1.825734 z M -40.134668,-2.1606529 c 0.26559,-0.03662 0.31594,-0.03396 0.528817,0.161678 0.21077,0.193689 0.23335,0.273407 0.22324,0.568104 -0.0101,0.294702 -0.15187,0.78186497 -0.437357,1.33928394 -0.570987,1.11484496 -1.650941,2.46141606 -2.563335,3.62264506 -1.696091,2.158679 -3.998799,4.209471 -7.464188,5.023464 -0.33311,0.07825 -0.816377,0.112839 -1.208534,0.178461 0.0592,-0.106567 0.0932,-0.220276 0.1554,-0.325798 3.779249,-6.4145071 3.924366,-5.910578 5.743827,-7.60949909 1.067844,-0.99710097 2.341965,-1.86706591 3.365649,-2.53339891 0.51184,-0.333169 1.390894,-0.388322 1.656481,-0.42494 z"
           id="path22898"
           sodipodi:nodetypes="cssssssscssscsssccsssscsccszzscccscczccsscsssssssssssssssssssssssszscsssccscssssscsscssssssssszcscssssszssscsccscszzssssscscsssssssscsscszccsscccsszcssssssccssss" />
      </g>
    </g>
  </g>
</svg>
