<?xml version="1.0" encoding="UTF-8" standalone="no"?>
<!-- Created with Inkscape (http://www.inkscape.org/) -->

<svg
   width="24.915092mm"
   height="41.229965mm"
   viewBox="0 0 24.915092 41.229965"
   version="1.1"
   id="svg674"
   inkscape:version="1.2.2 (732a01da63, 2022-12-09)"
   sodipodi:docname="´tim_side.svg"
   xmlns:inkscape="http://www.inkscape.org/namespaces/inkscape"
   xmlns:sodipodi="http://sodipodi.sourceforge.net/DTD/sodipodi-0.dtd"
   xmlns="http://www.w3.org/2000/svg"
   xmlns:svg="http://www.w3.org/2000/svg">
  <sodipodi:namedview
     id="namedview676"
     pagecolor="#ffffff"
     bordercolor="#000000"
     borderopacity="0.25"
     inkscape:showpageshadow="2"
     inkscape:pageopacity="0.0"
     inkscape:pagecheckerboard="0"
     inkscape:deskcolor="#d1d1d1"
     inkscape:document-units="mm"
     showgrid="false"
     inkscape:zoom="0.75455247"
     inkscape:cx="-37.108089"
     inkscape:cy="560.5972"
     inkscape:window-width="1920"
     inkscape:window-height="1027"
     inkscape:window-x="-8"
     inkscape:window-y="-8"
     inkscape:window-maximized="1"
     inkscape:current-layer="layer1">
    <inkscape:grid
       type="xygrid"
       id="grid1241" />
  </sodipodi:namedview>
  <defs
     id="defs671" />
  <g
     inkscape:label="Ebene 1"
     inkscape:groupmode="layer"
     id="layer1"
     transform="translate(-21.393403,-151.52113)">
    <path
       style="fill:#ff5555;stroke-width:0.529167"
       d="m 29.569395,152.38556 c -2.297802,0.65575 -2.098634,1.2923 -3.037345,3.03734 -0.938711,1.74504 -0.700049,5.30101 -0.433906,7.62436 0.266142,2.32334 -0.368486,4.57855 1.797612,6.13667 2.166098,1.55811 7.381563,0.74658 9.607928,-0.37192 2.226365,-1.11851 2.478582,-1.86155 3.347279,-4.1531 0.868697,-2.29156 1.418137,-7.09405 0.433906,-9.35998 -0.984231,-2.26594 -2.111569,-2.95614 -4.153105,-3.53324 -2.041536,-0.5771 -5.264567,-0.0359 -7.562369,0.61987 z"
       id="path659"
       sodipodi:nodetypes="zzzzzzzzz"
       inkscape:export-filename="2024\tough_crowd\godot\sprites\bodiesbody_red_2.svg"
       inkscape:export-xdpi="96"
       inkscape:export-ydpi="96" />
    <path
       style="fill:#b61f1f;fill-opacity:1;stroke-width:0.529167"
       d="m 29.696483,152.42741 c -0.976064,0.69512 1.84091,3.8092 1.84091,3.8092 h 4.777597 c 0,0 2.787952,-4.00161 1.753247,-4.33929 -1.034705,-0.33768 -7.395689,-0.16503 -8.371754,0.53009 z"
       id="path1322"
       sodipodi:nodetypes="zcczz" />
    <path
       style="fill:#ff5555;stroke-width:0.529167"
       d="m 29.039016,164.59162 c -2.316774,0.71426 -2.506532,1.27582 -3.243507,2.58292 -0.736974,1.30708 -0.400061,4.39129 0.175325,5.45822 0.575386,1.06693 2.109177,2.18942 3.813312,2.14431 1.704134,-0.0451 7.889601,-0.23179 9.686688,-0.82849 1.797086,-0.59669 2.889194,-3.6717 2.498376,-5.16582 -0.390818,-1.49412 0.343655,-1.90577 -2.103896,-4.14241 -2.447551,-2.23665 -8.509524,-0.76298 -10.826298,-0.0487 z"
       id="path710"
       sodipodi:nodetypes="zzzzzzzz" />
    <path
       style="fill:#ff5555;fill-opacity:1;stroke-width:0.529167"
       d="m 27.548756,170.35025 c -1.685521,0.0212 -2.566586,0.54853 -3.76948,3.85715 -1.202895,3.30862 0.525974,15.34091 0.525974,15.34091 l 3.243506,0.17532 2.892857,-0.52597 c 0,0 0.443983,-8.08226 0.613637,-10.78247 0.169653,-2.70022 -0.01309,-3.89696 -0.438312,-5.3474 -0.425217,-1.45044 -1.382661,-2.73873 -3.068182,-2.71754 z"
       id="path1324"
       sodipodi:nodetypes="zzccczzz" />
    <path
       style="fill:#ff5555;fill-opacity:1;stroke-width:0.529167"
       d="m 36.139665,170.17493 c -1.685521,0.0212 -2.566586,0.54853 -3.76948,3.85715 -1.202895,3.30862 0.525974,15.34091 0.525974,15.34091 l 3.243506,0.17532 2.892857,-0.52597 c 0,0 0.443983,-8.08226 0.613637,-10.78247 0.169653,-2.70022 -0.01309,-3.89696 -0.438312,-5.3474 -0.425217,-1.45044 -1.382661,-2.73873 -3.068182,-2.71754 z"
       id="path1671"
       sodipodi:nodetypes="zzccczzz" />
    <path
       style="fill:#666666;fill-opacity:1;stroke-width:0.529167"
       d="m 25.883172,188.05805 c -1.123855,0.45094 -2.814211,2.22314 -3.198385,3.02746 -0.384174,0.80432 0.438311,1.66558 0.438311,1.66558 l 7.581502,-0.1346 c 0,0 0.355784,-1.25397 0.175325,-2.01624 -0.180459,-0.76227 -0.136239,-1.79763 -1.030678,-2.34121 -0.894438,-0.54358 -2.842221,-0.65193 -3.966075,-0.20099 z"
       id="path1673"
       sodipodi:nodetypes="zzcczzz" />
    <path
       style="fill:#666666;fill-opacity:1;stroke-width:0.529167"
       d="m 34.82473,187.88273 c -1.123854,0.45094 -2.814211,1.9752 -3.198385,2.77952 -0.384173,0.80432 0.438312,1.66558 0.438312,1.66558 l 7.581502,0.11334 c 0,0 0.355784,-1.25397 0.175324,-2.01624 -0.180459,-0.76227 -0.508159,-1.73564 -1.402597,-2.27922 -0.894438,-0.54358 -2.470301,-0.71392 -3.594156,-0.26298 z"
       id="path1675"
       sodipodi:nodetypes="zzcczzz" />
    <path
       style="fill:#b61f1f;fill-opacity:1;stroke-width:0.529167"
       d="m 27.285769,153.60675 c -2.247191,0.0173 -5.709372,4.77687 -5.873376,7.01299 -0.164004,2.23612 0.750808,3.83631 2.103896,4.55844 1.353087,0.72213 2.850215,0.94192 4.646104,0.96432 1.795888,0.0223 5.961039,-0.26299 5.961039,-0.26299 l 2.366882,-2.71752 c 0,0 -4.145524,-1.39884 -7.188311,-1.57793 -3.042787,-0.1791 -2.423341,0.94202 -2.805195,-0.17533 -0.381854,-1.11735 0.38476,-1.74888 1.051948,-3.2435 0.667189,-1.49462 1.984205,-4.57576 -0.262987,-4.55844 z"
       id="path1731"
       sodipodi:nodetypes="zzzzcczzzzz" />
    <path
       style="fill:#b61f1f;fill-opacity:1;stroke-width:0.529167"
       d="m 40.151509,153.43143 c 2.247191,0.0173 5.97236,6.35479 6.136363,8.59091 0.164004,2.23612 -0.663146,3.13501 -2.016233,3.85714 -1.353088,0.72213 -3.200865,0.0653 -4.996754,0.0877 -1.795888,0.0223 -5.961039,-0.26299 -5.961039,-0.26299 l -1.402597,-1.8409 c 0,0 3.707213,-2.45078 5.61039,-2.45455 1.903176,-0.004 3.562952,-0.0223 4.032467,-0.78896 0.469515,-0.7667 -1.261382,-0.95993 -1.840909,-2.89286 -0.579527,-1.93293 -1.80888,-4.31277 0.438312,-4.29545 z"
       id="path1871"
       sodipodi:nodetypes="zzzzcczzzzz" />
  </g>
</svg>
