<?xml version="1.0" encoding="UTF-8" standalone="no"?>
<!-- Created with Inkscape (http://www.inkscape.org/) -->

<svg
   width="32.279579mm"
   height="56.331879mm"
   viewBox="0 0 32.279579 56.331879"
   version="1.1"
   id="svg674"
   inkscape:version="1.2.2 (732a01da63, 2022-12-09)"
   sodipodi:docname="´tim_side.svg"
   xmlns:inkscape="http://www.inkscape.org/namespaces/inkscape"
   xmlns:sodipodi="http://sodipodi.sourceforge.net/DTD/sodipodi-0.dtd"
   xmlns="http://www.w3.org/2000/svg"
   xmlns:svg="http://www.w3.org/2000/svg">
  <sodipodi:namedview
     id="namedview676"
     pagecolor="#ffffff"
     bordercolor="#000000"
     borderopacity="0.25"
     inkscape:showpageshadow="2"
     inkscape:pageopacity="0.0"
     inkscape:pagecheckerboard="0"
     inkscape:deskcolor="#d1d1d1"
     inkscape:document-units="mm"
     showgrid="false"
     inkscape:zoom="0.26677458"
     inkscape:cx="-1092.6828"
     inkscape:cy="2026.0551"
     inkscape:window-width="958"
     inkscape:window-height="1018"
     inkscape:window-x="-7"
     inkscape:window-y="0"
     inkscape:window-maximized="0"
     inkscape:current-layer="layer1"
     showguides="false">
    <inkscape:grid
       type="xygrid"
       id="grid1241" />
  </sodipodi:namedview>
  <defs
     id="defs671" />
  <g
     inkscape:label="Ebene 1"
     inkscape:groupmode="layer"
     id="layer1"
     transform="translate(108.72418,-165.82394)">
    <g
       id="g6357"
       inkscape:export-filename="2024\tough_crowd\godot\sprites\bodies\body_blue_1.svg"
       inkscape:export-xdpi="96"
       inkscape:export-ydpi="96"
       transform="translate(-128.33766,18.233766)">
      <path
         style="fill:#ff5557;fill-opacity:1;stroke-width:0.529167"
         d="m 35.518341,148.14805 -0.433906,4.40105 6.26065,-0.30993 -0.557882,-4.649 z"
         id="path3572"
         inkscape:export-filename="2024\tough_crowd\godot\sprites\bodies\body_green_1"
         inkscape:export-xdpi="96"
         inkscape:export-ydpi="96" />
      <g
         id="g3449">
        <path
           style="fill:#ff5557;fill-opacity:1;stroke:none;stroke-width:0.529167"
           d="m 30.934169,152.79985 c -1.746919,2.29895 -0.473377,9.13785 -0.164689,12.70664 0.308688,3.56879 1.84091,9.02922 1.84091,9.02922 l 13.149349,-0.35065 c 0,0 1.675581,-6.12745 1.665584,-9.5552 -0.01,-3.42775 -0.657725,-8.499 -1.928572,-10.6948 -1.270847,-2.1958 -1.642369,-2.28128 -3.331167,-2.80519 -2.330966,-0.64859 -5.160773,-0.74457 -7.09184,-0.44019 -2.461377,0.62311 -2.639187,0.5413 -4.139575,2.11017 z"
           id="path6695"
           sodipodi:nodetypes="czcczzccc" />
        <path
           style="fill:#4d4d4d;fill-opacity:1;stroke:none;stroke-width:0.529167"
           d="m 31.711712,171.0212 c -1.524757,2.41241 -1.162453,3.37513 -1.278699,4.80307 -0.116245,1.42795 -0.422541,4.15257 1.162455,5.58197 1.584996,1.42941 4.362454,1.55122 6.974721,1.29812 2.612266,-0.25309 6.749733,-0.66856 8.485912,-1.81738 1.736179,-1.14882 1.28309,-1.29605 1.743679,-3.1155 0.460588,-1.81946 0.04473,-5.46268 -1.394944,-7.13972 -1.439674,-1.67703 -1.779379,-1.15498 -4.76606,-1.29813 -2.98668,-0.14315 -9.402308,-0.72485 -10.927064,1.68757 z"
           id="path7374"
           sodipodi:nodetypes="zzzzzzzzz" />
        <path
           style="fill:#4d4d4d;fill-opacity:1;stroke:none;stroke-width:0.529167"
           d="m 33.469133,176.83419 c -1.791556,3.38234 -0.683685,7.13454 -0.619869,11.32434 0.06382,4.1898 0.196762,6.77207 0.371922,8.54292 0.17516,1.77084 0.495893,3.37743 0.495893,3.37743 l 8.8021,-0.49668 c 0,0 -1.218019,-7.81414 -1.363706,-11.82101 -0.145687,-4.00688 0.626115,-4.50897 -0.123972,-7.45023 -0.750087,-2.94126 0.125338,-4.11046 -1.8596,-4.86748 -1.984938,-0.75701 -3.911212,-1.99162 -5.702768,1.39071 z"
           id="path7430"
           sodipodi:nodetypes="zzzcczzzz" />
        <path
           style="fill:#4d4d4d;fill-opacity:1;stroke:none;stroke-width:0.529167"
           d="m 50.673561,176.8009 c 0.675797,2.4186 -0.308097,4.10538 -0.371917,8.34713 -0.06382,4.24174 0.547077,6.55433 0.371917,8.34713 -0.17516,1.79279 0.123973,6.03407 0.123973,6.03407 l -7.68634,0.3017 c 0,0 -1.137474,-8.31329 -0.74384,-12.4704 0.393633,-4.15712 0.737592,-4.4643 0.495893,-7.03975 -0.241699,-2.57545 0.721204,-8.03147 2.706142,-8.79787 1.984938,-0.76641 4.428376,2.85941 5.104172,5.27799 z"
           id="path7432"
           sodipodi:nodetypes="zzzcczzzz" />
        <path
           style="fill:#374845;fill-opacity:1;stroke:none;stroke-width:0.529167"
           d="m 34.11285,203.92206 c 0,0 -0.122899,-3.71392 1.091907,-4.58701 1.214806,-0.87309 2.632536,-0.93953 3.843173,-0.4959 1.210637,0.44363 2.522406,1.32217 3.041749,2.15009 0.519343,0.82792 0.305529,2.5609 0.305529,2.5609 z"
           id="path7434"
           sodipodi:nodetypes="czzzcc" />
        <path
           style="fill:#374845;fill-opacity:1;stroke:none;stroke-width:0.529167"
           d="m 43.410845,203.17822 c 0,0 -0.122899,-3.71392 1.091907,-4.58701 1.214806,-0.87309 2.632536,-0.93953 3.843173,-0.4959 1.210637,0.44363 2.785393,1.4975 3.304736,2.32542 0.519343,0.82792 0.04254,2.38557 0.04254,2.38557 z"
           id="path7436"
           sodipodi:nodetypes="czzzcc" />
        <path
           style="fill:#ff5557;fill-opacity:1;stroke:none;stroke-width:0.529167"
           d="m 33.596757,151.74327 c 0,0 -8.730492,3.87225 -10.661703,6.32264 -1.93121,2.4504 -4.199724,4.28508 -2.975358,7.56237 1.224366,3.2773 13.886015,5.78182 15.292763,5.25565 1.406748,-0.52617 1.587816,-2.76638 -0.201756,-3.58641 0,0 -8.174491,-2.44367 -8.892344,-3.77679 -0.717853,-1.33311 6.818529,-5.95071 6.818529,-5.95071 z"
           id="path7492"
           sodipodi:nodetypes="czzzczcc" />
        <path
           style="fill:#ff5557;fill-opacity:1;stroke:none;stroke-width:0.529167"
           d="m 41.680717,150.99943 c 0,0 3.771561,2.50854 5.702772,4.95893 1.93121,2.4504 4.199724,4.28508 2.975358,7.56237 -1.224366,3.2773 -4.811105,5.47975 -4.811105,5.47975 l -5.496296,-1.13187 c 0,0 3.390885,-5.12231 4.108738,-6.45543 0.717853,-1.33311 -1.859598,-4.587 -1.859598,-4.587 z"
           id="path7701"
           sodipodi:nodetypes="czzcczcc" />
      </g>
      <path
         style="fill:#0c6e0c;fill-opacity:1;stroke-width:0.529167"
         d="m 35.828274,148.27202 -0.06199,2.16954"
         id="path3514" />
    </g>
  </g>
</svg>
