<?xml version="1.0" encoding="UTF-8" standalone="no"?>
<!-- Created with Inkscape (http://www.inkscape.org/) -->

<svg
   width="35.81292mm"
   height="55.770721mm"
   viewBox="0 0 35.81292 55.770721"
   version="1.1"
   id="svg674"
   inkscape:version="1.2.2 (732a01da63, 2022-12-09)"
   sodipodi:docname="´tim_side.svg"
   xmlns:inkscape="http://www.inkscape.org/namespaces/inkscape"
   xmlns:sodipodi="http://sodipodi.sourceforge.net/DTD/sodipodi-0.dtd"
   xmlns="http://www.w3.org/2000/svg"
   xmlns:svg="http://www.w3.org/2000/svg">
  <sodipodi:namedview
     id="namedview676"
     pagecolor="#ffffff"
     bordercolor="#000000"
     borderopacity="0.25"
     inkscape:showpageshadow="2"
     inkscape:pageopacity="0.0"
     inkscape:pagecheckerboard="0"
     inkscape:deskcolor="#d1d1d1"
     inkscape:document-units="mm"
     showgrid="false"
     inkscape:zoom="0.26677458"
     inkscape:cx="-1092.6828"
     inkscape:cy="2026.0551"
     inkscape:window-width="958"
     inkscape:window-height="1018"
     inkscape:window-x="-7"
     inkscape:window-y="0"
     inkscape:window-maximized="0"
     inkscape:current-layer="layer1"
     showguides="false">
    <inkscape:grid
       type="xygrid"
       id="grid1241" />
  </sodipodi:namedview>
  <defs
     id="defs671" />
  <g
     inkscape:label="Ebene 1"
     inkscape:groupmode="layer"
     id="layer1"
     transform="translate(153.28513,-163.38514)">
    <path
       style="fill:#0c6e0c;fill-opacity:1;stroke:none;stroke-width:0.529167"
       d="m -147.62869,166.30507 c 4.07577,-3.96253 11.82055,-3.8637 15.86858,0.12398 4.04804,3.98767 -0.12397,19.71175 -0.12397,19.71175 l -14.87679,0.12397 c 0,0 -4.94358,-15.99716 -0.86782,-19.9597 z"
       id="path4753"
       sodipodi:nodetypes="zzccz"
       inkscape:export-filename="2024\tough_crowd\godot\sprites\bodies\body_red_3.svg"
       inkscape:export-xdpi="96"
       inkscape:export-ydpi="96" />
    <path
       style="fill:#1c2422;fill-opacity:1;stroke:none;stroke-width:0.529167"
       d="m -129.8097,195.84917 1.88172,2.62191 c 0,0 0.60914,0.53997 2.17039,0.79379 1.56126,0.25382 3.25646,0.55117 5.22959,0.33267 1.97313,-0.21849 3.03823,-1.00935 3.05569,-2.44913 0.0174,-1.43978 -2.36788,-2.14623 -3.25407,-2.39233 -0.88619,-0.2461 -2.18317,-0.39443 -3.48082,-0.44794 -1.29766,-0.0535 -3.48505,-0.75805 -3.48505,-0.75805 z"
       id="path4938"
       sodipodi:nodetypes="cczzzzzcc" />
    <path
       style="fill:#808080;fill-opacity:1;stroke:none;stroke-width:0.529167"
       d="m -145.72853,178.79856 c -3.05585,0.82237 -3.5638,3.10042 -3.1228,5.51019 0.44095,2.40979 10.36527,6.11699 10.36527,6.11699 l 9.29453,8.46401 3.83071,-5.77005 -9.0211,-9.0203 c 0,0 -8.29078,-6.12324 -11.34661,-5.30084 z"
       id="path4809"
       sodipodi:nodetypes="zzccccz" />
    <path
       style="fill:#808080;fill-opacity:1;stroke:none;stroke-width:0.529167"
       d="m -140.69805,194.10812 c 0,0 0.01,-3.63978 1.57793,-4.8372 1.56794,-1.19742 4.70227,-1.92506 6.48701,-0.78019 1.78474,1.14486 0.61364,6.78768 0.61364,6.78768 l -0.17533,18.88068 -6.92533,-0.078 z"
       id="path4865"
       sodipodi:nodetypes="czzcccc" />
    <path
       style="fill:#808080;fill-opacity:1;stroke:none;stroke-width:0.529167"
       d="m -148.14935,183.38961 c 0,0 0.44625,3.39825 0.35065,4.73376 -0.0956,1.33552 0.2567,1.98978 1.4026,3.33117 1.14589,1.34139 2.78749,1.90522 4.99675,2.01624 2.20926,0.11102 4.42637,-0.55076 6.22403,-0.96429 1.79766,-0.41353 3.38746,0.36032 4.55844,-1.40259 1.17098,-1.76292 -1.05195,-8.59091 -1.05195,-8.59091 l -6.66234,0.52597 z"
       id="path4936"
       sodipodi:nodetypes="czzzzzccc" />
    <path
       style="fill:#1c2422;fill-opacity:1;stroke:none;stroke-width:0.529167"
       d="m -139.03246,212.75649 c 0,0 -1.12291,3.55863 -1.05195,4.6461 0.071,1.08748 0.61363,1.66559 0.61363,1.66559 l 6.92533,0.0877 h 3.50649 c 0,0 0.50933,-1.16218 0.26299,-2.01623 -0.24634,-0.85405 -1.27279,-1.83125 -2.1039,-2.54221 -0.83111,-0.71096 -2.36688,-1.57792 -2.80519,-1.66558 -0.43831,-0.0877 -5.3474,-0.17533 -5.3474,-0.17533 z"
       id="path4994"
       sodipodi:nodetypes="czccczzsc" />
    <path
       style="fill:#0c6e0c;fill-opacity:1;stroke:none;stroke-width:0.529167"
       d="m -147.56203,166.4593 c 0,0 -4.21329,4.50303 -5.07491,6.85971 -0.86162,2.35667 -0.72072,4.78446 -0.39625,6.38767 0.32447,1.60321 1.17861,1.8131 2.83481,2.7944 1.65619,0.98131 13.53131,-0.50841 13.53131,-0.50841 l -5.39447,-4.12576 -3.49744,-7.54113 z"
       id="path4996"
       sodipodi:nodetypes="czzzcccc" />
    <path
       style="fill:#0c6e0c;fill-opacity:1;stroke:none;stroke-width:0.529167"
       d="m -133.15909,165.76948 c 0,0 1.94658,1.38592 3.24351,2.98052 1.29693,1.59459 3.96148,4.4435 4.29545,6.31169 0.33397,1.86818 0.37047,3.81203 -0.43831,5.17207 -0.80878,1.36005 -2.4395,1.39967 -4.38312,1.75325 -1.94362,0.35359 -7.53896,-1.22727 -7.53896,-1.22727 z"
       id="path5205"
       sodipodi:nodetypes="czzzzcc" />
  </g>
</svg>
