<?xml version="1.0" encoding="UTF-8" standalone="no"?>
<!-- Created with Inkscape (http://www.inkscape.org/) -->

<svg
   width="32.279575mm"
   height="56.331894mm"
   viewBox="0 0 32.279575 56.331894"
   version="1.1"
   id="svg674"
   inkscape:version="1.2.2 (732a01da63, 2022-12-09)"
   sodipodi:docname="´tim_side.svg"
   xmlns:inkscape="http://www.inkscape.org/namespaces/inkscape"
   xmlns:sodipodi="http://sodipodi.sourceforge.net/DTD/sodipodi-0.dtd"
   xmlns="http://www.w3.org/2000/svg"
   xmlns:svg="http://www.w3.org/2000/svg">
  <sodipodi:namedview
     id="namedview676"
     pagecolor="#ffffff"
     bordercolor="#000000"
     borderopacity="0.25"
     inkscape:showpageshadow="2"
     inkscape:pageopacity="0.0"
     inkscape:pagecheckerboard="0"
     inkscape:deskcolor="#d1d1d1"
     inkscape:document-units="mm"
     showgrid="false"
     inkscape:zoom="0.75455247"
     inkscape:cx="-37.108089"
     inkscape:cy="560.5972"
     inkscape:window-width="1920"
     inkscape:window-height="1027"
     inkscape:window-x="-8"
     inkscape:window-y="-8"
     inkscape:window-maximized="1"
     inkscape:current-layer="layer1">
    <inkscape:grid
       type="xygrid"
       id="grid1241" />
  </sodipodi:namedview>
  <defs
     id="defs671" />
  <g
     inkscape:label="Ebene 1"
     inkscape:groupmode="layer"
     id="layer1"
     transform="translate(-19.613476,-147.59016)">
    <path
       style="fill:#ff5555;fill-opacity:1;stroke:none;stroke-width:0.529167"
       d="M -41.580164,199.83233 V 219.9462 H 180.00187 c 0,0 -11.38108,-11.12626 -42.41073,-18.01068 -31.02966,-6.88442 -75.957555,-7.73996 -92.107873,-7.54993 -16.150319,0.19003 -54.3279356,0.39314 -87.063431,5.44674 z"
       id="path13406"
       sodipodi:nodetypes="ccczzc"
       inkscape:export-filename="2024\tough_crowd\godot\sprites\buehne.svg"
       inkscape:export-xdpi="96"
       inkscape:export-ydpi="96" />
    <g
       id="g3320"
       transform="translate(-11.532796,70.418533)">
      <g
         id="g3318"
         transform="translate(24.282468,0.08766234)">
        <path
           style="fill:#000000;fill-opacity:1;stroke:none;stroke-width:0.529167"
           d="m 16.922351,63.722257 c 0,0 -1.5462,2.84085 -1.487679,4.029133 0.05852,1.188283 0.592943,1.308581 0.867812,1.921584 0.274869,0.613003 -0.371919,1.642647 -0.309933,2.41748 0.06199,0.774833 0.236043,1.398939 0.619867,1.983573 0.383824,0.584635 1.983572,0.805826 1.983572,0.805826 l 3.967144,-0.06199 7.376409,-1.239733 1.983574,-0.247943 c 0,0 1.664835,-0.782226 2.045562,-1.673639 0.380728,-0.891413 0.852276,-2.096721 0.495894,-3.161319 -0.356382,-1.064598 -1.797613,-3.037346 -1.797613,-3.037346 l -0.681853,-1.053771 -3.967144,-3.719197 -5.020918,-0.619869 z"
           id="path3296"
           sodipodi:nodetypes="czzzzcccczzccccc" />
        <path
           style="fill:#aa4400;fill-opacity:1;stroke:none;stroke-width:0.529167"
           d="m 18.100097,65.581857 c -0.801782,2.096943 -0.506086,6.527542 0.433906,8.678129 0.939993,2.150588 1.62141,3.190426 3.905159,4.029131 2.283748,0.838704 4.217884,0.677624 6.322635,-0.619866 2.104752,-1.29749 3.486899,-3.720361 3.471251,-5.764758 -0.01565,-2.044396 -0.137523,-5.004951 -1.053772,-6.942502 -0.916249,-1.937551 -0.851218,-4.275545 -2.975357,-5.082903 -2.124139,-0.807358 -6.079897,-1.003575 -7.19045,0.433906 -1.110553,1.43748 -2.217505,3.537022 -2.913372,5.268863 z"
           id="path3298"
           sodipodi:nodetypes="czzzzzzzc" />
        <path
           style="fill:#000000;fill-opacity:1;stroke:none;stroke-width:0.529167"
           d="m 26.158359,57.523596 c 0,0 -2.473401,-2.413372 -3.781185,-2.541453 -1.307784,-0.128081 -2.313174,0.851605 -3.161318,1.611652 -0.848144,0.760047 -0.396641,4.148807 -1.239732,4.215092 -0.843092,0.06628 -1.883954,-0.118425 -2.355493,2.045559 -0.471539,2.163985 1.128875,4.812068 1.673639,4.958929 0.544763,0.146861 2.033161,-1.146011 2.727412,-2.045558 0.694252,-0.899547 0.578255,-2.358281 0.867813,-3.409266 0.289558,-1.050985 1.288355,-1.270841 1.921586,-1.425691 0.633231,-0.15485 2.140096,2.191769 2.140096,2.191769 z"
           id="path3300"
           sodipodi:nodetypes="czzzzzzzzcc" />
        <path
           style="fill:#aa4400;fill-opacity:1;stroke:none;stroke-width:0.529167"
           d="m 30.90334,67.379471 c 0,0 1.420847,-0.787487 2.107546,0.06198 0.686699,0.849472 0.482957,1.895152 0.18596,2.417478 -0.296998,0.522327 -1.735626,1.363708 -1.735626,1.363708 z"
           id="path3302"
           sodipodi:nodetypes="czzcc" />
        <path
           style="fill:#000000;fill-opacity:1;stroke:#000000;stroke-width:0.529167"
           d="m 25.352533,57.523596 c 0,0 2.486465,-0.906943 3.595225,-0.681855 1.10876,0.225088 2.504205,0.312246 3.161319,1.177747 0.657114,0.865501 -0.0026,2.952532 0.495892,3.781185 0.498517,0.828653 1.349748,0.772989 1.673638,1.735624 0.32389,0.962635 0.781427,1.875586 0.18596,2.913374 -0.595467,1.037788 -0.991786,1.859598 -0.991786,1.859598 0,0 -2.771597,-0.587598 -2.975357,-1.425691 -0.203761,-0.838094 -0.416501,-1.137277 -10e-7,-2.293507 0.4165,-1.15623 -1.032483,-3.33457 -2.603437,-2.913371 -1.570954,0.421199 -2.665426,0.991786 -2.665426,0.991786 z"
           id="path3304"
           sodipodi:nodetypes="czzzzzczzzcc" />
        <path
           style="fill:#ffffff;fill-opacity:1;stroke:none;stroke-width:0.529167"
           d="m 21.943268,66.635629 c -0.498488,0.166162 -1.139876,0.375921 -1.363706,1.053774 -0.22383,0.677853 -0.210123,1.068902 0.18596,1.611653 0.396083,0.542751 1.037467,0.728392 1.425692,0.681854 0.388225,-0.04654 0.780608,-0.285188 0.991787,-0.55788 0.211179,-0.272692 0.454397,-1.167681 0.123973,-1.921587 -0.330425,-0.753907 -0.865218,-1.033976 -1.363706,-0.867814 z"
           id="path3306"
           sodipodi:nodetypes="zzzzzzz" />
        <path
           style="fill:#ffffff;fill-opacity:1;stroke:none;stroke-width:0.529167"
           d="m 27.212132,66.387682 c -0.498488,0.166162 -1.139876,0.375921 -1.363706,1.053774 -0.22383,0.677853 -0.148137,1.130889 0.247946,1.67364 0.396083,0.542751 0.727534,0.666405 1.425692,0.681854 0.698158,0.01545 0.780608,-0.285188 0.991787,-0.55788 0.211179,-0.272692 0.392411,-1.229668 0.06199,-1.983574 -0.330425,-0.753907 -0.865218,-1.033976 -1.363706,-0.867814 z"
           id="path3308"
           sodipodi:nodetypes="zzzzzzzz" />
        <ellipse
           style="fill:#1a1a1a;fill-opacity:1;stroke:none;stroke-width:0.529167"
           id="ellipse3310"
           cx="22.005255"
           cy="68.867149"
           rx="1.1777461"
           ry="1.1777459" />
        <ellipse
           style="fill:#1a1a1a;fill-opacity:1;stroke:none;stroke-width:0.529167"
           id="ellipse3312"
           cx="27.336105"
           cy="68.929138"
           rx="1.1777461"
           ry="1.1777459" />
        <path
           style="fill:none;fill-opacity:1;stroke:#000000;stroke-width:0.529167"
           d="m 21.351814,72.18488 c 0,0 2.233545,4.122732 3.956888,4.016516 1.723343,-0.106216 3.273746,-4.225036 3.273746,-4.225036"
           id="path3314"
           sodipodi:nodetypes="czc" />
        <path
           style="fill:#aa4400;fill-opacity:1;stroke:none;stroke-width:0.529167"
           d="m 19.029896,67.503444 c 0,0 -1.420847,-0.787487 -2.107546,0.06198 -0.686699,0.849472 -0.482957,1.895152 -0.18596,2.417478 0.296998,0.522327 1.735626,1.363708 1.735626,1.363708 z"
           id="path3316"
           sodipodi:nodetypes="czzcc" />
      </g>
    </g>
    <g
       id="g6357">
      <path
         style="fill:#0c6e0c;fill-opacity:1;stroke-width:0.529167"
         d="m 35.518341,148.14805 -0.433906,4.40105 6.26065,-0.30993 -0.557882,-4.649 z"
         id="path3572"
         inkscape:export-filename="2024\tough_crowd\godot\sprites\bodies\body_green_1"
         inkscape:export-xdpi="96"
         inkscape:export-ydpi="96" />
      <g
         id="g3449">
        <path
           style="fill:#0c6e0c;fill-opacity:1;stroke:none;stroke-width:0.529167"
           d="m 30.934169,152.79985 c -1.746919,2.29895 -0.473377,9.13785 -0.164689,12.70664 0.308688,3.56879 1.84091,9.02922 1.84091,9.02922 l 13.149349,-0.35065 c 0,0 1.675581,-6.12745 1.665584,-9.5552 -0.01,-3.42775 -0.657725,-8.499 -1.928572,-10.6948 -1.270847,-2.1958 -1.642369,-2.28128 -3.331167,-2.80519 -2.330966,-0.64859 -5.160773,-0.74457 -7.09184,-0.44019 -2.461377,0.62311 -2.639187,0.5413 -4.139575,2.11017 z"
           id="path6695"
           sodipodi:nodetypes="czcczzccc" />
        <path
           style="fill:#4d4d4d;fill-opacity:1;stroke:none;stroke-width:0.529167"
           d="m 31.711712,171.0212 c -1.524757,2.41241 -1.162453,3.37513 -1.278699,4.80307 -0.116245,1.42795 -0.422541,4.15257 1.162455,5.58197 1.584996,1.42941 4.362454,1.55122 6.974721,1.29812 2.612266,-0.25309 6.749733,-0.66856 8.485912,-1.81738 1.736179,-1.14882 1.28309,-1.29605 1.743679,-3.1155 0.460588,-1.81946 0.04473,-5.46268 -1.394944,-7.13972 -1.439674,-1.67703 -1.779379,-1.15498 -4.76606,-1.29813 -2.98668,-0.14315 -9.402308,-0.72485 -10.927064,1.68757 z"
           id="path7374"
           sodipodi:nodetypes="zzzzzzzzz" />
        <path
           style="fill:#4d4d4d;fill-opacity:1;stroke:none;stroke-width:0.529167"
           d="m 33.469133,176.83419 c -1.791556,3.38234 -0.683685,7.13454 -0.619869,11.32434 0.06382,4.1898 0.196762,6.77207 0.371922,8.54292 0.17516,1.77084 0.495893,3.37743 0.495893,3.37743 l 8.8021,-0.49668 c 0,0 -1.218019,-7.81414 -1.363706,-11.82101 -0.145687,-4.00688 0.626115,-4.50897 -0.123972,-7.45023 -0.750087,-2.94126 0.125338,-4.11046 -1.8596,-4.86748 -1.984938,-0.75701 -3.911212,-1.99162 -5.702768,1.39071 z"
           id="path7430"
           sodipodi:nodetypes="zzzcczzzz" />
        <path
           style="fill:#4d4d4d;fill-opacity:1;stroke:none;stroke-width:0.529167"
           d="m 50.673561,176.8009 c 0.675797,2.4186 -0.308097,4.10538 -0.371917,8.34713 -0.06382,4.24174 0.547077,6.55433 0.371917,8.34713 -0.17516,1.79279 0.123973,6.03407 0.123973,6.03407 l -7.68634,0.3017 c 0,0 -1.137474,-8.31329 -0.74384,-12.4704 0.393633,-4.15712 0.737592,-4.4643 0.495893,-7.03975 -0.241699,-2.57545 0.721204,-8.03147 2.706142,-8.79787 1.984938,-0.76641 4.428376,2.85941 5.104172,5.27799 z"
           id="path7432"
           sodipodi:nodetypes="zzzcczzzz" />
        <path
           style="fill:#374845;fill-opacity:1;stroke:none;stroke-width:0.529167"
           d="m 34.11285,203.92206 c 0,0 -0.122899,-3.71392 1.091907,-4.58701 1.214806,-0.87309 2.632536,-0.93953 3.843173,-0.4959 1.210637,0.44363 2.522406,1.32217 3.041749,2.15009 0.519343,0.82792 0.305529,2.5609 0.305529,2.5609 z"
           id="path7434"
           sodipodi:nodetypes="czzzcc" />
        <path
           style="fill:#374845;fill-opacity:1;stroke:none;stroke-width:0.529167"
           d="m 43.410845,203.17822 c 0,0 -0.122899,-3.71392 1.091907,-4.58701 1.214806,-0.87309 2.632536,-0.93953 3.843173,-0.4959 1.210637,0.44363 2.785393,1.4975 3.304736,2.32542 0.519343,0.82792 0.04254,2.38557 0.04254,2.38557 z"
           id="path7436"
           sodipodi:nodetypes="czzzcc" />
        <path
           style="fill:#0c6e0c;fill-opacity:1;stroke:none;stroke-width:0.529167"
           d="m 33.596757,151.74327 c 0,0 -8.730492,3.87225 -10.661703,6.32264 -1.93121,2.4504 -4.199724,4.28508 -2.975358,7.56237 1.224366,3.2773 13.886015,5.78182 15.292763,5.25565 1.406748,-0.52617 1.587816,-2.76638 -0.201756,-3.58641 0,0 -8.174491,-2.44367 -8.892344,-3.77679 -0.717853,-1.33311 6.818529,-5.95071 6.818529,-5.95071 z"
           id="path7492"
           sodipodi:nodetypes="czzzczcc" />
        <path
           style="fill:#0c6e0c;fill-opacity:1;stroke:none;stroke-width:0.529167"
           d="m 41.680717,150.99943 c 0,0 3.771561,2.50854 5.702772,4.95893 1.93121,2.4504 4.199724,4.28508 2.975358,7.56237 -1.224366,3.2773 -4.811105,5.47975 -4.811105,5.47975 l -5.496296,-1.13187 c 0,0 3.390885,-5.12231 4.108738,-6.45543 0.717853,-1.33311 -1.859598,-4.587 -1.859598,-4.587 z"
           id="path7701"
           sodipodi:nodetypes="czzcczcc" />
      </g>
      <path
         style="fill:#0c6e0c;fill-opacity:1;stroke-width:0.529167"
         d="m 35.828274,148.27202 -0.06199,2.16954"
         id="path3514" />
    </g>
  </g>
</svg>
